{
.appVersion = "3430";
.formatVersion = 3;
axes = (
{
name = "d p q Height";
tag = DPQH;
},
{
name = "Loop Height";
tag = LOOH;
}
);
classes = (
{
automatic = 1;

glyphs = (
{
color = 6;
glyphname = A;
kernLeft = A;
kernRight = A;
lastChange = "2025-10-02 11:49:48 +0000";
layers = (
{
anchors = (
{
name = bottom;
pos = (360,0);
},
{
name = top;
pos = (360,722);
}
);
layerId = "6DBDBFCA-DF26-4695-B281-FA25C6EAD80F";
shapes = (
{
closed = 1;
nodes = (
(379,641,l),
(334,645,l),
(595,-14,l),
(631,-9,o),
(661,2,o),
(679,21,c),
(397,722,l),
(389,726,o),
(373,729,o),
(358,729,cs),
(344,729,o),
(329,726,o),
(320,722,c),
(40,20,l),
(60,0,o),
(91,-10,o),
(121,-14,c)
);
},
{
closed = 1;
nodes = (
(522,185,l),
(522,271,l),
(182,271,l),
(182,185,l)
);
}
);
width = 719;
}
);
unicode = 65;
},
{
color = 6;
glyphname = A.cv04;
kernLeft = A.alt;
kernRight = no_kerning;
lastChange = "2025-10-02 11:49:48 +0000";
layers = (
{
anchors = (
{
name = bottom;
pos = (426,0);
},
{
name = top;
pos = (429,722);
}
);
color = 5;
layerId = "6DBDBFCA-DF26-4695-B281-FA25C6EAD80F";
name = Regular;
shapes = (
{
closed = 1;
nodes = (
(572,188,l),
(572,272,l),
(283,272,l),
(276,188,l)
);
},
{
closed = 1;
nodes = (
(186,105,o),
(168,83,o),
(128,83,cs),
(105,83,o),
(82,90,o),
(43,107,c),
(21,92,o),
(9,62,o),
(10,25,c),
(48,5,o),
(91,-6,o),
(134,-6,cs),
(214,-6,o),
(258,35,o),
(300,147,cs),
(347,273,o),
(425,566,o),
(439,671,c),
(410,676,l),
(430,544,o),
(489,305,o),
(541,166,cs),
(586,46,o),
(631,-14,o),
(710,-14,cs),
(731,-14,o),
(745,4,o),
(745,32,cs),
(745,56,o),
(734,72,o),
(717,72,cs),
(682,72,o),
(659,104,o),
(627,199,cs),
(575,348,o),
(516,572,o),
(487,723,c),
(471,731,o),
(449,736,o),
(428,736,cs),
(406,736,o),
(382,732,o),
(367,726,c),
(322,514,o),
(256,301,o),
(215,187,cs)
);
}
);
width = 718;
}
);
metricLeft = A.isol.cv04;
metricRight = "=-27";
},
{
color = 3;
glyphname = A.cv05;
kernLeft = O;
kernRight = no_kerning;
lastChange = "2025-10-02 11:49:49 +0000";
layers = (
{
anchors = (
{
name = top;
pos = (356,722);
}
);
color = 7;
layerId = "6DBDBFCA-DF26-4695-B281-FA25C6EAD80F";
name = Regular;
shapes = (
{
pos = (472,0);
ref = _part.caps.connect;
},
{
closed = 1;
nodes = (
(655,150,l),
(655,377,l),
(624,385,o),
(594,385,o),
(562,377,c),
(562,273,ls),
(562,153,o),
(476,77,o),
(369,77,cs),
(231,77,o),
(165,203,o),
(165,359,cs),
(165,555,o),
(268,646,o),
(390,646,cs),
(477,646,o),
(538,599,o),
(561,537,c),
(595,541,o),
(626,555,o),
(643,575,c),
(606,677,o),
(516,736,o),
(392,736,cs),
(186,736,o),
(70,569,o),
(70,353,cs),
(70,153,o),
(170,-14,o),
(369,-14,cs),
(458,-14,o),
(549,19,o),
(594,116,c)
);
}
);
width = 726;
}
);
metricLeft = G.cv04;
metricRight = U.cv04;
},
{
color = 6;
glyphname = A.isol.cv04;
kernLeft = A.alt;
kernRight = A.alt;
lastChange = "2025-10-02 11:49:48 +0000";
layers = (
{
anchors = (
{
name = bottom;
pos = (426,0);
},
{
name = top;
pos = (424,722);
}
);
color = 5;
guides = (
{
pos = (399,181);
}
);
layerId = "6DBDBFCA-DF26-4695-B281-FA25C6EAD80F";
name = Regular;
shapes = (
{
closed = 1;
nodes = (
(572,188,l),
(572,272,l),
(283,272,l),
(276,188,l)
);
},
{
closed = 1;
nodes = (
(186,105,o),
(168,83,o),
(128,83,cs),
(105,83,o),
(82,90,o),
(43,107,c),
(21,92,o),
(9,62,o),
(10,25,c),
(48,5,o),
(91,-6,o),
(134,-6,cs),
(214,-6,o),
(258,35,o),
(300,147,cs),
(347,273,o),
(425,566,o),
(439,671,c),
(410,676,l),
(429,544,o),
(490,306,o),
(541,166,cs),
(591,28,o),
(629,-14,o),
(703,-14,cs),
(791,-14,o),
(838,46,o),
(843,166,c),
(824,177,o),
(780,181,o),
(757,174,c),
(751,104,o),
(736,75,o),
(706,75,cs),
(677,75,o),
(660,102,o),
(627,199,cs),
(575,348,o),
(516,572,o),
(487,723,c),
(471,731,o),
(449,736,o),
(428,736,cs),
(406,736,o),
(382,732,o),
(367,726,c),
(322,514,o),
(256,301,o),
(215,187,cs)
);
}
);
width = 843;
}
);
},
{
color = 3;
glyphname = A.isol.cv05;
kernLeft = O;
kernRight = U.alt;
lastChange = "2025-10-02 11:49:49 +0000";
layers = (
{
anchors = (
{
name = "#fina";
pos = (605,16);
},
{
name = bottom;
pos = (369,0);
},
{
name = center;
pos = (369,361);
},
{
name = top;
pos = (369,722);
}
);
color = 7;
layerId = "6DBDBFCA-DF26-4695-B281-FA25C6EAD80F";
shapes = (
{
pos = (464,0);
ref = _part.caps.termin;
},
{
closed = 1;
nodes = (
(655,164,l),
(655,377,l),
(624,385,o),
(594,385,o),
(562,377,c),
(562,273,ls),
(562,153,o),
(476,77,o),
(369,77,cs),
(231,77,o),
(165,203,o),
(165,359,cs),
(165,555,o),
(268,646,o),
(390,646,cs),
(477,646,o),
(538,599,o),
(561,537,c),
(595,541,o),
(626,555,o),
(643,575,c),
(606,677,o),
(516,736,o),
(392,736,cs),
(186,736,o),
(70,569,o),
(70,353,cs),
(70,153,o),
(170,-14,o),
(369,-14,cs),
(458,-14,o),
(549,19,o),
(594,116,c)
);
}
);
width = 881;
}
);
metricLeft = G.cv04;
metricRight = "=|U.isol.cv04";
},
{
color = 6;
glyphname = AE;
kernLeft = AE;
kernRight = H;
lastChange = "2025-10-02 11:49:48 +0000";
layers = (
{
anchors = (
{
name = bottom;
pos = (572,0);
},
{
name = top;
pos = (572,722);
}
);
layerId = "6DBDBFCA-DF26-4695-B281-FA25C6EAD80F";
shapes = (
{
closed = 1;
nodes = (
(571,722,l),
(473,722,l),
(40,39,l),
(56,16,o),
(85,0,o),
(113,-9,c)
);
},
{
closed = 1;
nodes = (
(567,185,l),
(567,271,l),
(218,271,l),
(218,185,l)
);
},
{
closed = 1;
nodes = (
(893,0,l),
(901,26,o),
(901,64,o),
(893,87,c),
(609,87,l),
(609,320,l),
(874,320,l),
(881,348,o),
(882,384,o),
(874,407,c),
(609,407,l),
(609,635,l),
(886,635,l),
(893,660,o),
(895,697,o),
(886,722,c),
(516,722,l),
(516,0,l)
);
}
);
width = 964;
}
);
metricLeft = A;
metricRight = E;
unicode = 198;
},
{
color = 3;
glyphname = AE.cv04;
kernLeft = A.alt;
kernRight = AE.alt;
lastChange = "2025-10-02 11:49:49 +0000";
layers = (
{
color = 5;
layerId = "6DBDBFCA-DF26-4695-B281-FA25C6EAD80F";
shapes = (
{
ref = _part.AEcurs;
},
{
closed = 1;
nodes = (
(808,-14,o),
(887,42,o),
(950,138,c),
(935,166,o),
(913,182,o),
(878,186,c),
(829,112,o),
(777,76,o),
(722,76,cs),
(692,76,o),
(689,-14,o),
(717,-14,cs)
);
}
);
width = 987;
}
);
metricLeft = A.cv04;
},
{
color = 3;
glyphname = AE.long.cv04;
kernLeft = A.alt;
kernRight = C.long;
lastChange = "2025-10-02 11:49:49 +0000";
layers = (
{
color = 5;
layerId = "6DBDBFCA-DF26-4695-B281-FA25C6EAD80F";
shapes = (
{
closed = 1;
nodes = (
(872,-14,o),
(988,125,o),
(1079,264,c),
(1064,296,o),
(1037,310,o),
(1006,314,c),
(924,195,o),
(834,76,o),
(722,76,c),
(702,44,o),
(705,14,o),
(717,-14,c)
);
},
{
locked = 1;
ref = _part.AEcurs;
}
);
width = 991;
}
);
metricLeft = A.cv04;
metricRight = C.long;
},
{
color = 6;
glyphname = B;
kernLeft = H;
kernRight = B;
lastChange = "2025-10-02 11:49:48 +0000";
layers = (
{
anchors = (
{
name = bottom;
pos = (285,0);
},
{
name = center;
pos = (285,361);
},
{
name = top;
pos = (285,722);
}
);
layerId = "6DBDBFCA-DF26-4695-B281-FA25C6EAD80F";
shapes = (
{
closed = 1;
nodes = (
(332,0,ls),
(491,0,o),
(579,72,o),
(579,202,cs),
(579,297,o),
(517,368,o),
(414,391,c),
(420,365,l),
(495,401,o),
(533,459,o),
(533,534,cs),
(533,652,o),
(451,722,o),
(312,722,cs),
(100,722,l),
(100,0,l)
);
},
{
closed = 1;
nodes = (
(190,323,l),
(345,323,ls),
(437,323,o),
(488,281,o),
(488,203,cs),
(488,122,o),
(442,86,o),
(343,86,cs),
(190,86,l)
);
},
{
closed = 1;
nodes = (
(190,636,l),
(305,636,ls),
(396,636,o),
(442,597,o),
(442,521,cs),
(442,447,o),
(394,405,o),
(310,405,cs),
(190,405,l)
);
}
);
width = 629;
}
);
metricLeft = P;
unicode = 66;
},
{
color = 3;
glyphname = B.cv04;
kernLeft = B.alt;
kernRight = B;
lastChange = "2025-10-02 11:49:49 +0000";
layers = (
{
color = 5;
layerId = "6DBDBFCA-DF26-4695-B281-FA25C6EAD80F";
name = Regular;
shapes = (
{
closed = 1;
nodes = (
(661,-12,o),
(749,65,o),
(749,191,cs),
(749,296,o),
(681,369,o),
(568,385,c),
(558,351,l),
(653,381,o),
(697,450,o),
(697,531,cs),
(697,664,o),
(592,729,o),
(417,729,cs),
(322,729,l),
(284,701,o),
(272,673,o),
(276,643,c),
(415,643,ls),
(531,643,o),
(601,611,o),
(601,525,cs),
(601,450,o),
(536,402,o),
(453,402,cs),
(421,402,l),
(407,374,o),
(407,345,o),
(421,315,c),
(473,315,ls),
(592,315,o),
(654,272,o),
(654,197,cs),
(654,121,o),
(603,76,o),
(512,76,cs),
(476,76,o),
(436,82,o),
(409,92,c),
(387,76,o),
(377,43,o),
(383,8,c),
(417,-5,o),
(463,-12,o),
(510,-12,cs)
);
},
{
pos = (96,0);
ref = _part.caps.stem;
},
{
pos = (6,7);
ref = _part.caps.entryloop;
}
);
width = 799;
}
);
},
{
color = 6;
glyphname = C;
kernLeft = O;
kernRight = C;
lastChange = "2025-10-02 11:49:48 +0000";
layers = (
{
anchors = (
{
name = bottom;
pos = (378,0);
},
{
name = top;
pos = (372,722);
}
);
layerId = "6DBDBFCA-DF26-4695-B281-FA25C6EAD80F";
shapes = (
{
closed = 1;
nodes = (
(501,-14,o),
(600,34,o),
(662,125,c),
(651,146,o),
(620,171,o),
(595,179,c),
(542,113,o),
(479,76,o),
(390,76,cs),
(236,76,o),
(151,186,o),
(151,352,cs),
(151,528,o),
(247,646,o),
(390,646,cs),
(461,646,o),
(523,617,o),
(571,555,c),
(598,563,o),
(630,593,o),
(637,617,c),
(584,692,o),
(494,736,o),
(390,736,cs),
(193,736,o),
(55,578,o),
(55,347,cs),
(55,129,o),
(178,-14,o),
(382,-14,cs)
);
}
);
width = 699;
}
);
metricLeft = O;
unicode = 67;
},
{
color = 6;
glyphname = C.cv04;
kernLeft = O;
kernRight = C.alt;
lastChange = "2025-10-02 11:49:48 +0000";
layers = (
{
anchors = (
{
name = bottom;
pos = (363,0);
},
{
name = top;
pos = (387,722);
}
);
color = 5;
layerId = "6DBDBFCA-DF26-4695-B281-FA25C6EAD80F";
shapes = (
{
closed = 1;
nodes = (
(486,-14,o),
(582,38,o),
(641,141,c),
(631,164,o),
(601,188,o),
(572,193,c),
(520,121,o),
(461,76,o),
(372,76,cs),
(239,76,o),
(166,176,o),
(166,350,cs),
(166,526,o),
(241,646,o),
(354,646,cs),
(423,646,o),
(476,602,o),
(488,498,c),
(524,495,o),
(556,498,o),
(582,508,c),
(572,638,o),
(497,736,o),
(355,736,cs),
(176,736,o),
(70,580,o),
(70,347,cs),
(70,119,o),
(172,-14,o),
(365,-14,cs)
);
}
);
width = 671;
}
);
metricLeft = G.cv04;
},
{
color = 6;
glyphname = C.long;
kernLeft = O;
kernRight = C.long;
lastChange = "2025-10-02 11:49:48 +0000";
layers = (
{
anchors = (
{
name = bottom;
pos = (351,0);
},
{
name = top;
pos = (345,722);
}
);
color = 5;
layerId = "6DBDBFCA-DF26-4695-B281-FA25C6EAD80F";
shapes = (
{
closed = 1;
nodes = (
(555,-14,o),
(665,116,o),
(762,264,c),
(747,296,o),
(720,310,o),
(689,314,c),
(604,187,o),
(517,76,o),
(360,76,cs),
(226,76,o),
(151,177,o),
(151,352,cs),
(151,526,o),
(226,646,o),
(339,646,cs),
(408,646,o),
(461,602,o),
(473,498,c),
(509,495,o),
(541,498,o),
(567,508,c),
(557,638,o),
(482,736,o),
(340,736,cs),
(161,736,o),
(55,579,o),
(55,351,cs),
(55,119,o),
(166,-14,o),
(357,-14,cs)
);
}
);
width = 674;
}
);
metricLeft = O;
metricRight = "=-88";
},
{
color = 6;
glyphname = D;
kernLeft = H;
kernRight = O;
lastChange = "2025-10-02 11:49:48 +0000";
layers = (
{
anchors = (
{
name = bottom;
pos = (330,0);
},
{
name = center;
pos = (330,361);
},
{
name = top;
pos = (330,722);
}
);
layerId = "6DBDBFCA-DF26-4695-B281-FA25C6EAD80F";
shapes = (
{
closed = 1;
nodes = (
(268,0,ls),
(517,0,o),
(662,133,o),
(662,365,cs),
(662,592,o),
(516,722,o),
(275,722,cs),
(101,722,l),
(101,4,l),
(100,0,l)
);
},
{
closed = 1;
nodes = (
(194,636,l),
(274,636,ls),
(464,636,o),
(566,544,o),
(566,365,cs),
(566,185,o),
(464,86,o),
(282,86,cs),
(194,86,l)
);
}
);
width = 717;
}
);
metricLeft = P;
metricRight = O;
unicode = 68;
},
{
color = 6;
glyphname = D.cv04;
kernLeft = D.alt;
kernRight = O;
lastChange = "2025-10-02 11:49:48 +0000";
layers = (
{
color = 5;
layerId = "6DBDBFCA-DF26-4695-B281-FA25C6EAD80F";
name = Regular;
shapes = (
{
closed = 1;
nodes = (
(396,647,ls),
(607,647,o),
(704,554,o),
(704,365,cs),
(704,181,o),
(611,87,o),
(431,87,cs),
(393,87,o),
(367,90,o),
(306,102,cs),
(268,109,o),
(247,112,o),
(228,112,cs),
(197,112,o),
(159,102,o),
(146,91,c),
(141,58,o),
(155,6,o),
(174,-10,c),
(294,-10,o),
(357,68,o),
(357,215,cs),
(357,679,l),
(264,668,l),
(264,236,ls),
(264,146,o),
(259,120,o),
(232,67,c),
(228,20,l),
(252,20,o),
(271,18,o),
(313,10,cs),
(353,2,o),
(409,-4,o),
(445,-4,cs),
(665,-4,o),
(800,135,o),
(800,364,cs),
(800,604,o),
(654,734,o),
(402,734,cs),
(386,734,ls),
(163,734,o),
(50,651,o),
(50,505,cs),
(50,497,o),
(50,492,o),
(51,488,c),
(77,474,o),
(108,475,o),
(143,489,c),
(142,494,o),
(142,500,o),
(142,509,cs),
(142,601,o),
(204,647,o),
(383,647,cs)
);
}
);
width = 870;
}
);
metricLeft = B.cv04;
},
{
color = 3;
glyphname = Dcroat;
kernLeft = H;
kernRight = O;
lastChange = "2025-10-02 11:49:49 +0000";
layers = (
{
layerId = "6DBDBFCA-DF26-4695-B281-FA25C6EAD80F";
shapes = (
{
closed = 1;
nodes = (
(356,320,l),
(367,345,o),
(367,385,o),
(356,408,c),
(17,408,l),
(6,385,o),
(6,345,o),
(17,320,c)
);
},
{
ref = D;
}
);
width = 717;
}
);
metricRight = O;
unicode = 272;
},
{
color = 3;
glyphname = Dcroat.cv04;
kernLeft = D.alt;
kernRight = O;
lastChange = "2025-10-02 11:49:49 +0000";
layers = (
{
color = 5;
layerId = "6DBDBFCA-DF26-4695-B281-FA25C6EAD80F";
shapes = (
{
closed = 1;
nodes = (
(496,320,l),
(507,345,o),
(507,385,o),
(496,408,c),
(157,408,l),
(146,385,o),
(146,345,o),
(157,320,c)
);
},
{
ref = D.cv04;
}
);
width = 870;
}
);
metricLeft = D.cv04;
metricRight = D.cv04;
},
{
color = 6;
glyphname = E;
kernLeft = H;
kernRight = E;
lastChange = "2025-10-02 11:49:48 +0000";
layers = (
{
anchors = (
{
name = bottom;
pos = (318,0);
},
{
name = top;
pos = (318,722);
}
);
layerId = "6DBDBFCA-DF26-4695-B281-FA25C6EAD80F";
shapes = (
{
closed = 1;
nodes = (
(527,0,l),
(535,26,o),
(535,64,o),
(527,87,c),
(193,87,l),
(193,320,l),
(498,320,l),
(505,348,o),
(506,384,o),
(498,407,c),
(193,407,l),
(193,635,l),
(520,635,l),
(527,660,o),
(529,697,o),
(520,722,c),
(100,722,l),
(100,0,l)
);
}
);
width = 598;
}
);
metricLeft = H;
unicode = 69;
},
{
color = 6;
glyphname = E.cv04;
kernLeft = E.alt;
kernRight = E.alt;
lastChange = "2025-10-02 11:49:48 +0000";
layers = (
{
anchors = (
{
name = bottom;
pos = (307,0);
},
{
name = top;
pos = (297,722);
}
);
color = 5;
layerId = "6DBDBFCA-DF26-4695-B281-FA25C6EAD80F";
name = Regular;
shapes = (
{
closed = 1;
nodes = (
(417,-12,o),
(517,41,o),
(581,141,c),
(577,168,o),
(541,197,o),
(514,196,c),
(455,117,o),
(381,78,o),
(305,78,cs),
(218,78,o),
(166,124,o),
(166,199,cs),
(166,282,o),
(219,320,o),
(319,320,cs),
(379,320,l),
(388,340,o),
(386,389,o),
(377,407,c),
(316,407,ls),
(224,407,o),
(175,460,o),
(175,535,cs),
(175,598,o),
(221,646,o),
(297,646,cs),
(366,646,o),
(412,604,o),
(412,539,c),
(445,534,o),
(484,538,o),
(506,550,c),
(506,658,o),
(420,736,o),
(300,736,cs),
(169,736,o),
(79,648,o),
(79,529,cs),
(79,443,o),
(130,370,o),
(207,346,c),
(205,373,l),
(118,346,o),
(70,275,o),
(70,192,cs),
(70,69,o),
(161,-12,o),
(298,-12,cs)
);
}
);
width = 601;
}
);
},
{
color = 6;
glyphname = E.long;
kernLeft = E.alt;
kernRight = C.long;
lastChange = "2025-10-02 11:49:48 +0000";
layers = (
{
anchors = (
{
name = bottom;
pos = (307,0);
},
{
name = top;
pos = (297,722);
}
);
color = 5;
layerId = "6DBDBFCA-DF26-4695-B281-FA25C6EAD80F";
shapes = (
{
closed = 1;
nodes = (
(498,-14,o),
(615,125,o),
(705,264,c),
(690,296,o),
(663,310,o),
(632,314,c),
(553,195,o),
(460,76,o),
(309,76,cs),
(217,76,o),
(166,120,o),
(166,200,cs),
(166,282,o),
(219,320,o),
(319,320,cs),
(379,320,l),
(388,340,o),
(386,389,o),
(377,407,c),
(316,407,ls),
(226,407,o),
(175,460,o),
(175,531,cs),
(175,599,o),
(221,646,o),
(296,646,cs),
(366,646,o),
(412,604,o),
(412,539,c),
(445,534,o),
(484,538,o),
(506,550,c),
(506,658,o),
(420,736,o),
(299,736,cs),
(170,736,o),
(79,648,o),
(79,530,cs),
(79,446,o),
(125,376,o),
(198,348,c),
(201,371,l),
(114,344,o),
(70,273,o),
(70,189,cs),
(70,68,o),
(160,-14,o),
(307,-14,cs)
);
}
);
width = 617;
}
);
metricLeft = E.cv04;
metricRight = C.long;
},
{
color = 6;
glyphname = F;
kernLeft = H;
kernRight = F;
lastChange = "2025-10-02 11:49:48 +0000";
layers = (
{
anchors = (
{
name = bottom;
pos = (312,0);
},
{
name = top;
pos = (312,722);
}
);
layerId = "6DBDBFCA-DF26-4695-B281-FA25C6EAD80F";
shapes = (
{
closed = 1;
nodes = (
(162,-4,o),
(178,-3,o),
(193,0,c),
(193,324,l),
(489,324,l),
(496,350,o),
(496,384,o),
(489,411,c),
(193,411,l),
(193,635,l),
(521,635,l),
(529,660,o),
(529,698,o),
(521,722,c),
(100,722,l),
(100,0,l),
(116,-3,o),
(131,-4,o),
(146,-4,cs)
);
}
);
width = 582;
}
);
metricLeft = H;
metricRight = "=E-10";
unicode = 70;
},
{
color = 3;
glyphname = F.cv04;
kernLeft = B.alt;
kernRight = F.alt;
lastChange = "2025-10-02 11:49:49 +0000";
layers = (
{
color = 5;
layerId = "6DBDBFCA-DF26-4695-B281-FA25C6EAD80F";
name = Regular;
shapes = (
{
closed = 1;
nodes = (
(144,609,o),
(177,635,o),
(224,635,cs),
(660,635,l),
(672,664,o),
(673,693,o),
(660,722,c),
(208,722,ls),
(132,722,o),
(67,666,o),
(50,570,c),
(64,551,o),
(107,541,o),
(132,550,c)
);
},
{
pos = (94,0);
ref = _part.caps.stem;
},
{
closed = 1;
nodes = (
(580,341,l),
(592,370,o),
(593,399,o),
(580,428,c),
(290,428,l),
(290,341,l)
);
}
);
width = 709;
}
);
metricLeft = B.cv04;
},
{
color = 6;
glyphname = G;
kernLeft = O;
kernRight = O;
lastChange = "2025-10-02 11:49:48 +0000";
layers = (
{
anchors = (
{
name = bottom;
pos = (372,0);
},
{
name = top;
pos = (372,722);
}
);
layerId = "6DBDBFCA-DF26-4695-B281-FA25C6EAD80F";
shapes = (
{
closed = 1;
nodes = (
(565,-14,o),
(683,107,o),
(683,293,cs),
(683,332,o),
(678,382,o),
(673,393,c),
(357,393,l),
(346,372,o),
(346,325,o),
(357,307,c),
(630,307,l),
(584,334,l),
(589,322,o),
(591,305,o),
(591,284,cs),
(591,158,o),
(508,75,o),
(384,75,cs),
(240,75,o),
(150,187,o),
(150,364,cs),
(150,542,o),
(240,647,o),
(396,647,cs),
(466,647,o),
(524,626,o),
(578,581,c),
(605,602,o),
(622,627,o),
(628,653,c),
(576,706,o),
(490,736,o),
(395,736,cs),
(187,736,o),
(55,590,o),
(55,361,cs),
(55,133,o),
(185,-14,o),
(386,-14,cs)
);
}
);
width = 743;
}
);
metricLeft = O;
metricRight = "=O+5";
unicode = 71;
},
{
color = 6;
glyphname = G.cv04;
kernLeft = O;
kernRight = no_kerning;
lastChange = "2025-10-02 11:49:48 +0000";
layers = (
{
anchors = (
{
name = "#fina";
pos = (605,16);
},
{
name = top;
pos = (400,722);
}
);
color = 5;
layerId = "6DBDBFCA-DF26-4695-B281-FA25C6EAD80F";
shapes = (
{
closed = 1;
nodes = (
(581,15,l),
(397,-96,o),
(308,-212,o),
(308,-337,cs),
(308,-443,o),
(373,-514,o),
(482,-514,cs),
(601,-514,o),
(655,-432,o),
(655,-274,cs),
(655,377,l),
(624,385,o),
(594,385,o),
(562,377,c),
(562,273,ls),
(562,153,o),
(476,77,o),
(369,77,cs),
(231,77,o),
(165,203,o),
(165,359,cs),
(165,555,o),
(268,646,o),
(390,646,cs),
(477,646,o),
(538,599,o),
(561,537,c),
(595,541,o),
(626,555,o),
(643,575,c),
(606,677,o),
(516,736,o),
(392,736,cs),
(186,736,o),
(70,569,o),
(70,353,cs),
(70,153,o),
(170,-14,o),
(369,-14,cs),
(458,-14,o),
(541,19,o),
(594,96,c),
(562,96,l),
(562,-274,ls),
(562,-374,o),
(537,-425,o),
(478,-425,cs),
(431,-425,o),
(403,-391,o),
(403,-334,cs),
(403,-255,o),
(463,-173,o),
(580,-95,c)
);
}
);
width = 785;
}
);
metricLeft = C.cv04;
},
{
color = 6;
glyphname = H;
kernLeft = H;
kernRight = H;
lastChange = "2025-10-02 11:49:48 +0000";
layers = (
{
anchors = (
{
name = bottom;
pos = (363,0);
},
{
name = center;
pos = (363,361);
},
{
name = top;
pos = (363,722);
}
);
layerId = "6DBDBFCA-DF26-4695-B281-FA25C6EAD80F";
shapes = (
{
closed = 1;
nodes = (
(162,-7,o),
(176,-5,o),
(193,0,c),
(193,325,l),
(532,325,l),
(532,0,l),
(549,-5,o),
(564,-7,o),
(579,-7,cs),
(595,-7,o),
(610,-5,o),
(625,0,c),
(625,722,l),
(608,727,o),
(594,729,o),
(579,729,cs),
(563,729,o),
(547,727,o),
(532,722,c),
(532,412,l),
(193,412,l),
(193,722,l),
(178,727,o),
(163,729,o),
(146,729,cs),
(131,729,o),
(117,727,o),
(100,722,c),
(100,0,l),
(115,-5,o),
(130,-7,o),
(146,-7,cs)
);
}
);
width = 725;
}
);
unicode = 72;
},
{
color = 3;
glyphname = H.cv04;
kernLeft = B.alt;
kernRight = no_kerning;
lastChange = "2025-10-02 11:49:49 +0000";
layers = (
{
color = 5;
layerId = "6DBDBFCA-DF26-4695-B281-FA25C6EAD80F";
shapes = (
{
alignment = -1;
pos = (30,0);
ref = _part.H;
},
{
closed = 1;
nodes = (
(797,-14,o),
(809,0,o),
(809,28,cs),
(809,56,o),
(797,72,o),
(777,72,cs),
(728,72,o),
(696,96,o),
(680,143,cs),
(671,169,o),
(667,205,o),
(667,260,c),
(637,273,o),
(606,273,o),
(574,260,c),
(574,192,o),
(581,135,o),
(600,91,cs),
(629,24,o),
(685,-14,o),
(770,-14,cs)
);
},
{
pos = (3,0);
ref = _part.caps.entry;
}
);
width = 778;
}
);
metricLeft = H.isol.cv04;
},
{
color = 3;
glyphname = H.isol.cv04;
kernLeft = H.alt;
kernRight = H.alt;
lastChange = "2025-10-02 11:49:49 +0000";
layers = (
{
color = 5;
layerId = "6DBDBFCA-DF26-4695-B281-FA25C6EAD80F";
shapes = (
{
closed = 1;
nodes = (
(667,157,l),
(667,265,l),
(574,265,l),
(574,150,l)
);
},
{
pos = (476,-7);
ref = _part.caps.termin;
},
{
alignment = -1;
pos = (3,0);
ref = _part.caps.entry;
},
{
alignment = -1;
pos = (30,0);
ref = _part.H;
}
);
width = 918;
}
);
},
{
color = 6;
glyphname = I;
kernLeft = I;
kernRight = I;
lastChange = "2025-10-02 11:49:48 +0000";
layers = (
{
anchors = (
{
name = bottom;
pos = (252,0);
},
{
name = top;
pos = (252,722);
}
);
layerId = "6DBDBFCA-DF26-4695-B281-FA25C6EAD80F";
shapes = (
{
closed = 1;
nodes = (
(432,0,l),
(441,22,o),
(441,62,o),
(432,84,c),
(299,84,l),
(299,638,l),
(432,638,l),
(441,661,o),
(441,700,o),
(432,722,c),
(72,722,l),
(63,700,o),
(63,661,o),
(72,638,c),
(206,638,l),
(206,84,l),
(72,84,l),
(63,62,o),
(63,22,o),
(72,0,c)
);
}
);
width = 504;
}
);
unicode = 73;
},
{
color = 3;
glyphname = I.cv04;
kernLeft = I.alt;
kernRight = I.alt;
lastChange = "2025-10-02 11:49:49 +0000";
layers = (
{
color = 5;
layerId = "6DBDBFCA-DF26-4695-B281-FA25C6EAD80F";
name = Regular;
shapes = (
{
closed = 1;
nodes = (
(339,545,l),
(339,180,ls),
(339,116,o),
(299,73,o),
(239,73,cs),
(190,73,o),
(147,101,o),
(130,147,c),
(94,145,o),
(67,130,o),
(50,105,c),
(83,28,o),
(143,-12,o),
(235,-12,cs),
(359,-12,o),
(432,60,o),
(432,183,cs),
(432,545,l)
);
},
{
pos = (26,0);
ref = _part.caps.I;
}
);
width = 522;
}
);
},
{
color = 6;
glyphname = J;
kernLeft = J;
kernRight = J;
lastChange = "2025-10-02 11:49:48 +0000";
layers = (
{
anchors = (
{
name = bottom;
pos = (352,0);
},
{
name = top;
pos = (442,722);
}
);
layerId = "6DBDBFCA-DF26-4695-B281-FA25C6EAD80F";
shapes = (
{
closed = 1;
nodes = (
(407,-14,o),
(486,79,o),
(486,233,cs),
(486,641,l),
(667,641,l),
(674,672,o),
(675,691,o),
(667,722,c),
(182,722,l),
(172,691,o),
(174,672,o),
(182,641,c),
(392,641,l),
(392,233,ls),
(392,133,o),
(354,75,o),
(268,75,cs),
(177,75,o),
(145,140,o),
(130,243,c),
(100,247,o),
(61,240,o),
(40,225,c),
(54,82,o),
(118,-14,o),
(266,-14,cs)
);
}
);
width = 703;
}
);
unicode = 74;
},
{
color = 6;
glyphname = J.calt;
kernLeft = J;
kernRight = U;
lastChange = "2025-10-02 11:49:48 +0000";
layers = (
{
anchors = (
{
name = bottom;
pos = (288,0);
},
{
name = top;
pos = (337,722);
}
);
layerId = "6DBDBFCA-DF26-4695-B281-FA25C6EAD80F";
shapes = (
{
closed = 1;
nodes = (
(407,-14,o),
(486,79,o),
(486,233,cs),
(486,722,l),
(182,722,l),
(172,690,o),
(174,671,o),
(182,638,c),
(392,638,l),
(392,233,ls),
(392,133,o),
(354,75,o),
(268,75,cs),
(177,75,o),
(145,140,o),
(130,243,c),
(100,247,o),
(71,240,o),
(40,225,c),
(54,82,o),
(118,-14,o),
(266,-14,cs)
);
}
);
width = 576;
}
);
metricLeft = J;
metricRight = U;
},
{
color = 3;
glyphname = J.cv04;
kernLeft = J.alt;
kernRight = no_kerning;
lastChange = "2025-10-02 11:49:49 +0000";
layers = (
{
anchors = (
{
name = "#fina";
pos = (374,14);
}
);
color = 5;
layerId = "6DBDBFCA-DF26-4695-B281-FA25C6EAD80F";
name = Regular;
shapes = (
{
closed = 1;
nodes = (
(329,533,l),
(329,-274,ls),
(329,-377,o),
(302,-425,o),
(245,-425,cs),
(198,-425,o),
(170,-391,o),
(170,-335,cs),
(170,-253,o),
(229,-172,o),
(347,-91,c),
(348,15,l),
(165,-94,o),
(75,-211,o),
(75,-338,cs),
(75,-447,o),
(140,-514,o),
(246,-514,cs),
(363,-514,o),
(422,-433,o),
(422,-274,cs),
(422,533,l)
);
},
{
pos = (16,0);
ref = _part.caps.I;
}
);
width = 552;
}
);
metricLeft = J.isol.cv04;
metricRight = G.cv04;
},
{
color = 6;
glyphname = K;
kernLeft = H;
kernRight = K;
lastChange = "2025-10-02 11:49:48 +0000";
layers = (
{
anchors = (
{
name = bottom;
pos = (343,0);
},
{
name = top;
pos = (343,722);
}
);
layerId = "6DBDBFCA-DF26-4695-B281-FA25C6EAD80F";
shapes = (
{
closed = 1;
nodes = (
(602,676,l),
(593,706,o),
(564,729,o),
(533,735,c),
(164,300,l),
(167,169,l)
);
},
{
closed = 1;
nodes = (
(163,-7,o),
(178,-5,o),
(193,0,c),
(193,722,l),
(176,727,o),
(162,729,o),
(146,729,cs),
(130,729,o),
(115,727,o),
(100,722,c),
(100,0,l),
(117,-5,o),
(131,-7,o),
(146,-7,cs)
);
},
{
closed = 1;
nodes = (
(627,-10,o),
(660,18,o),
(665,46,c),
(369,414,l),
(301,355,l),
(594,-14,l)
);
}
);
width = 685;
}
);
metricLeft = H;
unicode = 75;
},
{
color = 3;
glyphname = K.cv04;
kernLeft = K.alt;
kernRight = no_kerning;
lastChange = "2025-10-02 11:49:49 +0000";
layers = (
{
color = 5;
layerId = "6DBDBFCA-DF26-4695-B281-FA25C6EAD80F";
name = Regular;
shapes = (
{
pos = (18,0);
ref = _part.caps.entry;
},
{
pos = (136,0);
ref = _part.caps.stem;
},
{
closed = 1;
nodes = (
(384,383,o),
(379,343,o),
(395,313,c),
(499,313,o),
(559,290,o),
(587,193,cs),
(613,104,ls),
(636,25,o),
(694,-14,o),
(762,-14,cs),
(778,-14,o),
(788,6,o),
(788,32,cs),
(788,57,o),
(781,72,o),
(769,72,cs),
(733,72,o),
(714,92,o),
(702,131,cs),
(672,231,ls),
(646,317,o),
(618,357,o),
(528,377,c),
(536,356,l),
(603,378,o),
(633,418,o),
(640,496,cs),
(648,591,ls),
(651,628,o),
(666,647,o),
(691,647,cs),
(714,647,o),
(727,627,o),
(731,589,c),
(761,582,o),
(806,589,o),
(818,602,c),
(809,688,o),
(763,736,o),
(689,736,cs),
(610,736,o),
(563,684,o),
(555,590,cs),
(548,513,ls),
(541,426,o),
(496,402,o),
(395,402,c)
);
}
);
width = 770;
}
);
metricLeft = I.cv04;
metricRight = "=-48";
},
{
color = 3;
glyphname = K.isol.cv04;
kernLeft = K.alt;
kernRight = K.alt;
lastChange = "2025-10-02 11:49:49 +0000";
layers = (
{
color = 5;
layerId = "6DBDBFCA-DF26-4695-B281-FA25C6EAD80F";
name = Regular;
shapes = (
{
pos = (8,0);
ref = _part.caps.entry;
},
{
pos = (126,0);
ref = _part.caps.stem;
},
{
closed = 1;
nodes = (
(374,383,o),
(369,343,o),
(385,313,c),
(489,313,o),
(549,290,o),
(577,193,cs),
(603,104,ls),
(626,25,o),
(679,-14,o),
(744,-14,cs),
(792,-14,o),
(836,8,o),
(882,62,c),
(883,90,o),
(857,119,o),
(827,125,c),
(791,87,o),
(772,75,o),
(748,75,cs),
(718,75,o),
(703,94,o),
(692,131,cs),
(662,231,ls),
(636,317,o),
(608,357,o),
(518,377,c),
(526,356,l),
(593,378,o),
(613,419,o),
(628,473,cs),
(661,591,ls),
(672,630,o),
(681,647,o),
(704,647,cs),
(724,647,o),
(737,632,o),
(741,589,c),
(779,580,o),
(819,592,o),
(828,602,c),
(815,716,o),
(756,736,o),
(708,736,cs),
(643,736,o),
(597,700,o),
(565,590,cs),
(537,494,ls),
(518,430,o),
(489,402,o),
(385,402,c)
);
}
);
width = 912;
}
);
metricLeft = "=B.cv04-10";
},
{
color = 6;
glyphname = L;
kernLeft = H;
kernRight = L;
lastChange = "2025-10-02 11:49:48 +0000";
layers = (
{
anchors = (
{
name = bottom;
pos = (327,0);
},
{
name = center;
pos = (327,361);
},
{
name = top;
pos = (147,722);
}
);
layerId = "6DBDBFCA-DF26-4695-B281-FA25C6EAD80F";
shapes = (
{
closed = 1;
nodes = (
(546,0,l),
(557,21,o),
(555,71,o),
(546,87,c),
(193,87,l),
(193,722,l),
(178,727,o),
(163,729,o),
(146,729,cs),
(131,729,o),
(117,727,o),
(100,722,c),
(100,0,l)
);
}
);
width = 594;
}
);
metricLeft = H;
unicode = 76;
},
{
color = 3;
glyphname = L.cv04;
kernLeft = L.alt;
kernRight = no_kerning;
lastChange = "2025-10-02 11:49:49 +0000";
layers = (
{
color = 5;
layerId = "6DBDBFCA-DF26-4695-B281-FA25C6EAD80F";
shapes = (
{
pos = (6,0);
ref = _part.caps.L;
},
{
closed = 1;
nodes = (
(40,35,o),
(64,-11,o),
(121,-11,cs),
(172,-11,o),
(209,18,o),
(228,67,c),
(144,48,l),
(211,45,o),
(221,40,o),
(258,25,cs),
(344,-10,o),
(403,-14,o),
(435,-14,cs),
(459,-14,o),
(469,-1,o),
(469,30,cs),
(469,58,o),
(458,71,o),
(441,71,cs),
(388,71,o),
(338,88,o),
(255,116,cs),
(197,136,o),
(163,144,o),
(121,144,cs),
(95,144,o),
(64,139,o),
(47,133,c),
(42,117,o),
(40,101,o),
(40,85,cs)
);
}
);
width = 542;
}
);
},
{
color = 3;
glyphname = L.isol.cv04;
kernLeft = L.alt;
kernRight = L.alt;
lastChange = "2025-10-02 11:49:49 +0000";
layers = (
{
color = 5;
layerId = "6DBDBFCA-DF26-4695-B281-FA25C6EAD80F";
shapes = (
{
closed = 1;
nodes = (
(491,-14,o),
(563,13,o),
(612,61,c),
(606,91,o),
(589,114,o),
(562,127,c),
(518,89,o),
(478,73,o),
(426,73,cs),
(385,73,o),
(351,81,o),
(283,107,cs),
(212,134,o),
(169,144,o),
(124,144,cs),
(97,144,o),
(66,140,o),
(47,133,c),
(42,118,o),
(40,102,o),
(40,86,cs),
(40,25,o),
(71,-11,o),
(124,-11,cs),
(195,-11,o),
(241,53,o),
(241,150,c),
(207,154,o),
(175,148,o),
(148,133,c),
(148,91,o),
(143,46,o),
(134,0,c),
(131,45,l),
(178,45,o),
(210,36,o),
(267,16,cs),
(330,-6,o),
(370,-14,o),
(413,-14,cs)
);
},
{
pos = (6,0);
ref = _part.caps.L;
}
);
width = 652;
}
);
},
{
color = 6;
glyphname = M;
kernLeft = H;
kernRight = H;
lastChange = "2025-10-02 11:49:48 +0000";
layers = (
{
anchors = (
{
name = bottom;
pos = (436,0);
},
{
name = top;
pos = (436,722);
}
);
layerId = "6DBDBFCA-DF26-4695-B281-FA25C6EAD80F";
shapes = (
{
closed = 1;
nodes = (
(162,-7,o),
(176,-5,o),
(193,0,c),
(193,574,l),
(170,569,l),
(395,123,l),
(419,114,o),
(455,113,o),
(478,123,c),
(702,568,l),
(679,573,l),
(679,0,l),
(694,-5,o),
(709,-7,o),
(725,-7,cs),
(741,-7,o),
(755,-5,o),
(772,0,c),
(772,722,l),
(757,728,o),
(738,729,o),
(724,729,cs),
(713,729,o),
(698,728,o),
(681,722,c),
(415,194,l),
(458,194,l),
(192,722,l),
(176,728,o),
(159,729,o),
(144,729,cs),
(133,729,o),
(116,728,o),
(100,722,c),
(100,0,l),
(115,-5,o),
(130,-7,o),
(146,-7,cs)
);
}
);
width = 872;
}
);
metricLeft = H;
metricRight = H;
unicode = 77;
},
{
color = 6;
glyphname = M.cv04;
kernLeft = A.alt;
kernRight = no_kerning;
lastChange = "2025-10-02 11:49:48 +0000";
layers = (
{
color = 5;
guides = (
{
pos = (509,530);
}
);
layerId = "6DBDBFCA-DF26-4695-B281-FA25C6EAD80F";
shapes = (
{
closed = 1;
nodes = (
(1039,-14,o),
(1049,10,o),
(1049,33,cs),
(1049,53,o),
(1041,72,o),
(1026,72,cs),
(980,72,o),
(966,113,o),
(932,244,cs),
(898,375,o),
(856,586,o),
(834,721,c),
(794,738,o),
(737,737,o),
(705,722,c),
(667,532,o),
(620,312,o),
(574,137,c),
(593,137,l),
(548,312,o),
(505,532,o),
(462,722,c),
(425,737,o),
(373,736,o),
(334,722,c),
(308,580,o),
(266,334,o),
(216,187,cs),
(189,108,o),
(169,83,o),
(128,83,cs),
(106,83,o),
(83,90,o),
(44,107,c),
(22,92,o),
(10,62,o),
(11,25,c),
(49,5,o),
(93,-6,o),
(134,-6,cs),
(215,-6,o),
(263,38,o),
(301,147,cs),
(339,256,o),
(378,468,o),
(410,650,c),
(390,653,l),
(425,444,o),
(494,143,o),
(532,0,c),
(565,-11,o),
(599,-12,o),
(634,0,c),
(674,146,o),
(748,462,o),
(779,653,c),
(757,650,l),
(776,536,o),
(820,302,o),
(852,184,cs),
(884,65,o),
(914,-14,o),
(1019,-14,cs)
);
}
);
width = 1027;
}
);
metricRight = "=-22";
},
{
color = 3;
glyphname = M.cv05;
kernLeft = U.alt;
kernRight = no_kerning;
lastChange = "2025-10-02 11:49:49 +0000";
layers = (
{
anchors = (
{
name = bottom;
pos = (527,0);
},
{
name = top;
pos = (551,722);
}
);
color = 7;
layerId = "6DBDBFCA-DF26-4695-B281-FA25C6EAD80F";
shapes = (
{
closed = 1;
nodes = (
(1294,-14,o),
(1306,0,o),
(1306,28,cs),
(1306,56,o),
(1294,72,o),
(1273,72,cs),
(1227,72,o),
(1204,95,o),
(1204,150,cs),
(1204,475,ls),
(1204,642,o),
(1129,736,o),
(991,736,cs),
(887,736,o),
(786,682,o),
(732,596,c),
(756,589,l),
(730,681,o),
(659,736,o),
(556,736,cs),
(455,736,o),
(367,684,o),
(315,593,c),
(242,531,l),
(243,0,l),
(276,-9,o),
(306,-9,o),
(336,0,c),
(336,394,ls),
(336,544,o),
(419,646,o),
(541,646,cs),
(633,646,o),
(677,588,o),
(677,468,cs),
(677,0,l),
(710,-9,o),
(740,-9,o),
(770,0,c),
(770,394,ls),
(770,544,o),
(853,646,o),
(975,646,cs),
(1067,646,o),
(1111,588,o),
(1111,468,cs),
(1111,150,ls),
(1111,41,o),
(1170,-14,o),
(1266,-14,cs)
);
},
{
pos = (12,0);
ref = _part.caps.U.entry;
}
);
width = 1275;
}
);
metricLeft = N.cv05;
metricRight = U.cv04;
},
{
color = 3;
glyphname = M.isol.cv05;
kernLeft = U.alt;
kernRight = U.alt;
lastChange = "2025-10-02 11:49:49 +0000";
layers = (
{
anchors = (
{
name = bottom;
pos = (527,0);
},
{
name = top;
pos = (551,722);
}
);
color = 7;
layerId = "6DBDBFCA-DF26-4695-B281-FA25C6EAD80F";
shapes = (
{
closed = 1;
nodes = (
(1204,164,l),
(1204,475,ls),
(1204,642,o),
(1129,736,o),
(980,736,cs),
(873,736,o),
(786,682,o),
(736,584,c),
(756,589,l),
(730,681,o),
(659,736,o),
(556,736,cs),
(445,736,o),
(365,684,o),
(315,593,c),
(242,531,l),
(243,0,l),
(276,-9,o),
(306,-9,o),
(336,0,c),
(336,394,ls),
(336,544,o),
(419,646,o),
(541,646,cs),
(633,646,o),
(677,588,o),
(677,468,cs),
(677,0,l),
(710,-9,o),
(740,-9,o),
(770,0,c),
(770,394,ls),
(770,544,o),
(853,646,o),
(975,646,cs),
(1067,646,o),
(1111,588,o),
(1111,468,cs),
(1111,157,l)
);
},
{
pos = (12,0);
ref = _part.caps.U.entry;
},
{
pos = (1013,0);
ref = _part.caps.termin;
}
);
width = 1415;
}
);
metricLeft = N.cv05;
metricRight = N.isol.cv05;
},
{
color = 6;
glyphname = N;
kernLeft = H;
kernRight = H;
lastChange = "2025-10-02 11:49:48 +0000";
layers = (
{
anchors = (
{
name = bottom;
pos = (384,0);
},
{
name = top;
pos = (384,722);
}
);
layerId = "6DBDBFCA-DF26-4695-B281-FA25C6EAD80F";
shapes = (
{
closed = 1;
nodes = (
(162,-7,o),
(176,-5,o),
(193,0,c),
(193,613,l),
(153,613,l),
(587,0,l),
(601,-5,o),
(616,-7,o),
(630,-7,cs),
(643,-7,o),
(656,-5,o),
(668,0,c),
(668,722,l),
(651,727,o),
(637,729,o),
(622,729,cs),
(606,729,o),
(590,727,o),
(575,722,c),
(575,123,l),
(612,121,l),
(185,724,l),
(171,728,o),
(159,729,o),
(147,729,cs),
(131,729,o),
(115,727,o),
(100,722,c),
(100,0,l),
(115,-5,o),
(130,-7,o),
(146,-7,cs)
);
}
);
width = 768;
}
);
metricLeft = H;
metricRight = H;
unicode = 78;
},
{
color = 6;
glyphname = N.cv04;
kernLeft = N.alt;
kernRight = N.alt;
lastChange = "2025-10-02 11:49:48 +0000";
layers = (
{
anchors = (
{
name = top;
pos = (515,722);
}
);
color = 5;
layerId = "6DBDBFCA-DF26-4695-B281-FA25C6EAD80F";
shapes = (
{
closed = 1;
nodes = (
(259,-14,o),
(324,42,o),
(324,184,cs),
(324,603,l),
(288,601,l),
(650,-11,l),
(680,-13,o),
(711,-7,o),
(728,12,c),
(728,568,ls),
(728,624,o),
(756,645,o),
(791,645,cs),
(816,645,o),
(843,637,o),
(878,621,c),
(901,638,o),
(911,668,o),
(909,704,c),
(863,727,o),
(822,734,o),
(791,734,cs),
(700,734,o),
(635,680,o),
(635,546,cs),
(635,131,l),
(662,145,l),
(317,733,l),
(283,734,o),
(247,724,o),
(231,709,c),
(231,176,ls),
(231,95,o),
(205,71,o),
(172,71,cs),
(133,71,o),
(116,107,o),
(111,147,c),
(77,154,o),
(48,149,o),
(25,133,c),
(30,46,o),
(85,-14,o),
(174,-14,cs)
);
}
);
width = 939;
}
);
},
{
color = 3;
glyphname = N.cv05;
kernLeft = U.alt;
kernRight = no_kerning;
lastChange = "2025-10-02 11:49:49 +0000";
layers = (
{
anchors = (
{
name = bottom;
pos = (467,0);
},
{
name = top;
pos = (491,722);
}
);
color = 7;
layerId = "6DBDBFCA-DF26-4695-B281-FA25C6EAD80F";
shapes = (
{
closed = 1;
nodes = (
(718,138,o),
(749,138,o),
(780,150,c),
(780,475,ls),
(780,648,o),
(705,736,o),
(558,736,cs),
(454,736,o),
(367,680,o),
(317,598,c),
(242,527,l),
(243,0,l),
(276,-9,o),
(306,-9,o),
(336,0,c),
(336,394,ls),
(336,543,o),
(414,646,o),
(548,646,cs),
(642,646,o),
(687,591,o),
(687,468,cs),
(687,150,l)
);
},
{
pos = (12,0);
ref = _part.caps.U.entry;
},
{
pos = (597,0);
ref = _part.caps.connect;
}
);
width = 851;
}
);
metricLeft = U.cv04;
metricRight = U.cv04;
},
{
color = 3;
glyphname = N.isol.cv05;
kernLeft = U.alt;
kernRight = U.alt;
lastChange = "2025-10-02 11:49:49 +0000";
layers = (
{
anchors = (
{
name = bottom;
pos = (487,0);
},
{
name = top;
pos = (511,722);
}
);
color = 7;
layerId = "6DBDBFCA-DF26-4695-B281-FA25C6EAD80F";
shapes = (
{
closed = 1;
nodes = (
(790,164,l),
(790,475,ls),
(790,648,o),
(715,736,o),
(568,736,cs),
(464,736,o),
(377,680,o),
(327,598,c),
(252,527,l),
(253,0,l),
(286,-9,o),
(316,-9,o),
(346,0,c),
(346,394,ls),
(346,543,o),
(424,646,o),
(558,646,cs),
(652,646,o),
(697,591,o),
(697,468,cs),
(697,157,l)
);
},
{
pos = (22,0);
ref = _part.caps.U.entry;
},
{
pos = (599,0);
ref = _part.caps.termin;
}
);
width = 1001;
}
);
metricLeft = "=U.isol.cv04+10";
metricRight = "=U.isol.cv04-10";
},
{
color = 6;
glyphname = O;
kernLeft = O;
kernRight = O;
lastChange = "2025-10-02 11:49:48 +0000";
layers = (
{
anchors = (
{
name = bottom;
pos = (378,0);
},
{
name = center;
pos = (378,361);
},
{
name = horn;
pos = (516,722);
},
{
name = top;
pos = (378,722);
}
);
layerId = "6DBDBFCA-DF26-4695-B281-FA25C6EAD80F";
shapes = (
{
closed = 1;
nodes = (
(570,-14,o),
(701,138,o),
(701,361,cs),
(701,584,o),
(571,736,o),
(379,736,cs),
(187,736,o),
(55,583,o),
(55,361,cs),
(55,139,o),
(187,-14,o),
(379,-14,cs)
);
},
{
closed = 1;
nodes = (
(241,76,o),
(151,190,o),
(151,361,cs),
(151,533,o),
(242,646,o),
(379,646,cs),
(515,646,o),
(605,532,o),
(605,361,cs),
(605,190,o),
(515,76,o),
(378,76,cs)
);
}
);
width = 756;
}
);
unicode = 79;
},
{
color = 6;
glyphname = O.cv04;
kernLeft = O;
kernRight = O;
lastChange = "2025-10-02 11:49:48 +0000";
layers = (
{
anchors = (
{
name = bottom;
pos = (388,0);
},
{
name = center;
pos = (388,361);
},
{
name = horn;
pos = (526,722);
},
{
name = top;
pos = (388,722);
}
);
color = 5;
layerId = "6DBDBFCA-DF26-4695-B281-FA25C6EAD80F";
shapes = (
{
closed = 1;
nodes = (
(289,486,o),
(319,481,o),
(356,488,c),
(368,569,o),
(411,616,o),
(473,616,cs),
(559,616,o),
(615,521,o),
(615,373,cs),
(615,190,o),
(529,76,o),
(390,76,cs),
(251,76,o),
(161,189,o),
(161,361,cs),
(161,531,o),
(248,640,o),
(397,658,c),
(401,695,o),
(393,725,o),
(376,735,c),
(191,721,o),
(65,567,o),
(65,355,cs),
(65,138,o),
(199,-14,o),
(390,-14,cs),
(582,-14,o),
(711,139,o),
(711,368,cs),
(711,565,o),
(616,706,o),
(482,706,cs),
(371,706,o),
(280,622,o),
(266,505,c)
);
}
);
width = 776;
}
);
},
{
color = 3;
glyphname = Ohorn;
kernLeft = O;
kernRight = O;
lastChange = "2025-10-02 11:49:49 +0000";
layers = (
{
layerId = "6DBDBFCA-DF26-4695-B281-FA25C6EAD80F";
shapes = (
{
ref = O;
},
{
closed = 1;
nodes = (
(519,635,l),
(623,639,o),
(683,703,o),
(683,806,cs),
(683,819,o),
(682,833,o),
(680,847,c),
(652,859,o),
(621,854,o),
(595,841,c),
(597,827,o),
(598,818,o),
(598,802,cs),
(598,755,o),
(579,711,o),
(494,704,c)
);
}
);
width = 756;
}
);
unicode = 416;
},
{
color = 6;
glyphname = OE;
kernLeft = O;
kernRight = E;
lastChange = "2025-10-02 11:49:48 +0000";
layers = (
{
anchors = (
{
name = bottom;
pos = (477,0);
},
{
name = top;
pos = (477,722);
}
);
layerId = "6DBDBFCA-DF26-4695-B281-FA25C6EAD80F";
shapes = (
{
closed = 1;
nodes = (
(882,0,l),
(890,26,o),
(890,64,o),
(882,87,c),
(578,87,l),
(578,320,l),
(863,320,l),
(870,350,o),
(870,385,o),
(863,407,c),
(578,407,l),
(578,635,l),
(875,635,l),
(883,664,o),
(883,700,o),
(875,722,c),
(485,722,l),
(485,0,l)
);
},
{
closed = 1;
nodes = (
(522,113,l),
(482,88,o),
(437,75,o),
(388,75,cs),
(244,75,o),
(150,188,o),
(150,361,cs),
(150,534,o),
(245,647,o),
(389,647,cs),
(445,647,o),
(495,630,o),
(535,599,c),
(579,680,l),
(526,717,o),
(461,736,o),
(389,736,cs),
(191,736,o),
(55,583,o),
(55,361,cs),
(55,139,o),
(191,-14,o),
(389,-14,cs),
(458,-14,o),
(522,4,o),
(574,38,c)
);
}
);
width = 953;
}
);
metricLeft = O;
metricRight = E;
unicode = 338;
},
{
color = 6;
glyphname = P;
kernLeft = H;
kernRight = P;
lastChange = "2025-10-02 11:49:48 +0000";
layers = (
{
anchors = (
{
name = bottom;
pos = (324,0);
},
{
name = top;
pos = (324,722);
}
);
layerId = "6DBDBFCA-DF26-4695-B281-FA25C6EAD80F";
shapes = (
{
closed = 1;
nodes = (
(193,636,l),
(325,636,ls),
(436,636,o),
(492,590,o),
(492,503,cs),
(492,405,o),
(428,356,o),
(307,356,cs),
(174,356,l),
(174,271,l),
(316,271,ls),
(482,271,o),
(588,358,o),
(588,506,cs),
(588,642,o),
(495,722,o),
(325,722,cs),
(100,722,l),
(100,0,l),
(115,-5,o),
(130,-7,o),
(146,-7,cs),
(162,-7,o),
(176,-5,o),
(193,0,c)
);
}
);
width = 648;
}
);
metricLeft = H;
unicode = 80;
},
{
color = 3;
glyphname = P.cv04;
kernLeft = B.alt;
kernRight = P.alt;
lastChange = "2025-10-02 11:49:49 +0000";
layers = (
{
color = 5;
layerId = "6DBDBFCA-DF26-4695-B281-FA25C6EAD80F";
shapes = (
{
closed = 1;
nodes = (
(451,281,ls),
(621,281,o),
(722,365,o),
(722,506,cs),
(722,651,o),
(602,722,o),
(406,722,cs),
(322,722,l),
(284,694,o),
(271,665,o),
(270,635,c),
(422,635,l),
(560,635,o),
(626,594,o),
(626,506,cs),
(626,414,o),
(568,366,o),
(456,366,cs),
(419,366,l),
(406,337,o),
(406,308,o),
(419,281,c)
);
},
{
pos = (96,0);
ref = _part.caps.stem;
},
{
pos = (6,0);
ref = _part.caps.entryloop;
}
);
width = 762;
}
);
metricLeft = B.cv04;
},
{
color = 3;
glyphname = Q;
kernLeft = O;
kernRight = O;
lastChange = "2025-10-02 11:49:49 +0000";
layers = (
{
layerId = "6DBDBFCA-DF26-4695-B281-FA25C6EAD80F";
shapes = (
{
closed = 1;
nodes = (
(620,-119,o),
(646,-97,o),
(658,-72,c),
(400,307,l),
(369,300,o),
(346,282,o),
(327,257,c),
(585,-124,l)
);
},
{
ref = O;
}
);
width = 756;
}
);
metricLeft = O;
metricRight = O;
unicode = 81;
},
{
color = 3;
glyphname = Q.cv04;
kernLeft = O;
kernRight = no_kerning;
lastChange = "2025-10-02 11:49:49 +0000";
layers = (
{
anchors = (
{
name = "#fina";
pos = (735,72);
}
);
color = 5;
layerId = "6DBDBFCA-DF26-4695-B281-FA25C6EAD80F";
shapes = (
{
pos = (-10,0);
ref = O.cv04;
},
{
closed = 1;
nodes = (
(265,241,o),
(273,213,o),
(296,194,c),
(320,205,o),
(343,210,o),
(365,210,cs),
(411,210,o),
(448,188,o),
(498,131,cs),
(589,25,o),
(651,-14,o),
(728,-14,cs),
(748,-14,o),
(762,6,o),
(762,33,cs),
(762,57,o),
(752,72,o),
(735,72,cs),
(682,72,o),
(648,95,o),
(566,189,cs),
(505,262,o),
(444,296,o),
(376,296,cs),
(342,296,o),
(308,289,o),
(272,274,c)
);
}
);
width = 737;
}
);
metricLeft = O;
},
{
color = 6;
glyphname = R;
kernLeft = H;
kernRight = R;
lastChange = "2025-10-02 11:49:48 +0000";
layers = (
{
anchors = (
{
name = bottom;
pos = (335,0);
},
{
name = top;
pos = (335,722);
}
);
layerId = "6DBDBFCA-DF26-4695-B281-FA25C6EAD80F";
shapes = (
{
closed = 1;
nodes = (
(162,-7,o),
(176,-5,o),
(193,0,c),
(193,669,l),
(178,636,l),
(347,636,ls),
(433,636,o),
(496,592,o),
(496,511,cs),
(496,396,o),
(395,368,o),
(312,368,cs),
(176,368,l),
(176,282,l),
(312,282,ls),
(405,282,o),
(592,334,o),
(592,514,cs),
(592,664,o),
(472,722,o),
(339,722,cs),
(100,722,l),
(100,0,l),
(115,-5,o),
(130,-7,o),
(146,-7,cs)
);
},
{
closed = 1;
nodes = (
(571,1,o),
(601,26,o),
(612,54,c),
(402,349,l),
(322,298,l),
(539,-6,l)
);
}
);
width = 670;
}
);
metricLeft = P;
unicode = 82;
},
{
color = 3;
glyphname = R.cv04;
kernLeft = b.alt;
kernRight = no_kerning;
lastChange = "2025-10-02 11:49:49 +0000";
layers = (
{
color = 5;
layerId = "6DBDBFCA-DF26-4695-B281-FA25C6EAD80F";
name = Regular;
shapes = (
{
pos = (96,0);
ref = _part.caps.stem;
},
{
closed = 1;
nodes = (
(742,-14,o),
(761,-6,o),
(761,30,cs),
(761,61,o),
(746,72,o),
(724,72,cs),
(695,72,o),
(677,91,o),
(661,131,cs),
(636,194,ls),
(582,330,o),
(550,357,o),
(422,357,c),
(417,287,l),
(495,287,o),
(503,279,o),
(548,165,cs),
(572,104,ls),
(602,28,o),
(655,-14,o),
(717,-14,cs)
);
},
{
pos = (6,0);
ref = _part.caps.entryloop;
},
{
closed = 1;
nodes = (
(565,635,o),
(631,594,o),
(631,505,cs),
(631,417,o),
(569,374,o),
(453,374,cs),
(401,374,l),
(387,346,o),
(387,317,o),
(401,287,c),
(457,287,ls),
(619,287,o),
(727,372,o),
(727,507,cs),
(727,644,o),
(616,722,o),
(421,722,cs),
(322,722,l),
(287,696,o),
(278,666,o),
(276,635,c),
(419,635,ls)
);
}
);
width = 725;
}
);
metricLeft = B.cv04;
metricRight = "=-36";
},
{
color = 3;
glyphname = R.isol.cv04;
kernLeft = B.alt;
kernRight = R.alt;
lastChange = "2025-10-02 11:49:49 +0000";
layers = (
{
color = 5;
layerId = "6DBDBFCA-DF26-4695-B281-FA25C6EAD80F";
name = Regular;
shapes = (
{
closed = 1;
nodes = (
(457,287,ls),
(619,287,o),
(727,376,o),
(727,510,cs),
(727,647,o),
(615,726,o),
(421,726,cs),
(322,726,l),
(296,697,o),
(291,668,o),
(293,639,c),
(419,639,ls),
(565,639,o),
(631,597,o),
(631,507,cs),
(631,421,o),
(569,374,o),
(453,374,cs),
(401,374,l),
(387,346,o),
(387,317,o),
(401,287,c)
);
},
{
pos = (96,0);
ref = _part.caps.stem;
},
{
closed = 1;
nodes = (
(862,90,o),
(836,119,o),
(806,125,c),
(772,89,o),
(747,75,o),
(721,75,cs),
(693,75,o),
(676,93,o),
(661,131,cs),
(636,194,ls),
(582,330,o),
(550,357,o),
(422,357,c),
(417,287,l),
(495,287,o),
(503,279,o),
(548,165,cs),
(572,104,ls),
(602,27,o),
(653,-14,o),
(720,-14,cs),
(771,-14,o),
(813,9,o),
(861,62,c)
);
},
{
pos = (6,4);
ref = _part.caps.entryloop;
}
);
width = 871;
}
);
metricLeft = B.cv04;
},
{
color = 6;
glyphname = S;
kernLeft = S;
kernRight = S;
lastChange = "2025-10-02 11:49:48 +0000";
layers = (
{
anchors = (
{
name = bottom;
pos = (297,0);
},
{
name = top;
pos = (297,722);
}
);
layerId = "6DBDBFCA-DF26-4695-B281-FA25C6EAD80F";
shapes = (
{
closed = 1;
nodes = (
(434,-14,o),
(537,69,o),
(537,198,cs),
(537,294,o),
(479,361,o),
(386,391,cs),
(258,432,ls),
(197,452,o),
(165,486,o),
(165,538,cs),
(165,603,o),
(222,647,o),
(305,647,cs),
(373,647,o),
(427,617,o),
(459,562,c),
(491,572,o),
(521,595,o),
(533,617,c),
(499,688,o),
(410,735,o),
(308,735,cs),
(171,735,o),
(71,650,o),
(71,532,cs),
(71,442,o),
(128,378,o),
(221,348,cs),
(354,305,ls),
(411,287,o),
(443,252,o),
(443,197,cs),
(443,122,o),
(386,76,o),
(301,75,cs),
(221,74,o),
(163,112,o),
(139,184,c),
(110,187,o),
(72,169,o),
(57,144,c),
(84,49,o),
(166,-12,o),
(296,-13,cs)
);
}
);
width = 594;
}
);
unicode = 83;
},
{
color = 6;
glyphname = S.cv04;
kernLeft = S;
kernRight = S;
lastChange = "2025-10-02 11:49:48 +0000";
layers = (
{
color = 5;
layerId = "6DBDBFCA-DF26-4695-B281-FA25C6EAD80F";
name = Regular;
shapes = (
{
closed = 1;
nodes = (
(366,648,o),
(413,604,o),
(413,539,c),
(448,534,o),
(487,538,o),
(507,550,c),
(507,658,o),
(419,736,o),
(297,736,cs),
(171,736,o),
(80,652,o),
(80,534,cs),
(80,444,o),
(133,381,o),
(249,334,cs),
(340,297,ls),
(409,269,o),
(432,239,o),
(432,190,cs),
(432,118,o),
(382,75,o),
(297,75,cs),
(210,75,o),
(160,120,o),
(152,206,c),
(111,214,o),
(74,206,o),
(60,185,c),
(70,62,o),
(159,-14,o),
(295,-14,cs),
(435,-14,o),
(526,66,o),
(526,189,cs),
(526,275,o),
(482,341,o),
(380,381,cs),
(278,421,ls),
(206,449,o),
(174,484,o),
(174,536,cs),
(174,602,o),
(224,648,o),
(296,648,cs)
);
}
);
width = 586;
}
);
},
{
color = 6;
glyphname = Germandbls;
kernLeft = Germandbls;
kernRight = Germandbls;
lastChange = "2025-10-02 11:49:48 +0000";
layers = (
{
layerId = "6DBDBFCA-DF26-4695-B281-FA25C6EAD80F";
shapes = (
{
closed = 1;
nodes = (
(551,648,l),
(559,603,l),
(515,628,o),
(460,646,o),
(385,646,cs),
(250,646,o),
(183,585,o),
(183,462,cs),
(183,0,l),
(170,-3,o),
(154,-4,o),
(136,-4,cs),
(119,-4,o),
(104,-3,o),
(90,0,c),
(90,455,ls),
(90,631,o),
(192,736,o),
(387,736,cs),
(487,736,o),
(582,708,o),
(657,648,c),
(517,404,l),
(473,435,l),
(609,414,o),
(697,339,o),
(697,210,cs),
(697,81,o),
(611,-14,o),
(458,-14,cs),
(386,-14,o),
(305,7,o),
(252,41,c),
(250,73,o),
(262,105,o),
(289,123,c),
(350,93,o),
(400,76,o),
(454,76,cs),
(549,76,o),
(603,129,o),
(603,208,cs),
(603,301,o),
(528,346,o),
(441,346,c),
(423,365,o),
(417,390,o),
(422,423,c)
);
}
);
width = 752;
}
);
unicode = 7838;
},
{
color = 6;
glyphname = T;
kernLeft = T;
kernRight = T;
lastChange = "2025-10-02 11:49:48 +0000";
layers = (
{
anchors = (
{
name = bottom;
pos = (323,0);
},
{
name = center;
pos = (323,361);
},
{
name = top;
pos = (323,722);
}
);
layerId = "6DBDBFCA-DF26-4695-B281-FA25C6EAD80F";
shapes = (
{
closed = 1;
nodes = (
(336,-5,o),
(352,-3,o),
(370,0,c),
(370,689,l),
(276,689,l),
(276,0,l),
(293,-3,o),
(308,-5,o),
(322,-5,cs)
);
},
{
closed = 1;
nodes = (
(606,638,l),
(616,665,o),
(616,701,o),
(606,722,c),
(39,722,l),
(29,699,o),
(29,667,o),
(39,638,c)
);
}
);
width = 645;
}
);
unicode = 84;
},
{
color = 6;
glyphname = T.cv04;
kernLeft = T.alt;
kernRight = T.alt;
lastChange = "2025-10-02 11:49:48 +0000";
layers = (
{
color = 5;
layerId = "6DBDBFCA-DF26-4695-B281-FA25C6EAD80F";
name = Regular;
shapes = (
{
closed = 1;
nodes = (
(594,-14,o),
(672,38,o),
(744,144,c),
(733,167,o),
(703,188,o),
(673,193,c),
(613,113,o),
(561,76,o),
(504,76,cs),
(432,76,o),
(406,134,o),
(406,259,cs),
(406,373,o),
(429,546,o),
(460,676,c),
(362,676,l),
(332,559,o),
(310,377,o),
(310,255,cs),
(310,77,o),
(382,-14,o),
(498,-14,cs)
);
},
{
closed = 1;
nodes = (
(128,606,o),
(160,635,o),
(209,635,cs),
(695,635,l),
(707,665,o),
(707,694,o),
(695,722,c),
(193,722,ls),
(114,722,o),
(51,662,o),
(35,570,c),
(49,551,o),
(92,541,o),
(117,550,c)
);
}
);
width = 792;
}
);
},
{
color = 6;
glyphname = T.long;
kernLeft = T.alt;
kernRight = C.long;
lastChange = "2025-10-02 11:49:48 +0000";
layers = (
{
color = 5;
layerId = "6DBDBFCA-DF26-4695-B281-FA25C6EAD80F";
name = Regular;
shapes = (
{
closed = 1;
nodes = (
(436,76,o),
(406,136,o),
(406,269,cs),
(406,398,o),
(433,568,o),
(470,676,c),
(372,676,l),
(336,577,o),
(310,394,o),
(310,271,cs),
(310,74,o),
(378,-14,o),
(520,-14,cs),
(656,-14,o),
(764,71,o),
(890,264,c),
(877,292,o),
(853,309,o),
(817,314,c),
(707,149,o),
(616,76,o),
(523,76,cs)
);
},
{
closed = 1;
nodes = (
(128,606,o),
(160,635,o),
(209,635,cs),
(695,635,l),
(707,665,o),
(707,694,o),
(695,722,c),
(193,722,ls),
(114,722,o),
(51,662,o),
(35,570,c),
(49,551,o),
(92,541,o),
(117,550,c)
);
}
);
width = 802;
}
);
metricLeft = T.cv04;
},
{
color = 6;
glyphname = U;
kernLeft = U;
kernRight = U;
lastChange = "2025-10-02 11:49:48 +0000";
layers = (
{
anchors = (
{
name = bottom;
pos = (364,0);
},
{
name = horn;
pos = (576,732);
},
{
name = top;
pos = (364,722);
}
);
layerId = "6DBDBFCA-DF26-4695-B281-FA25C6EAD80F";
shapes = (
{
closed = 1;
nodes = (
(544,-14,o),
(637,92,o),
(637,296,cs),
(637,722,l),
(620,727,o),
(606,729,o),
(591,729,cs),
(575,729,o),
(559,727,o),
(544,722,c),
(544,303,ls),
(544,150,o),
(485,76,o),
(364,76,cs),
(242,76,o),
(183,150,o),
(183,303,cs),
(183,722,l),
(168,727,o),
(153,729,o),
(136,729,cs),
(121,729,o),
(107,727,o),
(90,722,c),
(90,296,ls),
(90,92,o),
(184,-14,o),
(364,-14,cs)
);
}
);
width = 727;
}
);
metricLeft = "=H-10";
metricRight = "=H-10";
unicode = 85;
},
{
color = 3;
glyphname = Uhorn.isol.cv04;
kernLeft = U.alt;
kernRight = U.alt;
lastChange = "2025-10-02 11:49:49 +0000";
layers = (
{
anchors = (
{
name = bottom;
pos = (485,0);
},
{
name = top;
pos = (485,722);
}
);
color = 5;
layerId = "6DBDBFCA-DF26-4695-B281-FA25C6EAD80F";
shapes = (
{
closed = 1;
nodes = (
(832,656,o),
(877,716,o),
(877,806,cs),
(877,819,o),
(876,833,o),
(874,847,c),
(849,858,o),
(818,856,o),
(789,841,c),
(791,826,o),
(792,819,o),
(792,804,cs),
(792,766,o),
(783,722,o),
(737,722,c),
(752,640,l)
);
},
{
ref = U.isol.cv04;
}
);
width = 1001;
}
);
metricLeft = U.isol.cv04;
metricRight = U.isol.cv04;
},
{
color = 6;
glyphname = V;
kernLeft = V;
kernRight = V;
lastChange = "2025-10-02 11:49:48 +0000";
layers = (
{
anchors = (
{
name = bottom;
pos = (347,0);
},
{
name = top;
pos = (347,722);
}
);
layerId = "6DBDBFCA-DF26-4695-B281-FA25C6EAD80F";
shapes = (
{
closed = 1;
nodes = (
(320,-4,o),
(332,-7,o),
(351,-7,cs),
(370,-7,o),
(381,-4,o),
(392,0,c),
(664,701,l),
(646,717,o),
(611,730,o),
(579,732,c),
(311,38,l),
(387,51,l),
(116,732,l),
(86,729,o),
(53,717,o),
(30,701,c),
(309,0,l)
);
}
);
width = 694;
}
);
unicode = 86;
},
{
color = 6;
glyphname = V.cv04;
kernLeft = V.alt;
kernRight = V.alt;
lastChange = "2025-10-02 11:49:48 +0000";
layers = (
{
anchors = (
{
name = bottom;
pos = (457,0);
}
);
color = 5;
layerId = "6DBDBFCA-DF26-4695-B281-FA25C6EAD80F";
shapes = (
{
closed = 1;
nodes = (
(692,623,o),
(711,645,o),
(752,645,cs),
(775,645,o),
(799,638,o),
(834,622,c),
(856,638,o),
(867,668,o),
(865,705,c),
(828,724,o),
(787,734,o),
(746,734,cs),
(662,734,o),
(619,695,o),
(579,580,cs),
(534,453,o),
(463,159,o),
(451,53,c),
(482,49,l),
(462,168,o),
(393,413,o),
(338,556,cs),
(285,692,o),
(242,735,o),
(168,735,cs),
(81,735,o),
(33,667,o),
(30,551,c),
(49,541,o),
(92,538,o),
(117,545,c),
(121,610,o),
(139,645,o),
(168,645,cs),
(198,645,o),
(218,616,o),
(253,521,cs),
(304,382,o),
(375,136,o),
(404,0,c),
(419,-7,o),
(441,-11,o),
(463,-11,cs),
(486,-11,o),
(509,-7,o),
(524,0,c),
(564,193,o),
(617,399,o),
(665,542,cs)
);
}
);
width = 895;
}
);
metricLeft = "=|A-10";
metricRight = "=|A-10";
},
{
color = 3;
glyphname = V.cv05;
kernLeft = U.alt;
kernRight = V.alt2;
lastChange = "2025-10-02 11:49:49 +0000";
layers = (
{
anchors = (
{
name = bottom;
pos = (506,0);
},
{
name = top;
pos = (506,722);
}
);
color = 7;
guides = (
{
pos = (322,729);
}
);
layerId = "6DBDBFCA-DF26-4695-B281-FA25C6EAD80F";
name = Regular;
shapes = (
{
closed = 1;
nodes = (
(823,546,o),
(880,554,o),
(924,566,c),
(931,606,o),
(921,634,o),
(902,654,c),
(874,644,o),
(814,636,o),
(770,636,c),
(770,546,l)
);
},
{
closed = 1;
nodes = (
(242,520,l),
(242,227,ls),
(242,63,o),
(304,-14,o),
(434,-14,cs),
(645,-14,o),
(799,189,o),
(799,467,cs),
(799,622,o),
(752,729,o),
(685,729,cs),
(635,729,o),
(584,671,o),
(577,606,c),
(596,570,o),
(660,544,o),
(731,544,c),
(676,616,l),
(696,565,o),
(704,523,o),
(704,464,cs),
(704,243,o),
(591,76,o),
(443,76,cs),
(366,76,o),
(335,122,o),
(335,234,cs),
(335,520,l)
);
},
{
pos = (12,0);
ref = _part.caps.U.entry;
}
);
width = 956;
}
);
metricLeft = U.cv04;
},
{
color = 6;
glyphname = W;
kernLeft = W;
kernRight = W;
lastChange = "2025-10-02 11:49:48 +0000";
layers = (
{
anchors = (
{
name = bottom;
pos = (498,0);
},
{
name = top;
pos = (498,722);
}
);
layerId = "6DBDBFCA-DF26-4695-B281-FA25C6EAD80F";
shapes = (
{
closed = 1;
nodes = (
(291,-7,o),
(303,-5,o),
(319,0,c),
(514,506,l),
(482,506,l),
(678,0,l),
(692,-5,o),
(705,-7,o),
(720,-7,cs),
(735,-7,o),
(747,-5,o),
(763,0,c),
(952,711,l),
(934,724,o),
(900,735,o),
(865,731,c),
(698,107,l),
(727,109,l),
(540,592,l),
(525,597,o),
(513,599,o),
(499,599,cs),
(483,599,o),
(470,597,o),
(456,592,c),
(270,109,l),
(300,107,l),
(132,731,l),
(105,735,o),
(61,724,o),
(43,711,c),
(234,0,l),
(248,-5,o),
(261,-7,o),
(276,-7,cs)
);
}
);
width = 995;
}
);
unicode = 87;
},
{
color = 6;
glyphname = W.cv04;
kernLeft = V.alt;
kernRight = V.alt;
lastChange = "2025-10-02 11:49:48 +0000";
layers = (
{
color = 5;
layerId = "6DBDBFCA-DF26-4695-B281-FA25C6EAD80F";
shapes = (
{
closed = 1;
nodes = (
(520,190,o),
(567,360,o),
(615,535,c),
(592,535,l),
(639,360,o),
(682,190,o),
(725,0,c),
(762,-15,o),
(814,-14,o),
(853,0,c),
(879,142,o),
(921,388,o),
(971,535,cs),
(998,614,o),
(1018,639,o),
(1059,639,cs),
(1081,639,o),
(1104,632,o),
(1143,615,c),
(1165,630,o),
(1177,660,o),
(1176,697,c),
(1138,717,o),
(1094,728,o),
(1053,728,cs),
(972,728,o),
(924,684,o),
(886,575,cs),
(848,466,o),
(809,254,o),
(777,72,c),
(800,69,l),
(762,278,o),
(689,529,o),
(650,672,c),
(622,683,o),
(588,684,o),
(558,672,c),
(518,527,o),
(440,261,o),
(405,69,c),
(430,72,l),
(411,186,o),
(367,420,o),
(335,538,cs),
(303,657,o),
(263,736,o),
(168,736,cs),
(83,736,o),
(35,674,o),
(30,556,c),
(57,544,o),
(90,542,o),
(116,549,c),
(122,617,o),
(137,648,o),
(167,648,cs),
(201,648,o),
(222,607,o),
(255,478,cs),
(289,347,o),
(331,136,o),
(353,1,c),
(393,-16,o),
(450,-15,o),
(482,0,c)
);
}
);
width = 1206;
}
);
metricLeft = V.cv04;
metricRight = V.cv04;
},
{
color = 3;
glyphname = W.cv05;
kernLeft = U.alt;
kernRight = V.alt2;
lastChange = "2025-10-02 11:49:49 +0000";
layers = (
{
anchors = (
{
name = bottom;
pos = (506,0);
},
{
name = top;
pos = (506,722);
}
);
color = 7;
guides = (
{
pos = (322,729);
}
);
layerId = "6DBDBFCA-DF26-4695-B281-FA25C6EAD80F";
shapes = (
{
closed = 1;
nodes = (
(971,-14,o),
(1040,99,o),
(1040,364,cs),
(1040,584,o),
(993,729,o),
(923,729,cs),
(876,729,o),
(823,667,o),
(818,606,c),
(837,570,o),
(901,544,o),
(971,544,c),
(930,572,l),
(939,519,o),
(945,435,o),
(945,356,cs),
(945,158,o),
(906,76,o),
(812,76,cs),
(724,76,o),
(688,146,o),
(688,314,cs),
(688,442,l),
(595,442,l),
(595,317,ls),
(595,162,o),
(541,76,o),
(443,76,cs),
(365,76,o),
(335,128,o),
(335,264,cs),
(335,520,l),
(242,520,l),
(242,257,ls),
(242,70,o),
(304,-14,o),
(441,-14,cs),
(545,-14,o),
(612,35,o),
(645,133,c),
(617,134,l),
(643,34,o),
(706,-14,o),
(810,-14,cs)
);
},
{
pos = (12,0);
ref = _part.caps.U.entry;
},
{
closed = 1;
nodes = (
(1068,546,o),
(1124,553,o),
(1165,566,c),
(1171,603,o),
(1164,632,o),
(1143,654,c),
(1115,643,o),
(1055,636,o),
(996,636,c),
(1011,546,l)
);
}
);
width = 1197;
}
);
metricLeft = U.cv04;
metricRight = V.cv05;
},
{
color = 6;
glyphname = X;
kernLeft = X;
kernRight = X;
lastChange = "2025-10-02 11:49:48 +0000";
layers = (
{
anchors = (
{
name = bottom;
pos = (340,0);
},
{
name = top;
pos = (340,722);
}
);
layerId = "6DBDBFCA-DF26-4695-B281-FA25C6EAD80F";
shapes = (
{
closed = 1;
nodes = (
(592,-11,o),
(622,6,o),
(634,38,c),
(135,732,l),
(101,725,o),
(75,707,o),
(61,680,c),
(559,-14,l)
);
},
{
closed = 1;
nodes = (
(369,339,l),
(320,427,l),
(45,42,l),
(52,14,o),
(85,-11,o),
(117,-14,c)
);
},
{
closed = 1;
nodes = (
(619,680,l),
(605,706,o),
(582,725,o),
(545,732,c),
(329,427,l),
(380,341,l)
);
}
);
width = 679;
}
);
unicode = 88;
},
{
color = 6;
glyphname = X.cv04;
kernLeft = X.alt;
kernRight = X.alt;
lastChange = "2025-10-02 11:49:48 +0000";
layers = (
{
color = 5;
layerId = "6DBDBFCA-DF26-4695-B281-FA25C6EAD80F";
shapes = (
{
closed = 1;
nodes = (
(607,-14,o),
(621,4,o),
(621,32,cs),
(621,56,o),
(610,72,o),
(593,72,cs),
(546,72,o),
(524,117,o),
(486,205,cs),
(338,542,ls),
(279,678,o),
(243,735,o),
(166,735,cs),
(83,735,o),
(31,669,o),
(28,551,c),
(52,538,o),
(97,540,o),
(115,545,c),
(119,610,o),
(136,645,o),
(165,645,cs),
(193,645,o),
(207,614,o),
(271,468,cs),
(382,212,ls),
(457,42,o),
(492,-14,o),
(586,-14,cs)
);
},
{
closed = 1;
nodes = (
(240,106,o),
(310,212,o),
(388,327,c),
(334,407,l),
(248,279,o),
(170,164,o),
(90,37,c),
(98,9,o),
(133,-10,o),
(165,-12,c)
);
},
{
closed = 1;
nodes = (
(484,456,o),
(561,560,o),
(645,678,c),
(630,704,o),
(608,723,o),
(570,729,c),
(491,621,o),
(423,524,o),
(350,416,c),
(402,333,l)
);
}
);
width = 594;
}
);
metricRight = "=-51";
},
{
color = 6;
glyphname = X.cv05;
kernLeft = X.alt;
kernRight = X.alt;
lastChange = "2025-10-02 11:49:48 +0000";
layers = (
{
anchors = (
{
name = bottom;
pos = (635,0);
},
{
name = top;
pos = (629,722);
}
);
color = 5;
layerId = "6DBDBFCA-DF26-4695-B281-FA25C6EAD80F";
shapes = (
{
closed = 1;
nodes = (
(902,182,o),
(881,200,o),
(847,204,c),
(789,117,o),
(741,76,o),
(669,76,cs),
(566,76,o),
(514,167,o),
(514,348,cs),
(514,535,o),
(569,646,o),
(660,646,cs),
(724,646,o),
(764,591,o),
(775,499,c),
(819,489,o),
(849,501,o),
(865,513,c),
(845,672,o),
(762,736,o),
(661,736,cs),
(509,736,o),
(418,590,o),
(418,349,cs),
(418,114,o),
(505,-14,o),
(663,-14,cs),
(784,-14,o),
(856,55,o),
(914,149,c)
);
},
{
closed = 1;
nodes = (
(45,539,o),
(69,522,o),
(106,518,c),
(161,611,o),
(215,646,o),
(274,646,cs),
(369,646,o),
(418,553,o),
(418,377,cs),
(418,187,o),
(361,76,o),
(260,76,cs),
(189,76,o),
(148,131,o),
(137,223,c),
(93,233,o),
(63,221,o),
(47,209,c),
(66,52,o),
(150,-14,o),
(259,-14,cs),
(419,-14,o),
(514,129,o),
(514,376,cs),
(514,606,o),
(431,736,o),
(278,736,cs),
(165,736,o),
(82,664,o),
(30,566,c)
);
}
);
width = 944;
}
);
metricLeft = "=|C.cv04";
metricRight = "=C.cv04";
},
{
color = 6;
glyphname = X.isol.cv04;
kernLeft = X.alt;
kernRight = X.alt;
lastChange = "2025-10-02 11:49:48 +0000";
layers = (
{
color = 5;
layerId = "6DBDBFCA-DF26-4695-B281-FA25C6EAD80F";
shapes = (
{
closed = 1;
nodes = (
(656,-14,o),
(709,52,o),
(712,170,c),
(688,183,o),
(643,181,o),
(625,176,c),
(621,111,o),
(604,76,o),
(575,76,cs),
(547,76,o),
(528,107,o),
(450,286,cs),
(338,542,ls),
(279,678,o),
(243,735,o),
(166,735,cs),
(83,735,o),
(31,669,o),
(28,551,c),
(52,538,o),
(97,540,o),
(115,545,c),
(119,610,o),
(136,645,o),
(165,645,cs),
(193,645,o),
(207,614,o),
(271,468,cs),
(386,204,ls),
(456,43,o),
(496,-14,o),
(573,-14,cs)
);
},
{
closed = 1;
nodes = (
(240,106,o),
(310,212,o),
(388,327,c),
(334,407,l),
(248,279,o),
(170,164,o),
(90,37,c),
(98,9,o),
(133,-10,o),
(165,-12,c)
);
},
{
closed = 1;
nodes = (
(484,456,o),
(561,560,o),
(645,678,c),
(630,704,o),
(608,723,o),
(570,729,c),
(491,621,o),
(423,524,o),
(350,416,c),
(402,333,l)
);
}
);
width = 704;
}
);
},
{
color = 6;
glyphname = X.long.cv05;
kernLeft = X.alt;
kernRight = C.long;
lastChange = "2025-10-02 11:49:48 +0000";
layers = (
{
anchors = (
{
name = bottom;
pos = (622,0);
},
{
name = top;
pos = (616,722);
}
);
color = 5;
layerId = "6DBDBFCA-DF26-4695-B281-FA25C6EAD80F";
shapes = (
{
closed = 1;
nodes = (
(866,-14,o),
(975,116,o),
(1071,264,c),
(1056,296,o),
(1029,310,o),
(998,314,c),
(915,187,o),
(810,76,o),
(689,76,cs),
(573,76,o),
(514,167,o),
(514,348,cs),
(514,535,o),
(569,646,o),
(660,646,cs),
(724,646,o),
(764,591,o),
(775,499,c),
(819,489,o),
(849,501,o),
(865,513,c),
(845,672,o),
(762,736,o),
(661,736,cs),
(509,736,o),
(418,590,o),
(418,349,cs),
(418,114,o),
(508,-14,o),
(671,-14,cs)
);
},
{
closed = 1;
nodes = (
(45,539,o),
(69,522,o),
(106,518,c),
(161,611,o),
(215,646,o),
(274,646,cs),
(369,646,o),
(418,553,o),
(418,377,cs),
(418,187,o),
(361,76,o),
(260,76,cs),
(189,76,o),
(148,131,o),
(137,223,c),
(93,233,o),
(63,221,o),
(47,209,c),
(66,52,o),
(150,-14,o),
(259,-14,cs),
(419,-14,o),
(514,129,o),
(514,376,cs),
(514,606,o),
(431,736,o),
(278,736,cs),
(165,736,o),
(82,664,o),
(30,566,c)
);
}
);
width = 983;
}
);
metricLeft = "=|C.cv04";
},
{
color = 6;
glyphname = Y;
kernLeft = Y;
kernRight = Y;
lastChange = "2025-10-02 11:49:48 +0000";
layers = (
{
anchors = (
{
name = bottom;
pos = (329,0);
},
{
name = top;
pos = (329,722);
}
);
layerId = "6DBDBFCA-DF26-4695-B281-FA25C6EAD80F";
shapes = (
{
closed = 1;
nodes = (
(355,241,l),
(631,687,l),
(622,712,o),
(583,732,o),
(553,731,c),
(308,338,l),
(352,338,l),
(105,732,l),
(78,732,o),
(41,714,o),
(26,686,c),
(305,241,l)
);
},
{
closed = 1;
nodes = (
(346,-7,o),
(361,-5,o),
(376,0,c),
(376,295,l),
(283,295,l),
(283,0,l),
(300,-5,o),
(315,-7,o),
(330,-7,cs)
);
}
);
width = 657;
}
);
unicode = 89;
},
{
color = 3;
glyphname = Y.cv04;
kernLeft = U.alt;
kernRight = no_kerning;
lastChange = "2025-10-02 11:49:49 +0000";
layers = (
{
anchors = (
{
name = "#fina";
pos = (730,16);
},
{
name = bottom;
pos = (883,0);
}
);
color = 5;
guides = (
{
pos = (323,729);
}
);
layerId = "6DBDBFCA-DF26-4695-B281-FA25C6EAD80F";
shapes = (
{
closed = 1;
nodes = (
(726,-514,o),
(780,-432,o),
(780,-274,cs),
(780,193,l),
(687,193,l),
(687,-274,ls),
(687,-374,o),
(662,-425,o),
(603,-425,cs),
(556,-425,o),
(528,-391,o),
(528,-334,cs),
(528,-255,o),
(588,-173,o),
(705,-95,c),
(706,15,l),
(522,-96,o),
(433,-212,o),
(433,-337,cs),
(433,-443,o),
(498,-514,o),
(607,-514,cs)
);
},
{
alignment = -1;
pos = (13,0);
ref = _part.U;
}
);
width = 910;
}
);
metricLeft = U.isol.cv04;
metricRight = G.cv04;
},
{
color = 6;
glyphname = Z;
kernLeft = Z;
kernRight = Z;
lastChange = "2025-10-02 11:49:48 +0000";
layers = (
{
anchors = (
{
name = bottom;
pos = (317,0);
},
{
name = center;
pos = (317,361);
},
{
name = top;
pos = (317,722);
}
);
layerId = "6DBDBFCA-DF26-4695-B281-FA25C6EAD80F";
shapes = (
{
closed = 1;
nodes = (
(593,0,l),
(605,22,o),
(605,66,o),
(593,86,c),
(145,86,l),
(161,53,l),
(584,648,l),
(587,677,o),
(575,710,o),
(551,722,c),
(75,722,l),
(63,702,o),
(65,658,o),
(75,636,c),
(504,636,l),
(488,670,l),
(61,69,l),
(58,46,o),
(66,19,o),
(86,0,c)
);
}
);
width = 633;
}
);
unicode = 90;
},
{
color = 6;
glyphname = Z.cv04;
kernLeft = Z.alt;
kernRight = no_kerning;
lastChange = "2025-10-02 11:49:48 +0000";
layers = (
{
color = 5;
layerId = "6DBDBFCA-DF26-4695-B281-FA25C6EAD80F";
shapes = (
{
closed = 1;
nodes = (
(471,654,l),
(144,111,l),
(171,87,o),
(196,76,o),
(228,74,c),
(547,604,l)
);
},
{
closed = 1;
nodes = (
(547,670,l),
(510,674,o),
(465,686,o),
(410,706,cs),
(348,728,o),
(308,736,o),
(264,736,cs),
(186,736,o),
(114,709,o),
(65,661,c),
(71,631,o),
(88,608,o),
(115,595,c),
(159,633,o),
(199,649,o),
(251,649,cs),
(292,649,o),
(326,641,o),
(394,615,cs),
(465,588,o),
(508,578,o),
(553,578,cs),
(582,578,o),
(612,582,o),
(630,589,c),
(635,603,o),
(637,619,o),
(637,636,cs),
(637,697,o),
(614,733,o),
(575,733,cs),
(543,733,o),
(515,715,o),
(478,670,c)
);
},
{
closed = 1;
nodes = (
(233,32,o),
(293,16,cs),
(359,-2,o),
(438,-14,o),
(504,-14,cs),
(525,-14,o),
(536,-6,o),
(536,27,cs),
(536,56,o),
(527,71,o),
(510,71,cs),
(443,71,o),
(396,79,o),
(310,103,cs),
(194,136,o),
(153,144,o),
(122,144,cs),
(95,144,o),
(72,140,o),
(52,133,c),
(47,118,o),
(45,103,o),
(45,84,cs),
(45,22,o),
(67,-11,o),
(109,-11,cs),
(143,-11,o),
(180,10,o),
(222,53,c),
(136,45,l),
(164,45,o)
);
}
);
width = 611;
}
);
metricLeft = Z.isol.cv04;
metricRight = "=-26";
},
{
color = 6;
glyphname = Z.isol.cv04;
kernLeft = Z.alt;
kernRight = Z.alt;
lastChange = "2025-10-02 11:49:48 +0000";
layers = (
{
color = 5;
layerId = "6DBDBFCA-DF26-4695-B281-FA25C6EAD80F";
shapes = (
{
closed = 1;
nodes = (
(536,-14,o),
(608,13,o),
(657,61,c),
(651,91,o),
(634,114,o),
(607,127,c),
(563,89,o),
(523,73,o),
(471,73,cs),
(430,73,o),
(396,81,o),
(318,107,cs),
(236,138,o),
(184,144,o),
(119,144,cs),
(95,144,o),
(71,140,o),
(52,133,c),
(47,118,o),
(45,102,o),
(45,86,cs),
(45,25,o),
(65,-11,o),
(107,-11,cs),
(139,-11,o),
(174,4,o),
(222,53,c),
(136,45,l),
(193,45,o),
(234,40,o),
(302,16,cs),
(375,-6,o),
(415,-14,o),
(458,-14,cs)
);
},
{
closed = 1;
nodes = (
(471,654,l),
(144,111,l),
(170,88,o),
(195,76,o),
(228,74,c),
(547,604,l)
);
},
{
closed = 1;
nodes = (
(547,670,l),
(501,675,o),
(451,691,o),
(410,706,cs),
(347,728,o),
(307,736,o),
(264,736,cs),
(186,736,o),
(114,709,o),
(65,661,c),
(71,631,o),
(88,608,o),
(115,595,c),
(159,633,o),
(199,649,o),
(251,649,cs),
(292,649,o),
(326,641,o),
(394,615,cs),
(465,588,o),
(508,578,o),
(553,578,cs),
(580,578,o),
(611,582,o),
(630,589,c),
(635,604,o),
(637,620,o),
(637,636,cs),
(637,697,o),
(614,733,o),
(575,733,cs),
(539,733,o),
(511,710,o),
(478,670,c)
);
}
);
width = 682;
}
);
},
{
color = 3;
glyphname = Z.isol.ss01.cv04;
kernLeft = Z.alt;
kernRight = Z.alt;
lastChange = "2025-10-02 11:49:49 +0000";
layers = (
{
color = 5;
layerId = "6DBDBFCA-DF26-4695-B281-FA25C6EAD80F";
shapes = (
{
closed = 1;
nodes = (
(225,335,o),
(273,338,o),
(321,326,c),
(371,407,l),
(306,418,o),
(242,420,o),
(163,402,c),
(154,377,o),
(158,342,o),
(175,322,c)
);
},
{
closed = 1;
nodes = (
(384,306,o),
(456,303,o),
(544,326,c),
(549,357,o),
(545,385,o),
(529,403,c),
(473,390,o),
(417,386,o),
(361,400,c),
(311,319,l)
);
},
{
ref = Z.isol.cv04;
}
);
width = 682;
}
);
metricLeft = Z.isol.cv04;
metricRight = Z.isol.cv04;
},
{
color = 3;
glyphname = Z.ss01;
kernLeft = Z;
kernRight = Z;
lastChange = "2025-10-02 11:49:49 +0000";
layers = (
{
layerId = "6DBDBFCA-DF26-4695-B281-FA25C6EAD80F";
shapes = (
{
closed = 1;
nodes = (
(300,326,l),
(350,407,l),
(126,407,l),
(114,378,o),
(116,351,o),
(126,326,c)
);
},
{
closed = 1;
nodes = (
(538,319,l),
(551,347,o),
(552,374,o),
(538,400,c),
(350,400,l),
(300,319,l)
);
},
{
ref = Z;
}
);
width = 633;
}
);
metricLeft = Z;
metricRight = Z;
},
{
color = 3;
glyphname = Z.ss01.cv04;
kernLeft = Z.alt;
kernRight = no_kerning;
lastChange = "2025-10-02 11:49:49 +0000";
layers = (
{
color = 5;
layerId = "6DBDBFCA-DF26-4695-B281-FA25C6EAD80F";
shapes = (
{
closed = 1;
nodes = (
(215,335,o),
(263,338,o),
(311,326,c),
(361,407,l),
(296,418,o),
(232,420,o),
(153,402,c),
(144,377,o),
(148,342,o),
(165,322,c)
);
},
{
closed = 1;
nodes = (
(374,306,o),
(446,303,o),
(534,326,c),
(539,357,o),
(535,385,o),
(519,403,c),
(463,390,o),
(407,386,o),
(351,400,c),
(301,319,l)
);
},
{
pos = (-10,0);
ref = Z.cv04;
}
);
width = 601;
}
);
metricRight = Z.cv04;
},
{
color = 3;
glyphname = b.medi.cv02;
kernLeft = no_kerning;
kernRight = no_kerning;
lastChange = "2025-10-02 11:49:49 +0000";
layers = (
{
anchors = (
{
name = "#fina";
pos = (482,390);
}
);
layerId = "6DBDBFCA-DF26-4695-B281-FA25C6EAD80F";
shapes = (
{
closed = 1;
nodes = (
(295,412,o),
(383,562,o),
(383,745,cs),
(383,895,o),
(324,986,o),
(225,986,cs),
(160,986,o),
(105,947,o),
(82,883,cs),
(67,841,o),
(65,784,o),
(65,663,cs),
(65,533,l),
(95,520,o),
(123,520,o),
(153,533,c),
(153,675,ls),
(153,782,o),
(155,820,o),
(164,849,cs),
(175,884,o),
(196,903,o),
(223,903,cs),
(268,903,o),
(294,848,o),
(294,751,cs),
(294,591,o),
(224,464,o),
(104,416,c),
(147,345,l)
);
},
{
closed = 1;
nodes = (
(-23,300,o),
(64,317,o),
(116,339,c),
(86,413,l),
(16,390,o),
(-44,379,o),
(-100,379,cs),
(-127,379,ls),
(-141,379,o),
(-150,365,o),
(-150,343,cs),
(-150,311,o),
(-132,300,o),
(-83,300,cs)
);
},
{
alignment = -1;
locked = 1;
pos = (-49,0);
ref = _part.b.bottom;
}
);
width = 602;
},
{
anchors = (
{
name = "#fina";
pos = (482,390);
}
);
associatedMasterId = "6DBDBFCA-DF26-4695-B281-FA25C6EAD80F";
attr = {
coordinates = (
853,
920
);
};
layerId = "BAAE0270-D70D-4307-A2B1-88ED2C6CAEAA";
name = "13. Nov 24 at 17:42";
shapes = (
{
closed = 1;
nodes = (
(296,402,o),
(383,534,o),
(383,700,cs),
(383,838,o),
(323,920,o),
(225,920,cs),
(159,920,o),
(106,882,o),
(82,816,cs),
(68,777,o),
(65,733,o),
(65,597,cs),
(65,533,l),
(95,520,o),
(124,520,o),
(154,533,c),
(154,609,ls),
(154,720,o),
(156,753,o),
(165,782,cs),
(176,818,o),
(196,837,o),
(224,837,cs),
(268,837,o),
(294,789,o),
(294,704,cs),
(294,563,o),
(223,455,o),
(104,416,c),
(147,345,l)
);
},
{
closed = 1;
nodes = (
(-23,300,o),
(64,317,o),
(116,339,c),
(86,413,l),
(16,390,o),
(-44,379,o),
(-100,379,cs),
(-127,379,ls),
(-141,379,o),
(-150,365,o),
(-150,344,cs),
(-150,311,o),
(-133,300,o),
(-83,300,cs)
);
},
{
alignment = -1;
locked = 1;
pos = (-49,0);
ref = _part.b.bottom;
}
);
width = 607;
},
{
anchors = (
{
name = "#fina";
pos = (482,390);
}
);
associatedMasterId = "6DBDBFCA-DF26-4695-B281-FA25C6EAD80F";
attr = {
coordinates = (
986,
986
);
};
layerId = "A65C758E-B614-401D-BB81-33F2B0CE8928";
name = "11. Dec 24 at 20:21";
shapes = (
{
closed = 1;
nodes = (
(295,412,o),
(383,562,o),
(383,745,cs),
(383,895,o),
(324,986,o),
(225,986,cs),
(160,986,o),
(105,947,o),
(82,883,cs),
(67,841,o),
(65,784,o),
(65,663,cs),
(65,533,l),
(95,520,o),
(123,520,o),
(153,533,c),
(153,675,ls),
(153,782,o),
(155,820,o),
(164,849,cs),
(175,884,o),
(196,903,o),
(223,903,cs),
(268,903,o),
(294,848,o),
(294,751,cs),
(294,591,o),
(224,464,o),
(104,416,c),
(147,345,l)
);
},
{
closed = 1;
nodes = (
(-23,300,o),
(64,317,o),
(116,339,c),
(86,413,l),
(16,390,o),
(-44,379,o),
(-100,379,cs),
(-127,379,ls),
(-141,379,o),
(-150,365,o),
(-150,343,cs),
(-150,311,o),
(-132,300,o),
(-83,300,cs)
);
},
{
alignment = -1;
locked = 1;
pos = (-49,0);
ref = _part.b.bottom;
}
);
width = 602;
}
);
metricLeft = l.medi.cv02;
metricRight = b;
},
{
color = 6;
glyphname = e.init.cv04;
kernLeft = o;
kernRight = no_kerning;
lastChange = "2025-10-02 11:49:48 +0000";
layers = (
{
anchors = (
{
name = bottom;
pos = (220,0);
},
{
name = top;
pos = (234,472);
}
);
color = 5;
layerId = "6DBDBFCA-DF26-4695-B281-FA25C6EAD80F";
shapes = (
{
closed = 1;
nodes = (
(110,199,l),
(129,198,o),
(156,197,o),
(180,197,cs),
(329,197,o),
(391,235,o),
(391,327,cs),
(391,421,o),
(325,486,o),
(227,486,cs),
(111,486,o),
(35,392,o),
(35,251,cs),
(35,163,o),
(64,90,o),
(119,42,cs),
(162,4,o),
(217,-14,o),
(287,-14,cs),
(313,-14,o),
(323,-3,o),
(323,28,cs),
(323,54,o),
(312,71,o),
(293,71,cs),
(246,71,o),
(211,81,o),
(183,102,cs),
(143,133,o),
(122,185,o),
(122,252,cs),
(122,345,o),
(163,403,o),
(228,403,cs),
(277,403,o),
(304,371,o),
(304,331,cs),
(304,286,o),
(271,271,o),
(180,271,cs),
(156,271,o),
(138,272,o),
(110,273,c)
);
}
);
width = 394;
}
);
metricLeft = o.isol;
metricRight = "=3";
},
{
color = 6;
glyphname = e.isol.cv04;
kernLeft = o;
kernRight = e;
lastChange = "2025-10-02 11:49:48 +0000";
layers = (
{
anchors = (
{
name = bottom;
pos = (221,0);
},
{
name = top;
pos = (235,472);
}
);
color = 5;
layerId = "6DBDBFCA-DF26-4695-B281-FA25C6EAD80F";
shapes = (
{
closed = 1;
nodes = (
(35,85,o),
(119,-14,o),
(259,-14,cs),
(319,-14,o),
(375,4,o),
(407,34,c),
(402,66,o),
(386,91,o),
(363,102,c),
(331,80,o),
(295,71,o),
(260,71,cs),
(174,71,o),
(125,124,o),
(125,217,c),
(123,250,l),
(122,343,o),
(163,403,o),
(229,403,cs),
(274,403,o),
(305,374,o),
(305,331,cs),
(305,286,o),
(271,270,o),
(178,271,cs),
(108,272,l),
(112,198,l),
(180,197,ls),
(327,195,o),
(392,235,o),
(392,328,cs),
(392,421,o),
(325,486,o),
(228,486,cs),
(110,486,o),
(35,390,o),
(35,242,cs)
);
}
);
width = 407;
}
);
metricLeft = o.isol;
metricRight = e.isol;
},
{
color = 6;
glyphname = e.link.cv04;
kernLeft = part.e;
kernRight = no_kerning;
lastChange = "2025-10-02 11:49:48 +0000";
layers = (
{
color = 5;
layerId = "6DBDBFCA-DF26-4695-B281-FA25C6EAD80F";
shapes = (
{
closed = 1;
nodes = (
(81,272,l),
(53,272,o),
(31,259,o),
(7,222,cs),
(-17,186,l),
(-12,159,o),
(14,134,o),
(55,138,c),
(83,180,l)
);
}
);
width = 41;
}
);
},
{
color = 6;
glyphname = e.medi.cv01;
kernLeft = no_kerning;
kernRight = no_kerning;
lastChange = "2025-10-02 11:49:48 +0000";
layers = (
{
anchors = (
{
name = "#fina";
pos = (325,71);
},
{
name = bottom;
pos = (232,0);
},
{
name = top;
pos = (237,472);
}
);
layerId = "6DBDBFCA-DF26-4695-B281-FA25C6EAD80F";
shapes = (
{
closed = 1;
nodes = (
(341,-14,o),
(355,2,o),
(355,27,cs),
(355,53,o),
(342,71,o),
(325,71,cs),
(265,71,o),
(220,91,o),
(197,128,c),
(192,149,l),
(166,168,o),
(149,217,o),
(149,277,cs),
(149,350,o),
(188,403,o),
(242,403,cs),
(282,403,o),
(306,377,o),
(306,335,cs),
(306,274,o),
(259,219,o),
(162,165,c),
(208,99,l),
(328,168,o),
(393,248,o),
(393,335,cs),
(393,421,o),
(328,486,o),
(242,486,cs),
(139,486,o),
(63,395,o),
(63,274,cs),
(63,206,o),
(82,135,o),
(112,93,c),
(123,77,l),
(160,21,o),
(234,-14,o),
(320,-14,cs)
);
},
{
closed = 1;
nodes = (
(-14,-14,o),
(84,18,o),
(187,84,c),
(139,155,l),
(46,90,o),
(-27,71,o),
(-103,71,cs),
(-124,71,o),
(-138,55,o),
(-138,27,cs),
(-138,4,o),
(-125,-14,o),
(-107,-14,cs)
);
}
);
width = 426;
}
);
},
{
color = 6;
glyphname = e.medi.cv02;
kernLeft = no_kerning;
kernRight = no_kerning;
lastChange = "2025-10-02 11:49:48 +0000";
layers = (
{
anchors = (
{
name = "#fina";
pos = (298,71);
},
{
name = bottom;
pos = (232,0);
},
{
name = top;
pos = (232,512);
}
);
layerId = "6DBDBFCA-DF26-4695-B281-FA25C6EAD80F";
shapes = (
{
closed = 1;
nodes = (
(313,-14,o),
(327,2,o),
(327,27,cs),
(327,53,o),
(315,71,o),
(298,71,cs),
(194,71,o),
(127,146,o),
(127,267,c),
(127,284,l),
(127,386,o),
(176,455,o),
(248,455,cs),
(288,455,o),
(314,431,o),
(314,396,cs),
(314,344,o),
(252,312,o),
(154,312,cs),
(135,312,o),
(114,316,o),
(97,322,c),
(100,238,l),
(117,234,o),
(140,232,o),
(162,232,cs),
(307,232,o),
(401,299,o),
(401,402,cs),
(401,478,o),
(337,536,o),
(253,536,cs),
(133,536,o),
(40,430,o),
(40,294,c),
(39,267,l),
(45,92,o),
(140,-14,o),
(292,-14,cs)
);
},
{
closed = 1;
nodes = (
(-118,417,o),
(-128,422,o),
(-137,422,cs),
(-157,422,o),
(-177,397,o),
(-177,375,cs),
(-177,364,o),
(-173,355,o),
(-164,346,cs),
(-98,285,o),
(2,239,o),
(73,239,c),
(73,326,l),
(25,326,o),
(-55,362,o),
(-104,405,cs)
);
}
);
visible = 1;
width = 399;
}
);
},
{
color = 6;
glyphname = e.medi.cv03;
kernLeft = no_kerning;
kernRight = no_kerning;
lastChange = "2025-10-02 11:49:48 +0000";
layers = (
{
anchors = (
{
name = "#fina";
pos = (276,71);
},
{
name = bottom;
pos = (232,0);
},
{
name = top;
pos = (192,472);
}
);
layerId = "6DBDBFCA-DF26-4695-B281-FA25C6EAD80F";
shapes = (
{
closed = 1;
nodes = (
(292,-14,o),
(306,3,o),
(306,28,cs),
(306,56,o),
(295,71,o),
(276,71,cs),
(212,71,o),
(158,105,o),
(146,153,c),
(137,173,l),
(119,191,o),
(108,234,o),
(108,282,cs),
(108,353,o),
(147,403,o),
(202,403,cs),
(240,403,o),
(265,379,o),
(265,340,cs),
(265,300,o),
(222,259,o),
(109,187,c),
(145,116,l),
(287,196,o),
(352,266,o),
(352,338,cs),
(352,423,o),
(290,486,o),
(205,486,cs),
(97,486,o),
(21,398,o),
(21,274,cs),
(21,220,o),
(32,174,o),
(57,126,c),
(67,102,l),
(111,27,o),
(183,-14,o),
(270,-14,cs)
);
},
{
closed = 1;
nodes = (
(-142,-64,o),
(-134,-62,o),
(-124,-55,cs),
(97,88,l),
(53,163,l),
(-173,18,ls),
(-187,9,o),
(-192,2,o),
(-192,-10,cs),
(-194,-32,o),
(-172,-62,o),
(-152,-63,cs)
);
}
);
width = 375;
}
);
metricRight = e;
},
{
color = 3;
glyphname = f.init.cv04;
kernLeft = h.alt;
kernRight = no_kerning;
lastChange = "2025-10-02 11:49:49 +0000";
layers = (
{
anchors = (
{
name = top;
pos = (270,972);
}
);
color = 5;
layerId = "6DBDBFCA-DF26-4695-B281-FA25C6EAD80F";
shapes = (
{
closed = 1;
nodes = (
(146,578,o),
(175,578,o),
(205,584,c),
(205,771,ls),
(205,857,o),
(228,903,o),
(270,903,cs),
(318,903,o),
(346,841,o),
(346,736,cs),
(346,588,o),
(294,484,o),
(148,337,c),
(172,229,l),
(360,411,o),
(435,553,o),
(435,732,cs),
(435,891,o),
(373,986,o),
(270,986,cs),
(221,986,o),
(181,965,o),
(155,926,cs),
(129,887,o),
(116,830,o),
(116,750,cs),
(116,584,l)
);
},
{
closed = 1;
nodes = (
(42,169,o),
(63,150,o),
(101,144,c),
(154,206,o),
(169,224,o),
(189,254,c),
(173,287,o),
(146,310,o),
(117,314,c),
(86,268,o),
(60,232,o),
(35,203,c)
);
},
{
pos = (21,0);
ref = _part.f.bottom;
}
);
width = 432;
},
{
anchors = (
{
name = top;
pos = (270,972);
}
);
associatedMasterId = "6DBDBFCA-DF26-4695-B281-FA25C6EAD80F";
attr = {
coordinates = (
853,
920
);
};
color = 5;
layerId = "967585E5-0AA7-47C6-A60F-9D1E7F284625";
name = "13. Nov 24 at 17:16";
shapes = (
{
closed = 1;
nodes = (
(146,578,o),
(175,578,o),
(205,584,c),
(205,705,ls),
(205,791,o),
(228,837,o),
(270,837,cs),
(318,837,o),
(346,781,o),
(346,686,cs),
(346,561,o),
(290,463,o),
(148,337,c),
(172,229,l),
(357,389,o),
(435,524,o),
(435,682,cs),
(435,831,o),
(373,920,o),
(270,920,cs),
(221,920,o),
(181,899,o),
(155,860,cs),
(129,821,o),
(116,763,o),
(116,684,cs),
(116,584,l)
);
},
{
closed = 1;
nodes = (
(42,169,o),
(63,150,o),
(101,144,c),
(159,211,o),
(170,226,o),
(189,254,c),
(173,287,o),
(146,310,o),
(117,314,c),
(83,263,o),
(58,230,o),
(35,203,c)
);
},
{
pos = (21,0);
ref = _part.f.bottom;
}
);
width = 432;
},
{
anchors = (
{
name = top;
pos = (270,972);
}
);
associatedMasterId = "6DBDBFCA-DF26-4695-B281-FA25C6EAD80F";
attr = {
coordinates = (
986,
986
);
};
color = 5;
layerId = "03F96136-C726-46AF-BB1E-244B8714BDFF";
name = "11. Dec 24 at 20:23";
shapes = (
{
closed = 1;
nodes = (
(146,578,o),
(175,578,o),
(205,584,c),
(205,771,ls),
(205,857,o),
(228,903,o),
(270,903,cs),
(318,903,o),
(346,841,o),
(346,736,cs),
(346,588,o),
(294,484,o),
(148,337,c),
(172,229,l),
(360,411,o),
(435,553,o),
(435,732,cs),
(435,891,o),
(373,986,o),
(270,986,cs),
(221,986,o),
(181,965,o),
(155,926,cs),
(129,887,o),
(116,830,o),
(116,750,cs),
(116,584,l)
);
},
{
closed = 1;
nodes = (
(42,169,o),
(63,150,o),
(101,144,c),
(154,206,o),
(169,224,o),
(189,254,c),
(173,287,o),
(146,310,o),
(117,314,c),
(86,268,o),
(60,232,o),
(35,203,c)
);
},
{
pos = (21,0);
ref = _part.f.bottom;
}
);
width = 432;
}
);
metricRight = f;
},
{
color = 3;
glyphname = f.medi.cv01;
kernLeft = no_kerning;
kernRight = no_kerning;
lastChange = "2025-10-02 11:49:49 +0000";
layers = (
{
layerId = "6DBDBFCA-DF26-4695-B281-FA25C6EAD80F";
shapes = (
{
closed = 1;
nodes = (
(334,238,o),
(428,462,o),
(428,718,c),
(409,725,o),
(368,725,o),
(339,719,c),
(339,522,o),
(271,322,o),
(171,229,c),
(194,128,l)
);
},
{
closed = 1;
nodes = (
(-7,-14,o),
(95,40,o),
(148,101,c),
(127,198,l),
(63,121,o),
(-23,71,o),
(-101,71,cs),
(-122,71,o),
(-136,55,o),
(-136,29,cs),
(-136,2,o),
(-127,-14,o),
(-106,-14,cs)
);
},
{
pos = (14,0);
ref = _part.f;
}
);
width = 425;
},
{
associatedMasterId = "6DBDBFCA-DF26-4695-B281-FA25C6EAD80F";
attr = {
coordinates = (
853,
920
);
};
layerId = "B6C5C094-F9F7-4D7B-9319-C03542CD6965";
name = "13. Nov 24 at 16:57";
shapes = (
{
closed = 1;
nodes = (
(334,228,o),
(428,430,o),
(428,662,c),
(409,669,o),
(368,669,o),
(339,663,c),
(339,489,o),
(271,311,o),
(171,229,c),
(194,128,l)
);
},
{
closed = 1;
nodes = (
(-7,-14,o),
(95,40,o),
(148,101,c),
(127,198,l),
(63,121,o),
(-23,71,o),
(-101,71,cs),
(-122,71,o),
(-136,55,o),
(-136,29,cs),
(-136,2,o),
(-127,-14,o),
(-106,-14,cs)
);
},
{
pos = (14,0);
ref = _part.f;
}
);
width = 425;
},
{
associatedMasterId = "6DBDBFCA-DF26-4695-B281-FA25C6EAD80F";
attr = {
coordinates = (
986,
986
);
};
layerId = "185F6A73-69EF-4450-A421-A428D62F5396";
name = "11. Dec 24 at 20:23";
shapes = (
{
closed = 1;
nodes = (
(334,238,o),
(428,462,o),
(428,718,c),
(409,725,o),
(368,725,o),
(339,719,c),
(339,522,o),
(271,322,o),
(171,229,c),
(194,128,l)
);
},
{
closed = 1;
nodes = (
(-7,-14,o),
(95,40,o),
(148,101,c),
(127,198,l),
(63,121,o),
(-23,71,o),
(-101,71,cs),
(-122,71,o),
(-136,55,o),
(-136,29,cs),
(-136,2,o),
(-127,-14,o),
(-106,-14,cs)
);
},
{
pos = (14,0);
ref = _part.f;
}
);
width = 425;
}
);
metricRight = f;
},
{
color = 3;
glyphname = f.medi.cv02;
kernLeft = no_kerning;
kernRight = no_kerning;
lastChange = "2025-10-02 11:49:49 +0000";
layers = (
{
anchors = (
{
name = top;
pos = (221,972);
}
);
layerId = "6DBDBFCA-DF26-4695-B281-FA25C6EAD80F";
shapes = (
{
closed = 1;
nodes = (
(93,571,o),
(122,571,o),
(152,584,c),
(152,771,ls),
(152,860,o),
(174,903,o),
(220,903,cs),
(268,903,o),
(293,846,o),
(293,739,cs),
(293,579,o),
(219,451,o),
(104,416,c),
(143,345,l),
(292,402,o),
(382,551,o),
(382,738,cs),
(382,897,o),
(324,986,o),
(220,986,cs),
(168,986,o),
(128,966,o),
(101,926,cs),
(75,887,o),
(63,830,o),
(63,750,cs),
(63,584,l)
);
},
{
alignment = -1;
pos = (-32,0);
ref = _part.f.bottom;
},
{
closed = 1;
nodes = (
(86,413,l),
(16,390,o),
(-44,379,o),
(-100,379,cs),
(-127,379,ls),
(-141,379,o),
(-150,365,o),
(-150,344,cs),
(-150,311,o),
(-133,300,o),
(-83,300,cs),
(-23,300,o),
(64,317,o),
(116,339,c)
);
}
);
width = 379;
},
{
anchors = (
{
name = top;
pos = (220,906);
}
);
associatedMasterId = "6DBDBFCA-DF26-4695-B281-FA25C6EAD80F";
attr = {
coordinates = (
853,
920
);
};
layerId = "6205BAEF-76F8-409F-B529-4D1FDAA40526";
name = "13. Nov 24 at 17:09";
shapes = (
{
closed = 1;
nodes = (
(93,571,o),
(122,571,o),
(152,584,c),
(152,705,ls),
(152,794,o),
(174,837,o),
(220,837,cs),
(268,837,o),
(293,787,o),
(293,692,cs),
(293,555,o),
(219,446,o),
(104,416,c),
(143,345,l),
(292,395,o),
(382,526,o),
(382,691,cs),
(382,838,o),
(324,920,o),
(220,920,cs),
(168,920,o),
(129,900,o),
(102,860,cs),
(76,821,o),
(63,764,o),
(63,684,cs),
(63,584,l)
);
},
{
alignment = -1;
pos = (-32,0);
ref = _part.f.bottom;
},
{
closed = 1;
nodes = (
(86,413,l),
(16,390,o),
(-44,379,o),
(-100,379,cs),
(-127,379,ls),
(-141,379,o),
(-150,365,o),
(-150,344,cs),
(-150,311,o),
(-133,300,o),
(-83,300,cs),
(-23,300,o),
(64,317,o),
(116,339,c)
);
}
);
width = 379;
},
{
anchors = (
{
name = top;
pos = (221,972);
}
);
associatedMasterId = "6DBDBFCA-DF26-4695-B281-FA25C6EAD80F";
attr = {
coordinates = (
986,
986
);
};
layerId = "750122CE-88AF-4F12-8F22-9229A98BB2C3";
name = "11. Dec 24 at 20:23";
shapes = (
{
closed = 1;
nodes = (
(93,571,o),
(122,571,o),
(152,584,c),
(152,771,ls),
(152,860,o),
(174,903,o),
(220,903,cs),
(268,903,o),
(293,846,o),
(293,739,cs),
(293,579,o),
(219,451,o),
(104,416,c),
(143,345,l),
(292,402,o),
(382,551,o),
(382,738,cs),
(382,897,o),
(324,986,o),
(220,986,cs),
(168,986,o),
(128,966,o),
(101,926,cs),
(75,887,o),
(63,830,o),
(63,750,cs),
(63,584,l)
);
},
{
alignment = -1;
pos = (-32,0);
ref = _part.f.bottom;
},
{
closed = 1;
nodes = (
(86,413,l),
(16,390,o),
(-44,379,o),
(-100,379,cs),
(-127,379,ls),
(-141,379,o),
(-150,365,o),
(-150,344,cs),
(-150,311,o),
(-133,300,o),
(-83,300,cs),
(-23,300,o),
(64,317,o),
(116,339,c)
);
}
);
width = 379;
}
);
metricLeft = l.medi.cv02;
metricRight = f;
},
{
color = 3;
glyphname = f.medi.cv03;
kernLeft = no_kerning;
kernRight = no_kerning;
lastChange = "2025-10-02 11:49:49 +0000";
layers = (
{
anchors = (
{
name = top;
pos = (206,972);
}
);
layerId = "6DBDBFCA-DF26-4695-B281-FA25C6EAD80F";
shapes = (
{
closed = 1;
nodes = (
(244,279,o),
(367,466,o),
(367,725,cs),
(367,890,o),
(309,986,o),
(205,986,cs),
(147,986,o),
(111,962,o),
(87,926,cs),
(58,883,o),
(48,822,o),
(48,750,cs),
(48,584,l),
(78,571,o),
(107,571,o),
(137,584,c),
(137,771,ls),
(137,861,o),
(160,903,o),
(205,903,cs),
(253,903,o),
(278,841,o),
(278,725,cs),
(278,542,o),
(189,363,o),
(102,281,c),
(121,169,l)
);
},
{
closed = 1;
nodes = (
(-117,-50,o),
(-95,-31,o),
(-70,-9,cs),
(-7,47,o),
(77,121,o),
(101,181,c),
(83,287,l),
(49,218,o),
(-36,140,o),
(-109,75,cs),
(-136,50,o),
(-162,27,o),
(-182,7,cs),
(-197,-7,o),
(-205,-18,o),
(-205,-31,cs),
(-205,-51,o),
(-177,-79,o),
(-154,-80,cs),
(-146,-80,o),
(-140,-74,o),
(-130,-64,cs)
);
},
{
alignment = -1;
pos = (-47,0);
ref = _part.f.bottom;
}
);
width = 364;
},
{
anchors = (
{
name = top;
pos = (206,906);
}
);
associatedMasterId = "6DBDBFCA-DF26-4695-B281-FA25C6EAD80F";
attr = {
coordinates = (
853,
920
);
};
layerId = "7FC51DA5-4AD4-4AF0-AAF5-67E58104E22D";
name = "13. Nov 24 at 17:13";
shapes = (
{
closed = 1;
nodes = (
(244,283,o),
(367,436,o),
(367,669,cs),
(367,828,o),
(309,920,o),
(205,920,cs),
(147,920,o),
(110,896,o),
(86,860,cs),
(57,817,o),
(48,756,o),
(48,684,cs),
(48,584,l),
(78,571,o),
(107,571,o),
(137,584,c),
(137,705,ls),
(137,795,o),
(160,837,o),
(205,837,cs),
(253,837,o),
(278,779,o),
(278,669,cs),
(278,509,o),
(189,352,o),
(102,281,c),
(121,169,l)
);
},
{
closed = 1;
nodes = (
(-117,-50,o),
(-95,-31,o),
(-70,-9,cs),
(-7,47,o),
(77,121,o),
(101,181,c),
(83,287,l),
(49,218,o),
(-36,140,o),
(-109,75,cs),
(-136,50,o),
(-162,27,o),
(-182,7,cs),
(-197,-7,o),
(-205,-18,o),
(-205,-31,cs),
(-205,-51,o),
(-177,-79,o),
(-154,-80,cs),
(-146,-80,o),
(-140,-74,o),
(-130,-64,cs)
);
},
{
alignment = -1;
pos = (-47,0);
ref = _part.f.bottom;
}
);
width = 364;
},
{
anchors = (
{
name = top;
pos = (206,972);
}
);
associatedMasterId = "6DBDBFCA-DF26-4695-B281-FA25C6EAD80F";
attr = {
coordinates = (
986,
986
);
};
layerId = "D85C6410-1065-43F0-BCF0-EB34EBF91E36";
name = "11. Dec 24 at 20:23";
shapes = (
{
closed = 1;
nodes = (
(244,279,o),
(367,466,o),
(367,725,cs),
(367,890,o),
(309,986,o),
(205,986,cs),
(147,986,o),
(111,962,o),
(87,926,cs),
(58,883,o),
(48,822,o),
(48,750,cs),
(48,584,l),
(78,571,o),
(107,571,o),
(137,584,c),
(137,771,ls),
(137,861,o),
(160,903,o),
(205,903,cs),
(253,903,o),
(278,841,o),
(278,725,cs),
(278,542,o),
(189,363,o),
(102,281,c),
(121,169,l)
);
},
{
closed = 1;
nodes = (
(-117,-50,o),
(-95,-31,o),
(-70,-9,cs),
(-7,47,o),
(77,121,o),
(101,181,c),
(83,287,l),
(49,218,o),
(-36,140,o),
(-109,75,cs),
(-136,50,o),
(-162,27,o),
(-182,7,cs),
(-197,-7,o),
(-205,-18,o),
(-205,-31,cs),
(-205,-51,o),
(-177,-79,o),
(-154,-80,cs),
(-146,-80,o),
(-140,-74,o),
(-130,-64,cs)
);
},
{
alignment = -1;
pos = (-47,0);
ref = _part.f.bottom;
}
);
width = 364;
}
);
metricRight = f;
},
{
color = 3;
glyphname = h.isol.cv04;
kernLeft = h.alt;
kernRight = n;
lastChange = "2025-10-02 11:49:49 +0000";
layers = (
{
color = 5;
layerId = "6DBDBFCA-DF26-4695-B281-FA25C6EAD80F";
shapes = (
{
pos = (-52,0);
ref = _part.h;
},
{
pos = (-51,0);
ref = _part.h.out;
},
{
closed = 1;
nodes = (
(327,428,l),
(404,548,o),
(440,672,o),
(440,787,c),
(410,794,o),
(377,794,o),
(351,788,c),
(351,663,o),
(296,518,o),
(194,374,c)
);
},
{
closed = 1;
nodes = (
(43,164,o),
(69,149,o),
(102,144,c),
(134,181,o),
(162,222,o),
(190,264,c),
(175,296,o),
(148,310,o),
(117,314,c),
(91,275,o),
(64,237,o),
(35,203,c)
);
},
{
pos = (384,0);
ref = _part.i.fin;
}
);
width = 672;
}
);
metricRight = n.fina;
},
{
color = 3;
glyphname = jdotless.medi.cv02;
kernLeft = no_kerning;
kernRight = no_kerning;
lastChange = "2025-10-02 11:49:49 +0000";
layers = (
{
anchors = (
{
name = top;
pos = (190,472);
}
);
layerId = "6DBDBFCA-DF26-4695-B281-FA25C6EAD80F";
shapes = (
{
pos = (-299,0);
ref = _part.boucle.bas;
},
{
closed = 1;
nodes = (
(-144,403,o),
(-158,387,o),
(-158,362,cs),
(-158,335,o),
(-144,318,o),
(-124,318,cs),
(-19,318,o),
(100,348,o),
(165,391,c),
(143,430,l),
(143,-9,l),
(234,-9,l),
(234,463,l),
(211,480,o),
(182,486,o),
(143,483,c),
(88,434,o),
(-19,403,o),
(-124,403,cs)
);
}
);
width = 362;
}
);
},
{
color = 3;
glyphname = jdotless.medi.cv03;
kernLeft = no_kerning;
kernRight = no_kerning;
lastChange = "2025-10-02 11:49:49 +0000";
layers = (
{
anchors = (
{
name = top;
pos = (230,472);
}
);
layerId = "6DBDBFCA-DF26-4695-B281-FA25C6EAD80F";
shapes = (
{
pos = (-257,0);
ref = _part.boucle.bas;
},
{
closed = 1;
nodes = (
(35,83,o),
(150,231,o),
(221,355,c),
(185,349,l),
(185,-33,l),
(276,-34,l),
(276,470,l),
(258,481,o),
(217,484,o),
(191,479,c),
(75,275,o),
(-11,166,o),
(-174,12,cs),
(-191,-4,o),
(-198,-14,o),
(-198,-24,cs),
(-198,-44,o),
(-176,-72,o),
(-149,-72,cs),
(-140,-72,o),
(-134,-68,o),
(-120,-56,cs)
);
}
);
width = 404;
}
);
},
{
color = 3;
glyphname = l.fina.cv02.cv06;
kernLeft = no_kerning;
kernRight = no_kerning;
lastChange = "2025-10-02 11:49:49 +0000";
layers = (
{
anchors = (
{
name = right;
pos = (367,307);
},
{
name = top;
pos = (223,972);
}
);
color = 5;
layerId = "6DBDBFCA-DF26-4695-B281-FA25C6EAD80F";
name = Regular;
shapes = (
{
closed = 1;
nodes = (
(351,-14,o),
(388,-2,o),
(419,24,c),
(416,51,o),
(402,77,o),
(383,92,c),
(365,80,o),
(341,72,o),
(320,72,cs),
(266,72,o),
(221,103,o),
(191,170,cs),
(143,276,o),
(132,436,o),
(132,615,c),
(102,618,o),
(71,612,o),
(41,600,c),
(41,434,o),
(50,248,o),
(116,118,cs),
(158,34,o),
(228,-14,o),
(313,-14,cs)
);
},
{
alignment = -1;
pos = (15,0);
ref = _part.l.in.cv02.alt;
}
);
width = 445;
},
{
anchors = (
{
name = right;
pos = (367,307);
},
{
name = top;
pos = (223,906);
}
);
associatedMasterId = "6DBDBFCA-DF26-4695-B281-FA25C6EAD80F";
attr = {
coordinates = (
853,
920
);
};
color = 5;
layerId = "4E6C0621-0797-48DF-A94A-ABB359B013F8";
name = "12. Nov 24 at 21:45";
shapes = (
{
closed = 1;
nodes = (
(351,-14,o),
(388,-2,o),
(419,24,c),
(416,51,o),
(402,77,o),
(383,92,c),
(365,80,o),
(341,72,o),
(320,72,cs),
(266,72,o),
(221,103,o),
(191,170,cs),
(149,263,o),
(132,394,o),
(132,545,c),
(102,548,o),
(71,542,o),
(41,530,c),
(41,388,o),
(57,233,o),
(116,118,cs),
(158,34,o),
(228,-14,o),
(313,-14,cs)
);
},
{
alignment = -1;
pos = (15,0);
ref = _part.l.in.cv02.alt;
}
);
width = 445;
},
{
anchors = (
{
name = right;
pos = (367,307);
},
{
name = top;
pos = (223,972);
}
);
associatedMasterId = "6DBDBFCA-DF26-4695-B281-FA25C6EAD80F";
attr = {
coordinates = (
986,
986
);
};
color = 5;
layerId = "12876D19-0B68-4470-BF32-89F5F9329C96";
name = "11. Dec 24 at 20:33";
shapes = (
{
closed = 1;
nodes = (
(351,-14,o),
(388,-2,o),
(419,24,c),
(416,51,o),
(402,77,o),
(383,92,c),
(365,80,o),
(341,72,o),
(320,72,cs),
(266,72,o),
(221,103,o),
(191,170,cs),
(143,276,o),
(132,436,o),
(132,615,c),
(102,618,o),
(71,612,o),
(41,600,c),
(41,434,o),
(50,248,o),
(116,118,cs),
(158,34,o),
(228,-14,o),
(313,-14,cs)
);
},
{
alignment = -1;
pos = (15,0);
ref = _part.l.in.cv02.alt;
}
);
width = 445;
}
);
metricLeft = l.medi.cv02.cv06;
metricRight = l.fina;
},
{
color = 3;
glyphname = l.init.cv04;
kernLeft = h.alt;
kernRight = no_kerning;
lastChange = "2025-10-02 11:49:49 +0000";
layers = (
{
anchors = (
{
name = right;
pos = (409,307);
}
);
color = 5;
layerId = "6DBDBFCA-DF26-4695-B281-FA25C6EAD80F";
shapes = (
{
closed = 1;
nodes = (
(343,380,o),
(430,559,o),
(430,735,cs),
(430,898,o),
(369,986,o),
(258,986,cs),
(151,986,o),
(92,905,o),
(92,758,cs),
(92,537,l),
(115,529,o),
(160,526,o),
(181,532,c),
(181,777,ls),
(181,855,o),
(209,900,o),
(259,900,cs),
(313,900,o),
(341,846,o),
(341,739,cs),
(341,587,o),
(265,429,o),
(128,303,c),
(178,228,l)
);
},
{
closed = 1;
nodes = (
(116,160,o),
(130,178,o),
(158,218,c),
(117,314,l),
(86,267,o),
(60,233,o),
(35,203,c),
(41,171,o),
(67,148,o),
(101,144,c)
);
},
{
alignment = -1;
pos = (-25,0);
ref = _part.l.out;
}
);
width = 415;
},
{
anchors = (
{
name = right;
pos = (441,307);
}
);
associatedMasterId = "6DBDBFCA-DF26-4695-B281-FA25C6EAD80F";
attr = {
coordinates = (
853,
920
);
};
layerId = "EEAF9382-1FA3-444C-87EB-BE46CB750923";
name = "28. Nov 24 at 17:27";
shapes = (
{
closed = 1;
nodes = (
(343,366,o),
(430,529,o),
(430,689,cs),
(430,839,o),
(369,920,o),
(258,920,cs),
(151,920,o),
(92,839,o),
(92,692,cs),
(92,537,l),
(115,529,o),
(160,526,o),
(181,532,c),
(181,711,ls),
(181,789,o),
(209,834,o),
(259,834,cs),
(313,834,o),
(341,787,o),
(341,693,cs),
(341,557,o),
(265,416,o),
(128,303,c),
(178,228,l)
);
},
{
closed = 1;
nodes = (
(116,160,o),
(130,178,o),
(158,218,c),
(117,314,l),
(86,267,o),
(60,233,o),
(35,203,c),
(41,171,o),
(67,148,o),
(101,144,c)
);
},
{
alignment = -1;
pos = (-25,0);
ref = _part.l.out;
}
);
width = 415;
},
{
anchors = (
{
name = right;
pos = (441,307);
}
);
associatedMasterId = "6DBDBFCA-DF26-4695-B281-FA25C6EAD80F";
attr = {
coordinates = (
986,
986
);
};
layerId = "5A0CCC62-60EA-4480-9A2E-3C89BF686E01";
name = "11. Dec 24 at 20:34";
shapes = (
{
closed = 1;
nodes = (
(343,380,o),
(430,559,o),
(430,735,cs),
(430,898,o),
(369,986,o),
(258,986,cs),
(151,986,o),
(92,905,o),
(92,758,cs),
(92,537,l),
(115,529,o),
(160,526,o),
(181,532,c),
(181,777,ls),
(181,855,o),
(209,900,o),
(259,900,cs),
(313,900,o),
(341,846,o),
(341,739,cs),
(341,587,o),
(265,429,o),
(128,303,c),
(178,228,l)
);
},
{
closed = 1;
nodes = (
(116,160,o),
(130,178,o),
(158,218,c),
(117,314,l),
(86,267,o),
(60,233,o),
(35,203,c),
(41,171,o),
(67,148,o),
(101,144,c)
);
},
{
alignment = -1;
pos = (-25,0);
ref = _part.l.out;
}
);
visible = 1;
width = 415;
}
);
metricLeft = "=35";
},
{
color = 6;
glyphname = l.init.cv06;
kernLeft = h.alt;
kernRight = no_kerning;
lastChange = "2025-10-02 11:49:48 +0000";
layers = (
{
anchors = (
{
name = right;
pos = (397,307);
},
{
name = top;
pos = (278,906);
}
);
associatedMasterId = "6DBDBFCA-DF26-4695-B281-FA25C6EAD80F";
attr = {
coordinates = (
853,
920
);
};
color = 5;
layerId = "FA328AF7-8AEE-401C-B4D6-340902F7779B";
name = "12. Nov 24 at 22:04";
shapes = (
{
closed = 1;
nodes = (
(403,-14,o),
(416,-7,o),
(416,26,cs),
(416,54,o),
(405,72,o),
(386,72,cs),
(323,72,o),
(271,111,o),
(239,183,cs),
(208,252,o),
(194,349,o),
(194,493,cs),
(194,570,ls),
(194,682,o),
(201,744,o),
(220,786,cs),
(234,817,o),
(255,834,o),
(280,834,cs),
(327,834,o),
(355,782,o),
(355,695,cs),
(355,555,o),
(287,433,o),
(157,338,c),
(181,237,l),
(350,365,o),
(445,530,o),
(445,698,cs),
(445,836,o),
(384,920,o),
(282,920,cs),
(226,920,o),
(181,894,o),
(151,844,cs),
(118,790,o),
(102,706,o),
(102,592,cs),
(102,505,ls),
(102,329,o),
(121,210,o),
(162,129,cs),
(209,37,o),
(285,-14,o),
(379,-14,cs)
);
},
{
closed = 1;
nodes = (
(112,154,o),
(149,201,o),
(190,264,c),
(177,292,o),
(152,309,o),
(117,314,c),
(74,250,o),
(44,211,o),
(14,180,c),
(19,148,o),
(39,126,o),
(74,114,c)
);
}
);
width = 387;
},
{
anchors = (
{
name = right;
pos = (397,307);
},
{
name = top;
pos = (278,972);
}
);
associatedMasterId = "6DBDBFCA-DF26-4695-B281-FA25C6EAD80F";
attr = {
coordinates = (
986,
986
);
};
color = 5;
layerId = "1EDCBB90-3906-417E-BEC5-1D290516D140";
name = "11. Dec 24 at 20:34";
shapes = (
{
closed = 1;
nodes = (
(403,-14,o),
(416,-7,o),
(416,26,cs),
(416,54,o),
(405,72,o),
(386,72,cs),
(323,72,o),
(271,111,o),
(239,183,cs),
(208,252,o),
(194,350,o),
(194,493,cs),
(194,606,ls),
(194,745,o),
(201,809,o),
(220,852,cs),
(234,884,o),
(255,900,o),
(280,900,cs),
(326,900,o),
(355,840,o),
(355,743,cs),
(355,590,o),
(284,445,o),
(157,338,c),
(181,237,l),
(359,395,o),
(445,559,o),
(445,741,cs),
(445,894,o),
(384,986,o),
(282,986,cs),
(226,986,o),
(181,960,o),
(151,910,cs),
(117,854,o),
(102,768,o),
(102,628,cs),
(102,505,ls),
(102,327,o),
(120,214,o),
(162,130,cs),
(208,37,o),
(284,-14,o),
(379,-14,cs)
);
},
{
closed = 1;
nodes = (
(109,151,o),
(145,196,o),
(190,264,c),
(177,292,o),
(153,309,o),
(117,314,c),
(74,250,o),
(44,211,o),
(14,180,c),
(19,148,o),
(39,126,o),
(74,114,c)
);
}
);
width = 387;
},
{
anchors = (
{
name = right;
pos = (397,307);
},
{
name = top;
pos = (278,972);
}
);
background = {
shapes = (
{
ref = l.isol.cv06;
}
);
};
color = 5;
layerId = "6DBDBFCA-DF26-4695-B281-FA25C6EAD80F";
name = Regular;
shapes = (
{
closed = 1;
nodes = (
(403,-14,o),
(416,-7,o),
(416,26,cs),
(416,54,o),
(405,72,o),
(386,72,cs),
(323,72,o),
(271,111,o),
(239,183,cs),
(208,252,o),
(194,350,o),
(194,493,cs),
(194,606,ls),
(194,745,o),
(201,809,o),
(220,852,cs),
(234,884,o),
(255,900,o),
(280,900,cs),
(326,900,o),
(355,840,o),
(355,743,cs),
(355,590,o),
(284,445,o),
(157,338,c),
(181,237,l),
(359,395,o),
(445,559,o),
(445,741,cs),
(445,894,o),
(384,986,o),
(282,986,cs),
(226,986,o),
(181,960,o),
(151,910,cs),
(117,854,o),
(102,768,o),
(102,628,cs),
(102,505,ls),
(102,327,o),
(120,214,o),
(162,130,cs),
(208,37,o),
(284,-14,o),
(379,-14,cs)
);
},
{
closed = 1;
nodes = (
(109,151,o),
(145,196,o),
(190,264,c),
(177,292,o),
(153,309,o),
(117,314,c),
(74,250,o),
(44,211,o),
(14,180,c),
(19,148,o),
(39,126,o),
(74,114,c)
);
}
);
width = 387;
}
);
},
{
color = 3;
glyphname = l.isol.cv04;
kernLeft = h.alt;
kernRight = l;
lastChange = "2025-10-02 11:49:49 +0000";
layers = (
{
anchors = (
{
name = right;
pos = (423,307);
},
{
name = top;
pos = (263,972);
}
);
background = {
shapes = (
{
ref = l.isol.cv06;
}
);
};
color = 5;
layerId = "6DBDBFCA-DF26-4695-B281-FA25C6EAD80F";
shapes = (
{
alignment = -1;
pos = (-25,0);
ref = _part.l.fin;
},
{
closed = 1;
nodes = (
(343,380,o),
(430,559,o),
(430,735,cs),
(430,898,o),
(369,986,o),
(258,986,cs),
(151,986,o),
(92,905,o),
(92,758,cs),
(92,537,l),
(115,529,o),
(160,526,o),
(181,532,c),
(181,777,ls),
(181,855,o),
(209,900,o),
(259,900,cs),
(313,900,o),
(341,846,o),
(341,739,cs),
(341,587,o),
(265,429,o),
(128,303,c),
(178,228,l)
);
},
{
closed = 1;
nodes = (
(116,160,o),
(130,178,o),
(158,218,c),
(117,314,l),
(86,267,o),
(60,233,o),
(35,203,c),
(41,171,o),
(67,148,o),
(101,144,c)
);
}
);
width = 460;
},
{
anchors = (
{
name = right;
pos = (423,307);
},
{
name = top;
pos = (263,906);
}
);
associatedMasterId = "6DBDBFCA-DF26-4695-B281-FA25C6EAD80F";
attr = {
coordinates = (
853,
920
);
};
layerId = "30AA8052-5C2A-442C-8590-3B878E331A3E";
name = "28. Nov 24 at 17:28";
shapes = (
{
alignment = -1;
pos = (-25,0);
ref = _part.l.fin;
},
{
closed = 1;
nodes = (
(343,366,o),
(430,529,o),
(430,689,cs),
(430,839,o),
(369,920,o),
(258,920,cs),
(151,920,o),
(92,839,o),
(92,692,cs),
(92,537,l),
(115,529,o),
(160,526,o),
(181,532,c),
(181,711,ls),
(181,789,o),
(209,834,o),
(259,834,cs),
(313,834,o),
(341,787,o),
(341,693,cs),
(341,557,o),
(265,416,o),
(128,303,c),
(178,228,l)
);
},
{
closed = 1;
nodes = (
(116,160,o),
(130,178,o),
(158,218,c),
(117,314,l),
(86,267,o),
(60,233,o),
(35,203,c),
(41,171,o),
(67,148,o),
(101,144,c)
);
}
);
width = 460;
},
{
anchors = (
{
name = right;
pos = (423,307);
},
{
name = top;
pos = (263,972);
}
);
associatedMasterId = "6DBDBFCA-DF26-4695-B281-FA25C6EAD80F";
attr = {
coordinates = (
986,
986
);
};
layerId = "EDEB4618-485E-4F7D-B97F-E1255DA18F87";
name = "11. Dec 24 at 20:35";
shapes = (
{
alignment = -1;
locked = 1;
pos = (-25,0);
ref = _part.l.fin;
},
{
closed = 1;
nodes = (
(343,380,o),
(430,559,o),
(430,735,cs),
(430,898,o),
(369,986,o),
(258,986,cs),
(151,986,o),
(92,905,o),
(92,758,cs),
(92,537,l),
(115,529,o),
(160,526,o),
(181,532,c),
(181,777,ls),
(181,855,o),
(209,900,o),
(259,900,cs),
(313,900,o),
(341,846,o),
(341,739,cs),
(341,587,o),
(265,429,o),
(128,303,c),
(178,228,l)
);
},
{
closed = 1;
nodes = (
(116,160,o),
(130,178,o),
(158,218,c),
(117,314,l),
(86,267,o),
(60,233,o),
(35,203,c),
(41,171,o),
(67,148,o),
(101,144,c)
);
}
);
width = 460;
}
);
metricLeft = "=35";
},
{
color = 6;
glyphname = l.isol.cv06;
kernLeft = h.alt;
kernRight = l;
lastChange = "2025-10-02 11:49:48 +0000";
layers = (
{
anchors = (
{
name = right;
pos = (418,307);
},
{
name = top;
pos = (277,972);
}
);
color = 5;
layerId = "6DBDBFCA-DF26-4695-B281-FA25C6EAD80F";
shapes = (
{
closed = 1;
nodes = (
(363,-14,o),
(421,17,o),
(452,68,c),
(448,95,o),
(423,119,o),
(395,122,c),
(370,89,o),
(339,72,o),
(307,72,cs),
(250,72,o),
(216,122,o),
(202,222,cs),
(195,272,o),
(193,334,o),
(193,472,cs),
(193,593,ls),
(193,740,o),
(200,812,o),
(220,854,cs),
(234,884,o),
(254,900,o),
(279,900,cs),
(327,900,o),
(355,842,o),
(355,744,cs),
(355,589,o),
(287,449,o),
(157,338,c),
(181,237,l),
(359,395,o),
(445,559,o),
(445,741,cs),
(445,895,o),
(384,986,o),
(280,986,cs),
(226,986,o),
(183,963,o),
(154,917,cs),
(117,859,o),
(102,772,o),
(102,609,cs),
(102,466,ls),
(102,313,o),
(112,204,o),
(134,131,cs),
(164,33,o),
(216,-14,o),
(298,-14,cs)
);
},
{
closed = 1;
nodes = (
(114,156,o),
(151,204,o),
(190,264,c),
(177,292,o),
(152,309,o),
(117,314,c),
(74,250,o),
(44,211,o),
(14,180,c),
(19,148,o),
(39,126,o),
(74,114,c)
);
}
);
width = 478;
},
{
anchors = (
{
name = right;
pos = (418,307);
},
{
name = top;
pos = (277,906);
}
);
associatedMasterId = "6DBDBFCA-DF26-4695-B281-FA25C6EAD80F";
attr = {
coordinates = (
853,
920
);
};
color = 5;
layerId = "9E04B8C4-D089-4A02-A8E9-81072383DC7D";
name = "12. Nov 24 at 21:32";
shapes = (
{
closed = 1;
nodes = (
(363,-14,o),
(421,17,o),
(452,68,c),
(448,95,o),
(423,119,o),
(395,122,c),
(370,89,o),
(339,72,o),
(307,72,cs),
(250,72,o),
(216,122,o),
(202,222,cs),
(195,272,o),
(193,334,o),
(193,472,cs),
(193,527,ls),
(193,674,o),
(200,746,o),
(220,788,cs),
(234,819,o),
(254,834,o),
(280,834,cs),
(326,834,o),
(355,779,o),
(355,691,cs),
(355,555,o),
(282,425,o),
(157,338,c),
(181,237,l),
(361,379,o),
(445,523,o),
(445,688,cs),
(445,833,o),
(383,920,o),
(280,920,cs),
(226,920,o),
(182,895,o),
(153,850,cs),
(117,794,o),
(102,703,o),
(102,543,cs),
(102,466,ls),
(102,313,o),
(112,204,o),
(134,131,cs),
(164,33,o),
(216,-14,o),
(298,-14,cs)
);
},
{
closed = 1;
nodes = (
(114,156,o),
(151,204,o),
(190,264,c),
(177,292,o),
(152,309,o),
(117,314,c),
(74,250,o),
(44,211,o),
(14,180,c),
(19,148,o),
(39,126,o),
(74,114,c)
);
}
);
width = 478;
},
{
anchors = (
{
name = right;
pos = (418,307);
},
{
name = top;
pos = (277,972);
}
);
associatedMasterId = "6DBDBFCA-DF26-4695-B281-FA25C6EAD80F";
attr = {
coordinates = (
986,
986
);
};
color = 5;
layerId = "298EDFB9-3F9B-4531-9C86-94B497B02823";
name = "11. Dec 24 at 20:35";
shapes = (
{
closed = 1;
nodes = (
(363,-14,o),
(421,17,o),
(452,68,c),
(448,95,o),
(423,119,o),
(395,122,c),
(370,89,o),
(339,72,o),
(307,72,cs),
(250,72,o),
(216,122,o),
(202,222,cs),
(195,272,o),
(193,334,o),
(193,472,cs),
(193,593,ls),
(193,740,o),
(200,812,o),
(220,854,cs),
(234,884,o),
(254,900,o),
(279,900,cs),
(327,900,o),
(355,842,o),
(355,744,cs),
(355,589,o),
(287,449,o),
(157,338,c),
(181,237,l),
(359,395,o),
(445,559,o),
(445,741,cs),
(445,895,o),
(384,986,o),
(280,986,cs),
(226,986,o),
(183,963,o),
(154,917,cs),
(117,859,o),
(102,772,o),
(102,609,cs),
(102,466,ls),
(102,313,o),
(112,204,o),
(134,131,cs),
(164,33,o),
(216,-14,o),
(298,-14,cs)
);
},
{
closed = 1;
nodes = (
(114,156,o),
(151,204,o),
(190,264,c),
(177,292,o),
(152,309,o),
(117,314,c),
(74,250,o),
(44,211,o),
(14,180,c),
(19,148,o),
(39,126,o),
(74,114,c)
);
}
);
width = 478;
}
);
metricLeft = l.init.cv06;
metricRight = l.fina;
},
{
color = 3;
glyphname = l.medi.cv02;
kernLeft = no_kerning;
kernRight = no_kerning;
lastChange = "2025-10-02 11:49:49 +0000";
layers = (
{
anchors = (
{
name = right;
pos = (330,307);
}
);
layerId = "6DBDBFCA-DF26-4695-B281-FA25C6EAD80F";
shapes = (
{
closed = 1;
nodes = (
(256,-14,o),
(270,2,o),
(270,28,cs),
(270,54,o),
(258,71,o),
(239,71,cs),
(191,71,o),
(164,98,o),
(154,135,cs),
(144,173,o),
(140,228,o),
(140,355,cs),
(140,532,l),
(116,544,o),
(86,546,o),
(51,538,c),
(51,370,ls),
(51,203,o),
(57,151,o),
(69,107,cs),
(90,30,o),
(144,-14,o),
(233,-14,cs)
);
},
{
alignment = -1;
pos = (34,0);
ref = _part.l.in.cv02;
}
);
width = 340;
},
{
anchors = (
{
name = right;
pos = (330,307);
}
);
associatedMasterId = "6DBDBFCA-DF26-4695-B281-FA25C6EAD80F";
attr = {
coordinates = (
853,
920
);
};
layerId = "3A91C105-872F-4158-97E7-C4B90B72C87E";
name = "28. Nov 24 at 17:30";
shapes = (
{
closed = 1;
nodes = (
(256,-14,o),
(270,2,o),
(270,28,cs),
(270,54,o),
(258,71,o),
(239,71,cs),
(191,71,o),
(164,98,o),
(154,135,cs),
(144,173,o),
(140,228,o),
(140,355,cs),
(140,532,l),
(116,544,o),
(86,546,o),
(51,538,c),
(51,370,ls),
(51,203,o),
(57,151,o),
(69,107,cs),
(90,30,o),
(144,-14,o),
(233,-14,cs)
);
},
{
alignment = -1;
pos = (34,0);
ref = _part.l.in.cv02;
}
);
width = 340;
},
{
anchors = (
{
name = right;
pos = (330,307);
}
);
associatedMasterId = "6DBDBFCA-DF26-4695-B281-FA25C6EAD80F";
attr = {
coordinates = (
986,
986
);
};
layerId = "9200D599-59D4-4582-BD13-EED88A86F697";
name = "11. Dec 24 at 20:35";
shapes = (
{
closed = 1;
nodes = (
(256,-14,o),
(270,2,o),
(270,28,cs),
(270,54,o),
(258,71,o),
(239,71,cs),
(191,71,o),
(164,98,o),
(154,135,cs),
(144,173,o),
(140,228,o),
(140,355,cs),
(140,532,l),
(116,544,o),
(86,546,o),
(51,538,c),
(51,370,ls),
(51,203,o),
(57,151,o),
(69,107,cs),
(90,30,o),
(144,-14,o),
(233,-14,cs)
);
},
{
alignment = -1;
pos = (34,0);
ref = _part.l.in.cv02;
}
);
width = 340;
}
);
},
{
color = 3;
glyphname = l.medi.cv02.cv06;
kernLeft = no_kerning;
kernRight = no_kerning;
lastChange = "2025-10-02 11:49:49 +0000";
layers = (
{
anchors = (
{
name = right;
pos = (315,307);
},
{
name = top;
pos = (223,972);
}
);
color = 5;
layerId = "6DBDBFCA-DF26-4695-B281-FA25C6EAD80F";
name = Regular;
shapes = (
{
closed = 1;
nodes = (
(339,-14,o),
(351,-7,o),
(351,26,cs),
(351,54,o),
(340,72,o),
(320,72,cs),
(266,72,o),
(221,103,o),
(191,170,cs),
(143,277,o),
(132,436,o),
(132,615,c),
(102,618,o),
(71,612,o),
(41,600,c),
(41,434,o),
(50,248,o),
(116,118,cs),
(158,34,o),
(228,-14,o),
(313,-14,cs)
);
},
{
alignment = -1;
pos = (15,0);
ref = _part.l.in.cv02.alt;
}
);
width = 328;
},
{
anchors = (
{
name = right;
pos = (367,307);
},
{
name = top;
pos = (224,906);
}
);
associatedMasterId = "6DBDBFCA-DF26-4695-B281-FA25C6EAD80F";
attr = {
coordinates = (
853,
920
);
};
color = 5;
layerId = "54A52E19-1CA8-4846-8058-AD6B11731F2D";
name = "12. Nov 24 at 21:57";
shapes = (
{
closed = 1;
nodes = (
(339,-14,o),
(351,-7,o),
(351,26,cs),
(351,54,o),
(340,72,o),
(320,72,cs),
(266,72,o),
(221,103,o),
(191,170,cs),
(149,263,o),
(132,428,o),
(132,545,c),
(102,548,o),
(71,542,o),
(41,530,c),
(41,417,o),
(57,234,o),
(116,118,cs),
(158,34,o),
(228,-14,o),
(313,-14,cs)
);
},
{
alignment = -1;
pos = (15,0);
ref = _part.l.in.cv02.alt;
}
);
width = 328;
},
{
anchors = (
{
name = right;
pos = (367,307);
},
{
name = top;
pos = (223,972);
}
);
associatedMasterId = "6DBDBFCA-DF26-4695-B281-FA25C6EAD80F";
attr = {
coordinates = (
986,
986
);
};
color = 5;
layerId = "87DF8242-BD5D-4764-8EC3-8C1E3A78DCE4";
name = "11. Dec 24 at 20:36";
shapes = (
{
closed = 1;
nodes = (
(339,-14,o),
(351,-7,o),
(351,26,cs),
(351,54,o),
(340,72,o),
(320,72,cs),
(266,72,o),
(221,103,o),
(191,170,cs),
(143,277,o),
(132,436,o),
(132,615,c),
(102,618,o),
(71,612,o),
(41,600,c),
(41,434,o),
(50,248,o),
(116,118,cs),
(158,34,o),
(228,-14,o),
(313,-14,cs)
);
},
{
alignment = -1;
pos = (15,0);
ref = _part.l.in.cv02.alt;
}
);
width = 328;
}
);
},
{
color = 3;
glyphname = o.init;
kernLeft = o;
kernRight = no_kerning;
lastChange = "2025-10-02 11:49:49 +0000";
layers = (
{
anchors = (
{
name = bottom;
pos = (271,0);
},
{
name = center;
pos = (271,236);
},
{
name = horn;
pos = (327,440);
},
{
name = top;
pos = (271,472);
}
);
layerId = "6DBDBFCA-DF26-4695-B281-FA25C6EAD80F";
shapes = (
{
ref = _part.o;
},
{
closed = 1;
nodes = (
(386,386,o),
(302,433,o),
(195,424,c),
(225,350,o),
(307,305,o),
(409,305,c)
);
}
);
width = 553;
}
);
metricLeft = o.isol;
metricRight = o;
},
{
color = 3;
glyphname = p.medi.cv02;
kernLeft = no_kerning;
kernRight = no_kerning;
lastChange = "2025-10-02 11:49:49 +0000";
layers = (
{
layerId = "6DBDBFCA-DF26-4695-B281-FA25C6EAD80F";
shapes = (
{
pos = (-105,0);
ref = _part.p;
},
{
closed = 1;
nodes = (
(226,481,l),
(208,496,o),
(176,508,o),
(150,505,c),
(92,465,o),
(-20,399,o),
(-113,386,cs),
(-133,383,o),
(-146,376,o),
(-146,348,cs),
(-146,322,o),
(-133,304,o),
(-113,304,cs),
(-23,304,o),
(98,369,o),
(156,408,c),
(137,442,l),
(137,280,l),
(226,280,l)
);
},
{
pos = (317,0);
ref = _part.n.out;
}
);
width = 586;
},
{
associatedMasterId = "6DBDBFCA-DF26-4695-B281-FA25C6EAD80F";
attr = {
coordinates = (
986,
986
);
};
layerId = "E22C4CB9-4B46-47E5-BCFE-23C3AF2630D8";
name = "11. Dec 24 at 20:16";
shapes = (
{
pos = (-105,0);
ref = _part.p;
},
{
closed = 1;
nodes = (
(226,481,l),
(208,496,o),
(176,508,o),
(150,505,c),
(92,465,o),
(-20,399,o),
(-113,386,cs),
(-133,383,o),
(-146,376,o),
(-146,348,cs),
(-146,322,o),
(-133,304,o),
(-113,304,cs),
(-23,304,o),
(98,369,o),
(156,408,c),
(137,442,l),
(137,280,l),
(226,280,l)
);
},
{
pos = (317,0);
ref = _part.n.out;
}
);
width = 586;
}
);
metricRight = n;
},
{
color = 3;
glyphname = s.init.cv04;
kernLeft = s.alt;
kernRight = no_kerning;
lastChange = "2025-10-02 11:49:49 +0000";
layers = (
{
color = 5;
layerId = "6DBDBFCA-DF26-4695-B281-FA25C6EAD80F";
shapes = (
{
alignment = -1;
pos = (-88,0);
ref = _part.s;
},
{
pos = (-101,0);
ref = _part.s.out;
},
{
closed = 1;
nodes = (
(49,173,o),
(73,156,o),
(107,153,c),
(167,221,o),
(208,297,o),
(244,360,cs),
(278,417,o),
(315,480,o),
(321,514,c),
(244,543,l),
(182,421,o),
(118,309,o),
(37,206,c)
);
}
);
width = 519;
}
);
metricLeft = s.isol.cv04;
metricRight = s;
},
{
color = 3;
glyphname = s.isol.cv04;
kernLeft = s.alt;
kernRight = s;
lastChange = "2025-10-02 11:49:49 +0000";
layers = (
{
color = 5;
layerId = "6DBDBFCA-DF26-4695-B281-FA25C6EAD80F";
shapes = (
{
alignment = -1;
pos = (-88,0);
ref = _part.s;
},
{
closed = 1;
nodes = (
(49,173,o),
(73,156,o),
(107,153,c),
(167,221,o),
(208,297,o),
(244,360,cs),
(278,417,o),
(315,480,o),
(321,514,c),
(244,543,l),
(182,421,o),
(118,309,o),
(37,206,c)
);
}
);
width = 494;
}
);
metricRight = s.fina;
},
{
color = 3;
glyphname = germandbls.fina;
kernLeft = no_kerning;
kernRight = o;
lastChange = "2025-10-02 11:49:49 +0000";
layers = (
{
layerId = "6DBDBFCA-DF26-4695-B281-FA25C6EAD80F";
shapes = (
{
closed = 1;
nodes = (
(123,-14,o),
(179,96,o),
(236,256,cs),
(273,356,l),
(308,356,l),
(317,472,l),
(293,482,o),
(251,484,o),
(225,477,c),
(208,413,o),
(179,344,o),
(158,283,cs),
(119,175,o),
(69,72,o),
(1,72,cs),
(-26,72,o),
(-37,52,o),
(-37,29,cs),
(-37,8,o),
(-26,-14,o),
(-5,-14,cs)
);
},
{
alignment = -1;
pos = (3,0);
ref = _part.eszett;
}
);
width = 806;
},
{
associatedMasterId = "6DBDBFCA-DF26-4695-B281-FA25C6EAD80F";
attr = {
coordinates = (
853,
920
);
};
layerId = "A7AF76CC-22F0-4538-B471-75137D92DB22";
name = "{986,920} 11. Dec 24 at 19:20";
shapes = (
{
closed = 1;
nodes = (
(123,-14,o),
(179,96,o),
(236,256,cs),
(273,356,l),
(308,356,l),
(317,472,l),
(293,482,o),
(251,484,o),
(225,477,c),
(208,413,o),
(179,344,o),
(158,283,cs),
(119,175,o),
(69,72,o),
(1,72,cs),
(-26,72,o),
(-37,52,o),
(-37,29,cs),
(-37,8,o),
(-26,-14,o),
(-5,-14,cs)
);
},
{
alignment = -1;
pos = (3,0);
ref = _part.eszett;
}
);
width = 806;
},
{
associatedMasterId = "6DBDBFCA-DF26-4695-B281-FA25C6EAD80F";
attr = {
coordinates = (
986,
986
);
};
layerId = "C5214D90-0907-4D46-B0C9-160BA5872182";
name = "{853,986} 11. Dec 24 at 19:20";
shapes = (
{
closed = 1;
nodes = (
(123,-14,o),
(179,96,o),
(236,256,cs),
(273,356,l),
(308,356,l),
(317,472,l),
(293,482,o),
(251,484,o),
(225,477,c),
(208,413,o),
(179,344,o),
(158,283,cs),
(119,175,o),
(69,72,o),
(1,72,cs),
(-26,72,o),
(-37,52,o),
(-37,29,cs),
(-37,8,o),
(-26,-14,o),
(-5,-14,cs)
);
},
{
alignment = -1;
pos = (3,0);
ref = _part.eszett;
}
);
width = 806;
}
);
metricRight = o;
},
{
color = 3;
glyphname = germandbls.fina.cv01;
kernLeft = no_kerning;
kernRight = o;
lastChange = "2025-10-02 11:49:49 +0000";
layers = (
{
layerId = "6DBDBFCA-DF26-4695-B281-FA25C6EAD80F";
shapes = (
{
alignment = -1;
pos = (-10,0);
ref = _part.eszett;
},
{
closed = 1;
nodes = (
(47,-14,o),
(167,104,o),
(257,362,c),
(293,362,l),
(293,466,l),
(267,479,o),
(232,485,o),
(210,479,c),
(99,185,o),
(13,71,o),
(-100,71,cs),
(-122,71,o),
(-136,55,o),
(-136,29,cs),
(-136,4,o),
(-124,-14,o),
(-105,-14,cs)
);
}
);
width = 793;
},
{
associatedMasterId = "6DBDBFCA-DF26-4695-B281-FA25C6EAD80F";
attr = {
coordinates = (
853,
920
);
};
layerId = "CD26C2F6-0CE1-4950-8537-21A1C9A6BE43";
name = "13. Nov 24 at 17:32";
shapes = (
{
alignment = -1;
pos = (-10,0);
ref = _part.eszett;
},
{
closed = 1;
nodes = (
(47,-14,o),
(167,104,o),
(257,362,c),
(293,362,l),
(293,466,l),
(267,479,o),
(232,485,o),
(210,479,c),
(99,185,o),
(13,71,o),
(-100,71,cs),
(-122,71,o),
(-136,55,o),
(-136,29,cs),
(-136,4,o),
(-124,-14,o),
(-105,-14,cs)
);
}
);
width = 793;
},
{
associatedMasterId = "6DBDBFCA-DF26-4695-B281-FA25C6EAD80F";
attr = {
coordinates = (
986,
986
);
};
layerId = "EE1215B3-D828-47CE-A3BA-1B953F6B4001";
name = "11. Dec 24 at 19:23";
shapes = (
{
alignment = -1;
pos = (-10,0);
ref = _part.eszett;
},
{
closed = 1;
nodes = (
(47,-14,o),
(167,104,o),
(257,362,c),
(293,362,l),
(293,466,l),
(267,479,o),
(232,485,o),
(210,479,c),
(99,185,o),
(13,71,o),
(-100,71,cs),
(-122,71,o),
(-136,55,o),
(-136,29,cs),
(-136,4,o),
(-124,-14,o),
(-105,-14,cs)
);
}
);
width = 793;
}
);
metricLeft = p.medi.cv01;
metricRight = o;
},
{
color = 3;
glyphname = germandbls.fina.cv02;
kernLeft = no_kerning;
kernRight = o;
lastChange = "2025-10-02 11:49:49 +0000";
layers = (
{
layerId = "6DBDBFCA-DF26-4695-B281-FA25C6EAD80F";
shapes = (
{
alignment = -1;
pos = (-184,0);
ref = _part.eszett;
},
{
closed = 1;
nodes = (
(130,479,l),
(121,485,o),
(85,495,o),
(54,495,c),
(10,441,o),
(-53,394,o),
(-113,386,cs),
(-133,383,o),
(-146,376,o),
(-146,348,cs),
(-146,322,o),
(-133,304,o),
(-113,304,cs),
(-51,304,o),
(47,347,o),
(101,416,c),
(130,416,l)
);
}
);
width = 619;
},
{
associatedMasterId = "6DBDBFCA-DF26-4695-B281-FA25C6EAD80F";
attr = {
coordinates = (
853,
920
);
};
layerId = "5FBD5AF8-AEA7-4BE0-B119-5C89A09FA11D";
name = "13. Nov 24 at 17:32";
shapes = (
{
alignment = -1;
pos = (-184,0);
ref = _part.eszett;
},
{
closed = 1;
nodes = (
(130,479,l),
(121,485,o),
(85,495,o),
(54,495,c),
(10,441,o),
(-53,394,o),
(-113,386,cs),
(-133,383,o),
(-146,376,o),
(-146,348,cs),
(-146,322,o),
(-133,304,o),
(-113,304,cs),
(-51,304,o),
(47,347,o),
(101,416,c),
(130,416,l)
);
}
);
width = 619;
},
{
associatedMasterId = "6DBDBFCA-DF26-4695-B281-FA25C6EAD80F";
attr = {
coordinates = (
986,
986
);
};
layerId = "A27FFDF4-CAC8-49C2-B2E5-18A11EA72C35";
name = "11. Dec 24 at 19:23";
shapes = (
{
alignment = -1;
pos = (-184,0);
ref = _part.eszett;
},
{
closed = 1;
nodes = (
(130,479,l),
(121,485,o),
(85,495,o),
(54,495,c),
(10,441,o),
(-53,394,o),
(-113,386,cs),
(-133,383,o),
(-146,376,o),
(-146,348,cs),
(-146,322,o),
(-133,304,o),
(-113,304,cs),
(-51,304,o),
(47,347,o),
(101,416,c),
(130,416,l)
);
}
);
width = 619;
}
);
metricLeft = p.medi.cv02;
metricRight = o;
},
{
color = 3;
glyphname = germandbls.fina.cv03;
kernLeft = no_kerning;
kernRight = o;
lastChange = "2025-10-02 11:49:49 +0000";
layers = (
{
layerId = "6DBDBFCA-DF26-4695-B281-FA25C6EAD80F";
shapes = (
{
alignment = -1;
pos = (-153,0);
ref = _part.eszett;
},
{
closed = 1;
nodes = (
(-1,52,o),
(74,204,o),
(119,358,c),
(164,358,l),
(164,474,l),
(145,485,o),
(105,488,o),
(79,483,c),
(18,283,o),
(-38,141,o),
(-174,12,cs),
(-191,-4,o),
(-198,-14,o),
(-198,-24,cs),
(-198,-44,o),
(-176,-72,o),
(-149,-72,cs),
(-140,-72,o),
(-134,-68,o),
(-120,-56,cs)
);
}
);
width = 650;
},
{
associatedMasterId = "6DBDBFCA-DF26-4695-B281-FA25C6EAD80F";
attr = {
coordinates = (
853,
920
);
};
layerId = "5236372B-7AC6-4F80-AE1F-83F45E02F458";
name = "{986,920} 11. Dec 24 at 19:23";
shapes = (
{
alignment = -1;
pos = (-153,0);
ref = _part.eszett;
},
{
closed = 1;
nodes = (
(-1,52,o),
(74,204,o),
(119,358,c),
(164,358,l),
(164,474,l),
(145,485,o),
(105,488,o),
(79,483,c),
(18,283,o),
(-38,141,o),
(-174,12,cs),
(-191,-4,o),
(-198,-14,o),
(-198,-24,cs),
(-198,-44,o),
(-176,-72,o),
(-149,-72,cs),
(-140,-72,o),
(-134,-68,o),
(-120,-56,cs)
);
}
);
width = 650;
},
{
associatedMasterId = "6DBDBFCA-DF26-4695-B281-FA25C6EAD80F";
attr = {
coordinates = (
986,
986
);
};
layerId = "49774978-A66B-4853-8A07-37C77E493BA1";
name = "13. Nov 24 at 17:32";
shapes = (
{
alignment = -1;
pos = (-153,0);
ref = _part.eszett;
},
{
closed = 1;
nodes = (
(-1,52,o),
(74,204,o),
(119,358,c),
(164,358,l),
(164,474,l),
(145,485,o),
(105,488,o),
(79,483,c),
(18,283,o),
(-38,141,o),
(-174,12,cs),
(-191,-4,o),
(-198,-14,o),
(-198,-24,cs),
(-198,-44,o),
(-176,-72,o),
(-149,-72,cs),
(-140,-72,o),
(-134,-68,o),
(-120,-56,cs)
);
}
);
width = 650;
}
);
metricLeft = p.medi.cv03;
metricRight = o;
},
{
color = 3;
glyphname = germandbls.isol;
kernLeft = p;
kernRight = o;
lastChange = "2025-10-02 11:49:49 +0000";
layers = (
{
layerId = "6DBDBFCA-DF26-4695-B281-FA25C6EAD80F";
shapes = (
{
alignment = -1;
pos = (46,0);
ref = _part.eszett;
},
{
closed = 1;
nodes = (
(164,75,o),
(264,229,o),
(313,345,c),
(357,345,l),
(357,472,l),
(335,484,o),
(296,486,o),
(275,483,c),
(219,333,o),
(126,174,o),
(17,41,c),
(29,14,o),
(55,-8,o),
(85,-14,c)
);
}
);
width = 849;
},
{
associatedMasterId = "6DBDBFCA-DF26-4695-B281-FA25C6EAD80F";
attr = {
coordinates = (
853,
920
);
};
layerId = "0DA2078C-561D-41C7-A157-8AFD1701CF2A";
name = "13. Nov 24 at 17:32";
shapes = (
{
alignment = -1;
pos = (46,0);
ref = _part.eszett;
},
{
closed = 1;
nodes = (
(164,75,o),
(264,229,o),
(313,345,c),
(357,345,l),
(357,472,l),
(335,484,o),
(296,486,o),
(275,483,c),
(219,333,o),
(126,174,o),
(17,41,c),
(29,14,o),
(55,-8,o),
(85,-14,c)
);
}
);
width = 849;
},
{
associatedMasterId = "6DBDBFCA-DF26-4695-B281-FA25C6EAD80F";
attr = {
coordinates = (
986,
986
);
};
layerId = "F6962BF5-55AA-4462-96D5-0EF070EDE993";
name = "11. Dec 24 at 19:24";
shapes = (
{
alignment = -1;
pos = (46,0);
ref = _part.eszett;
},
{
closed = 1;
nodes = (
(164,75,o),
(264,229,o),
(313,345,c),
(357,345,l),
(357,472,l),
(335,484,o),
(296,486,o),
(275,483,c),
(219,333,o),
(126,174,o),
(17,41,c),
(29,14,o),
(55,-8,o),
(85,-14,c)
);
}
);
width = 849;
}
);
metricLeft = p.init;
metricRight = o;
},
{
color = 3;
glyphname = t.fina.cv02;
kernLeft = no_kerning;
kernRight = t;
lastChange = "2025-10-02 11:49:49 +0000";
layers = (
{
layerId = "6DBDBFCA-DF26-4695-B281-FA25C6EAD80F";
shapes = (
{
closed = 1;
nodes = (
(292,-14,o),
(336,12,o),
(359,39,c),
(358,62,o),
(335,92,o),
(313,100,c),
(292,81,o),
(271,71,o),
(250,71,cs),
(197,71,o),
(189,124,o),
(189,172,cs),
(189,288,l),
(97,288,l),
(97,168,ls),
(97,63,o),
(132,-14,o),
(238,-14,cs)
);
},
{
pos = (2,0);
ref = _part.t.in.cv02;
}
);
width = 369;
}
);
metricLeft = t.medi.cv02;
metricRight = t.fina;
},
{
color = 3;
glyphname = t.medi.cv02;
kernLeft = no_kerning;
kernRight = no_kerning;
lastChange = "2025-10-02 11:49:49 +0000";
layers = (
{
layerId = "6DBDBFCA-DF26-4695-B281-FA25C6EAD80F";
shapes = (
{
pos = (2,0);
ref = _part.t.in.cv02;
},
{
closed = 1;
nodes = (
(296,-14,o),
(310,3,o),
(310,28,cs),
(310,56,o),
(299,72,o),
(281,72,cs),
(216,72,o),
(189,135,o),
(189,258,cs),
(189,263,l),
(162,271,o),
(131,274,o),
(97,263,c),
(97,247,ls),
(97,84,o),
(149,-14,o),
(274,-14,cs)
);
}
);
width = 282;
}
);
},
{
color = 3;
glyphname = x.init;
kernLeft = x;
kernRight = no_kerning;
lastChange = "2025-10-02 11:49:49 +0000";
layers = (
{
layerId = "6DBDBFCA-DF26-4695-B281-FA25C6EAD80F";
shapes = (
{
closed = 1;
nodes = (
(103,360,o),
(141,400,o),
(199,400,c),
(208,425,o),
(209,461,o),
(203,486,c),
(109,486,o),
(45,436,o),
(-10,341,c),
(6,310,o),
(28,301,o),
(64,295,c)
);
},
{
pos = (-155,0);
ref = _part.x;
}
);
width = 645;
}
);
metricRight = x;
},
{
color = 3;
glyphname = x.init.cv04;
kernLeft = x.alt;
kernRight = no_kerning;
lastChange = "2025-10-02 11:49:49 +0000";
layers = (
{
color = 5;
layerId = "6DBDBFCA-DF26-4695-B281-FA25C6EAD80F";
shapes = (
{
closed = 1;
nodes = (
(142,348,o),
(174,400,o),
(239,400,c),
(248,425,o),
(249,461,o),
(243,486,c),
(142,486,o),
(88,427,o),
(15,314,c),
(31,280,o),
(52,270,o),
(88,264,c)
);
},
{
pos = (-115,0);
ref = _part.x;
}
);
width = 685;
}
);
metricRight = x;
},
{
color = 3;
glyphname = x.medi.cv01;
kernLeft = no_kerning;
kernRight = no_kerning;
lastChange = "2025-10-02 11:49:49 +0000";
layers = (
{
layerId = "6DBDBFCA-DF26-4695-B281-FA25C6EAD80F";
shapes = (
{
closed = 1;
nodes = (
(6,-14,o),
(76,34,o),
(151,161,cs),
(253,332,ls),
(284,386,o),
(318,400,o),
(349,400,c),
(356,423,o),
(357,462,o),
(352,486,c),
(286,486,o),
(228,455,o),
(174,363,cs),
(83,211,ls),
(22,109,o),
(-28,71,o),
(-101,71,cs),
(-122,71,o),
(-136,55,o),
(-136,29,cs),
(-136,4,o),
(-124,-14,o),
(-106,-14,cs)
);
},
{
pos = (-6,0);
ref = _part.x;
}
);
width = 794;
}
);
metricLeft = n.medi.cv01;
metricRight = x;
},
{
color = 3;
glyphname = x.medi.cv02;
kernLeft = no_kerning;
kernRight = no_kerning;
lastChange = "2025-10-02 11:49:49 +0000";
layers = (
{
layerId = "6DBDBFCA-DF26-4695-B281-FA25C6EAD80F";
shapes = (
{
pos = (-159,0);
ref = _part.x;
},
{
closed = 1;
nodes = (
(-122,401,o),
(-134,384,o),
(-134,361,cs),
(-134,334,o),
(-121,317,o),
(-101,317,cs),
(-68,317,o),
(-5,335,o),
(76,367,cs),
(91,373,ls),
(138,392,o),
(168,400,o),
(195,400,c),
(203,427,o),
(204,458,o),
(199,486,c),
(164,486,o),
(125,471,o),
(55,445,cs),
(36,438,ls),
(-28,414,o),
(-74,401,o),
(-105,401,cs)
);
}
);
width = 641;
}
);
metricRight = x;
},
{
color = 3;
glyphname = x.medi.cv03;
kernLeft = no_kerning;
kernRight = no_kerning;
lastChange = "2025-10-02 11:49:49 +0000";
layers = (
{
layerId = "6DBDBFCA-DF26-4695-B281-FA25C6EAD80F";
shapes = (
{
pos = (-116,0);
ref = _part.x;
},
{
closed = 1;
nodes = (
(-68,-18,o),
(-30,31,o),
(42,158,cs),
(132,316,ls),
(167,378,o),
(199,400,o),
(238,400,c),
(246,429,o),
(247,464,o),
(241,486,c),
(165,486,o),
(113,448,o),
(50,338,cs),
(-43,176,ls),
(-94,88,o),
(-124,49,o),
(-163,25,cs),
(-190,8,o),
(-193,4,o),
(-193,-14,cs),
(-193,-39,o),
(-171,-70,o),
(-153,-70,cs),
(-148,-70,o),
(-142,-68,o),
(-135,-63,cs)
);
}
);
width = 684;
}
);
metricRight = x;
},
{
color = 3;
glyphname = y.medi.cv02;
kernLeft = no_kerning;
kernRight = no_kerning;
lastChange = "2025-10-02 11:49:49 +0000";
layers = (
{
anchors = (
{
name = bottom;
pos = (638,0);
},
{
name = top;
pos = (300,472);
}
);
layerId = "6DBDBFCA-DF26-4695-B281-FA25C6EAD80F";
shapes = (
{
closed = 1;
nodes = (
(521,0,l),
(521,284,l),
(432,284,l),
(432,0,l)
);
},
{
pos = (-12,0);
ref = _part.boucle.bas;
},
{
pos = (-38,0);
ref = _part.i.in.cv02;
},
{
pos = (-60,0);
ref = _part.u;
}
);
width = 649;
}
);
metricLeft = i.medi.cv02;
metricRight = g;
},
{
color = 3;
glyphname = t_t.liga.fina.cv02;
kernLeft = no_kerning;
kernRight = t;
lastChange = "2025-10-02 11:49:49 +0000";
layers = (
{
layerId = "6DBDBFCA-DF26-4695-B281-FA25C6EAD80F";
shapes = (
{
closed = 1;
nodes = (
(126,257,o),
(158,257,o),
(189,263,c),
(189,729,l),
(173,734,o),
(159,736,o),
(143,736,cs),
(125,736,o),
(108,733,o),
(97,729,c),
(97,641,ls),
(97,512,o),
(-12,417,o),
(-132,404,cs),
(-152,402,o),
(-163,388,o),
(-163,366,cs),
(-163,341,o),
(-150,322,o),
(-125,322,cs),
(-46,322,o),
(56,372,o),
(118,462,c),
(97,480,l),
(97,263,l)
);
},
{
closed = 1;
nodes = (
(296,-14,o),
(310,3,o),
(310,28,cs),
(310,56,o),
(299,72,o),
(281,72,cs),
(216,72,o),
(189,135,o),
(189,258,cs),
(189,263,l),
(162,271,o),
(131,274,o),
(97,263,c),
(97,247,ls),
(97,84,o),
(149,-14,o),
(274,-14,cs)
);
},
{
closed = 1;
nodes = (
(565,270,l),
(565,743,l),
(549,748,o),
(535,750,o),
(519,750,cs),
(501,750,o),
(484,747,o),
(473,743,c),
(473,270,l)
);
},
{
closed = 1;
nodes = (
(715,486,l),
(725,507,o),
(725,545,o),
(715,566,c),
(163,566,l),
(154,545,o),
(154,507,o),
(163,486,c)
);
},
{
alignment = -1;
pos = (282,0);
ref = _part.t.in;
},
{
alignment = -1;
pos = (239,0);
ref = _part.t.fin;
}
);
width = 767;
}
);
metricLeft = t.medi.cv02;
metricRight = t.fina;
},
{
color = 3;
glyphname = t_t.liga.medi.cv02;
kernLeft = no_kerning;
kernRight = no_kerning;
lastChange = "2025-10-02 11:49:49 +0000";
layers = (
{
layerId = "6DBDBFCA-DF26-4695-B281-FA25C6EAD80F";
shapes = (
{
closed = 1;
nodes = (
(126,257,o),
(158,257,o),
(189,263,c),
(189,729,l),
(173,734,o),
(159,736,o),
(143,736,cs),
(125,736,o),
(108,733,o),
(97,729,c),
(97,641,ls),
(97,512,o),
(-12,417,o),
(-132,404,cs),
(-152,402,o),
(-163,388,o),
(-163,366,cs),
(-163,341,o),
(-150,322,o),
(-125,322,cs),
(-46,322,o),
(56,372,o),
(118,462,c),
(97,480,l),
(97,263,l)
);
},
{
closed = 1;
nodes = (
(296,-14,o),
(310,3,o),
(310,28,cs),
(310,56,o),
(299,72,o),
(281,72,cs),
(216,72,o),
(189,135,o),
(189,258,cs),
(189,263,l),
(162,271,o),
(131,274,o),
(97,263,c),
(97,247,ls),
(97,84,o),
(149,-14,o),
(274,-14,cs)
);
},
{
alignment = -1;
pos = (282,0);
ref = _part.t.in;
},
{
alignment = -1;
pos = (267,0);
ref = _part.t.out;
},
{
closed = 1;
nodes = (
(565,270,l),
(565,743,l),
(549,748,o),
(535,750,o),
(519,750,cs),
(501,750,o),
(484,747,o),
(473,743,c),
(473,270,l)
);
},
{
closed = 1;
nodes = (
(715,486,l),
(725,507,o),
(725,545,o),
(715,566,c),
(153,566,l),
(144,545,o),
(144,507,o),
(153,486,c)
);
}
);
width = 683;
}
);
metricLeft = t.medi.cv02;
metricRight = t;
},
{
color = 6;
glyphname = ordfeminine;
kernLeft = sups;
kernRight = sups;
lastChange = "2025-10-02 11:49:48 +0000";
layers = (
{
layerId = "6DBDBFCA-DF26-4695-B281-FA25C6EAD80F";
shapes = (
{
closed = 1;
nodes = (
(361,810,l),
(339,843,o),
(297,863,o),
(249,863,cs),
(146,863,o),
(68,776,o),
(68,662,cs),
(68,555,o),
(138,479,o),
(237,479,cs),
(298,479,o),
(350,508,o),
(382,560,c),
(357,569,l),
(369,509,o),
(403,479,o),
(456,479,cs),
(489,479,o),
(517,491,o),
(534,510,c),
(535,533,o),
(521,560,o),
(504,569,c),
(490,559,o),
(479,554,o),
(465,554,cs),
(441,554,o),
(430,569,o),
(430,602,cs),
(430,853,l),
(403,861,o),
(377,860,o),
(352,853,c),
(352,663,ls),
(352,599,o),
(310,555,o),
(248,555,cs),
(187,555,o),
(148,597,o),
(148,662,cs),
(148,734,o),
(195,787,o),
(259,787,cs),
(304,787,o),
(342,761,o),
(361,734,c)
);
},
{
closed = 1;
nodes = (
(81,380,o),
(81,357,o),
(91,334,c),
(510,334,l),
(520,358,o),
(520,382,o),
(510,404,c),
(91,404,l)
);
}
);
width = 569;
}
);
unicode = 170;
},
{
color = 6;
glyphname = ordmasculine;
kernLeft = sups;
kernRight = sups;
lastChange = "2025-10-02 11:49:48 +0000";
layers = (
{
layerId = "6DBDBFCA-DF26-4695-B281-FA25C6EAD80F";
shapes = (
{
closed = 1;
nodes = (
(364,479,o),
(444,560,o),
(444,670,cs),
(444,779,o),
(364,859,o),
(257,859,cs),
(149,859,o),
(68,779,o),
(68,670,cs),
(68,560,o),
(148,479,o),
(257,479,cs)
);
},
{
closed = 1;
nodes = (
(191,555,o),
(148,601,o),
(148,669,cs),
(148,736,o),
(192,783,o),
(257,783,cs),
(321,783,o),
(364,737,o),
(364,670,cs),
(364,600,o),
(321,555,o),
(256,555,cs)
);
},
{
closed = 1;
nodes = (
(78,381,o),
(77,358,o),
(87,334,c),
(425,334,l),
(434,357,o),
(435,381,o),
(425,404,c),
(87,404,l)
);
}
);
width = 512;
}
);
unicode = 186;
},
{
color = 6;
glyphname = zero;
kernLeft = zero;
kernRight = zero;
lastChange = "2025-10-02 11:49:48 +0000";
layers = (
{
layerId = "6DBDBFCA-DF26-4695-B281-FA25C6EAD80F";
shapes = (
{
closed = 1;
nodes = (
(506,-14,o),
(619,136,o),
(619,357,cs),
(619,579,o),
(509,725,o),
(341,725,cs),
(172,725,o),
(60,578,o),
(60,356,cs),
(60,135,o),
(173,-14,o),
(340,-14,cs)
);
},
{
closed = 1;
nodes = (
(226,75,o),
(155,182,o),
(155,356,cs),
(155,529,o),
(226,636,o),
(341,636,cs),
(455,636,o),
(524,530,o),
(524,354,cs),
(524,180,o),
(455,75,o),
(341,75,cs)
);
}
);
width = 679;
}
);
unicode = 48;
},
{
color = 6;
glyphname = one;
kernLeft = one;
kernRight = H;
lastChange = "2025-10-02 11:49:48 +0000";
layers = (
{
layerId = "6DBDBFCA-DF26-4695-B281-FA25C6EAD80F";
shapes = (
{
closed = 1;
nodes = (
(367,-3,o),
(383,-2,o),
(399,0,c),
(399,695,l),
(385,715,o),
(353,726,o),
(324,722,c),
(234,663,o),
(151,612,o),
(45,552,c),
(49,523,o),
(64,495,o),
(85,474,c),
(136,498,o),
(211,539,o),
(315,608,c),
(304,628,l),
(304,0,l),
(320,-2,o),
(336,-3,o),
(351,-3,cs)
);
}
);
width = 529;
}
);
unicode = 49;
},
{
color = 6;
glyphname = two;
kernLeft = two;
kernRight = two;
lastChange = "2025-10-02 11:49:48 +0000";
layers = (
{
layerId = "6DBDBFCA-DF26-4695-B281-FA25C6EAD80F";
shapes = (
{
closed = 1;
nodes = (
(93,4,o),
(138,8,o),
(180,8,cs),
(211,8,o),
(230,6,o),
(299,-4,cs),
(353,-12,o),
(376,-14,o),
(397,-14,cs),
(479,-14,o),
(534,2,o),
(567,25,c),
(567,58,o),
(558,82,o),
(538,102,c),
(501,86,o),
(444,73,o),
(399,73,cs),
(378,73,o),
(347,76,o),
(304,81,cs),
(232,89,o),
(249,89,o),
(220,89,cs),
(201,89,o),
(186,88,o),
(158,85,c),
(189,72,l),
(264,127,o),
(344,197,o),
(409,271,cs),
(491,365,o),
(527,438,o),
(527,518,cs),
(527,643,o),
(438,730,o),
(304,730,cs),
(176,730,o),
(75,651,o),
(51,514,c),
(73,494,o),
(104,487,o),
(141,491,c),
(153,584,o),
(215,641,o),
(300,641,cs),
(381,641,o),
(433,590,o),
(433,514,cs),
(433,452,o),
(399,389,o),
(318,303,cs),
(238,219,o),
(114,112,o),
(45,66,c),
(43,41,o),
(55,8,o),
(69,-1,c)
);
}
);
width = 602;
}
);
unicode = 50;
},
{
color = 6;
glyphname = three;
kernLeft = three;
kernRight = three;
lastChange = "2025-10-02 11:49:48 +0000";
layers = (
{
layerId = "6DBDBFCA-DF26-4695-B281-FA25C6EAD80F";
shapes = (
{
closed = 1;
nodes = (
(438,-14,o),
(516,90,o),
(516,184,cs),
(516,285,o),
(447,364,o),
(338,384,c),
(330,331,l),
(455,368,o),
(497,453,o),
(497,531,cs),
(497,632,o),
(420,730,o),
(283,730,cs),
(162,730,o),
(81,654,o),
(58,565,c),
(84,545,o),
(112,534,o),
(142,533,c),
(160,605,o),
(216,642,o),
(285,642,cs),
(354,642,o),
(405,598,o),
(405,524,cs),
(405,449,o),
(346,399,o),
(262,399,cs),
(191,399,l),
(187,384,o),
(186,371,o),
(186,356,cs),
(186,341,o),
(187,328,o),
(191,315,c),
(262,315,ls),
(370,315,o),
(424,270,o),
(424,195,cs),
(424,121,o),
(367,74,o),
(287,74,cs),
(195,74,o),
(144,122,o),
(118,162,c),
(90,149,o),
(62,123,o),
(50,101,c),
(95,29,o),
(189,-14,o),
(283,-14,cs)
);
}
);
width = 576;
}
);
unicode = 51;
},
{
color = 6;
glyphname = four;
kernLeft = four;
kernRight = four;
lastChange = "2025-10-02 11:49:48 +0000";
layers = (
{
layerId = "6DBDBFCA-DF26-4695-B281-FA25C6EAD80F";
shapes = (
{
closed = 1;
nodes = (
(141,244,l),
(343,695,l),
(330,711,o),
(294,729,o),
(263,729,c),
(50,251,l),
(50,233,o),
(58,200,o),
(67,186,c)
);
},
{
closed = 1;
nodes = (
(576,186,l),
(579,200,o),
(581,214,o),
(581,228,cs),
(581,241,o),
(579,256,o),
(576,269,c),
(88,269,l),
(67,186,l)
);
},
{
closed = 1;
nodes = (
(430,-3,o),
(444,-2,o),
(460,0,c),
(460,471,l),
(444,473,o),
(430,474,o),
(414,474,cs),
(398,474,o),
(382,473,o),
(367,471,c),
(367,0,l),
(382,-2,o),
(398,-3,o),
(414,-3,cs)
);
}
);
width = 606;
}
);
unicode = 52;
},
{
color = 6;
glyphname = five;
kernLeft = five;
kernRight = five;
lastChange = "2025-10-02 11:49:48 +0000";
layers = (
{
layerId = "6DBDBFCA-DF26-4695-B281-FA25C6EAD80F";
shapes = (
{
closed = 1;
nodes = (
(420,-14,o),
(497,108,o),
(497,214,cs),
(497,340,o),
(409,436,o),
(263,436,cs),
(209,436,o),
(169,427,o),
(139,417,c),
(181,382,l),
(220,627,l),
(459,627,l),
(467,643,o),
(467,692,o),
(459,712,c),
(149,712,l),
(93,383,l),
(106,363,o),
(124,345,o),
(144,330,c),
(168,339,o),
(205,349,o),
(254,349,cs),
(367,349,o),
(404,279,o),
(404,214,cs),
(404,135,o),
(347,74,o),
(259,74,cs),
(175,74,o),
(124,122,o),
(98,162,c),
(70,149,o),
(42,123,o),
(30,105,c),
(75,29,o),
(169,-14,o),
(254,-14,cs)
);
}
);
width = 552;
}
);
unicode = 53;
},
{
color = 6;
glyphname = six;
kernLeft = zero;
kernRight = six;
lastChange = "2025-10-02 11:49:48 +0000";
layers = (
{
layerId = "6DBDBFCA-DF26-4695-B281-FA25C6EAD80F";
shapes = (
{
closed = 1;
nodes = (
(434,-14,o),
(543,77,o),
(543,217,cs),
(543,321,o),
(467,427,o),
(322,427,cs),
(256,427,o),
(164,391,o),
(137,324,c),
(156,293,l),
(139,510,o),
(206,643,o),
(324,643,cs),
(377,643,o),
(421,617,o),
(447,559,c),
(475,561,o),
(505,578,o),
(521,600,c),
(482,688,o),
(410,730,o),
(330,730,cs),
(167,730,o),
(60,581,o),
(60,356,cs),
(60,107,o),
(157,-14,o),
(315,-14,cs)
);
},
{
closed = 1;
nodes = (
(228,73,o),
(176,135,o),
(176,208,cs),
(176,286,o),
(233,342,o),
(318,342,cs),
(398,342,o),
(451,286,o),
(451,208,cs),
(451,135,o),
(399,73,o),
(314,73,cs)
);
}
);
visible = 1;
width = 593;
}
);
metricLeft = zero;
unicode = 54;
},
{
color = 6;
glyphname = seven;
kernLeft = seven;
kernRight = seven;
lastChange = "2025-10-02 11:49:48 +0000";
layers = (
{
layerId = "6DBDBFCA-DF26-4695-B281-FA25C6EAD80F";
shapes = (
{
closed = 1;
nodes = (
(509,635,l),
(430,683,l),
(186,20,l),
(205,1,o),
(235,-10,o),
(271,-11,c)
);
},
{
closed = 1;
nodes = (
(452,627,l),
(509,635,l),
(513,661,o),
(507,696,o),
(487,712,c),
(44,712,l),
(38,684,o),
(38,657,o),
(44,627,c)
);
}
);
width = 550;
}
);
unicode = 55;
},
{
color = 6;
glyphname = eight;
kernLeft = eight;
kernRight = eight;
lastChange = "2025-10-02 11:49:48 +0000";
layers = (
{
layerId = "6DBDBFCA-DF26-4695-B281-FA25C6EAD80F";
shapes = (
{
closed = 1;
nodes = (
(427,-14,o),
(524,68,o),
(524,181,cs),
(524,255,o),
(475,322,o),
(388,369,cs),
(276,429,ls),
(213,463,o),
(182,503,o),
(182,551,cs),
(182,610,o),
(225,648,o),
(292,648,cs),
(359,648,o),
(402,610,o),
(402,551,cs),
(402,503,o),
(371,463,o),
(308,429,cs),
(196,369,ls),
(109,322,o),
(60,255,o),
(60,181,cs),
(60,68,o),
(157,-14,o),
(292,-14,cs)
);
},
{
closed = 1;
nodes = (
(208,69,o),
(151,114,o),
(151,181,cs),
(151,232,o),
(180,270,o),
(244,304,cs),
(347,359,ls),
(446,412,o),
(493,474,o),
(493,553,cs),
(493,657,o),
(410,730,o),
(292,730,cs),
(174,730,o),
(91,657,o),
(91,553,cs),
(91,474,o),
(138,412,o),
(237,359,cs),
(340,304,ls),
(404,270,o),
(433,232,o),
(433,181,cs),
(433,114,o),
(376,69,o),
(292,69,cs)
);
}
);
width = 584;
}
);
unicode = 56;
},
{
color = 6;
glyphname = nine;
kernLeft = nine;
kernRight = zero;
lastChange = "2025-10-02 11:49:48 +0000";
layers = (
{
layerId = "6DBDBFCA-DF26-4695-B281-FA25C6EAD80F";
shapes = (
{
closed = 1;
nodes = (
(413,-14,o),
(533,90,o),
(533,361,cs),
(533,609,o),
(436,730,o),
(279,730,cs),
(159,730,o),
(50,640,o),
(50,498,cs),
(50,390,o),
(127,278,o),
(272,278,cs),
(337,278,o),
(430,319,o),
(456,392,c),
(438,424,l),
(453,161,o),
(374,73,o),
(271,73,cs),
(217,73,o),
(173,99,o),
(146,159,c),
(119,156,o),
(85,144,o),
(66,124,c),
(106,26,o),
(184,-14,o),
(271,-14,cs)
);
},
{
closed = 1;
nodes = (
(195,363,o),
(141,424,o),
(141,505,cs),
(141,581,o),
(195,643,o),
(280,643,cs),
(361,643,o),
(417,581,o),
(417,501,cs),
(417,424,o),
(361,363,o),
(275,363,cs)
);
}
);
width = 593;
}
);
metricLeft = "=|six";
metricRight = zero;
unicode = 57;
},
{
color = 6;
glyphname = one.ss02;
kernLeft = one;
kernRight = one;
lastChange = "2025-10-02 11:49:48 +0000";
layers = (
{
layerId = "6DBDBFCA-DF26-4695-B281-FA25C6EAD80F";
shapes = (
{
closed = 1;
nodes = (
(373,40,l),
(373,712,l),
(358,722,o),
(324,726,o),
(299,720,c),
(222,669,o),
(147,619,o),
(54,565,c),
(59,535,o),
(72,508,o),
(94,487,c),
(138,508,o),
(201,544,o),
(290,608,c),
(278,628,l),
(278,40,l)
);
},
{
closed = 1;
nodes = (
(501,0,l),
(514,25,o),
(510,68,o),
(501,84,c),
(123,84,l),
(111,65,o),
(112,23,o),
(123,0,c)
);
}
);
width = 530;
}
);
},
{
color = 3;
glyphname = seven.ss01;
kernLeft = seven;
kernRight = seven;
lastChange = "2025-10-02 11:49:49 +0000";
layers = (
{
layerId = "6DBDBFCA-DF26-4695-B281-FA25C6EAD80F";
shapes = (
{
closed = 1;
nodes = (
(490,319,l),
(494,332,o),
(496,346,o),
(496,361,cs),
(496,374,o),
(495,390,o),
(490,400,c),
(142,400,l),
(137,390,o),
(136,376,o),
(136,363,cs),
(136,348,o),
(137,332,o),
(142,319,c)
);
},
{
ref = seven;
}
);
width = 550;
}
);
metricLeft = seven;
metricRight = seven;
},
{
color = 6;
glyphname = hyphen;
kernLeft = hyphen;
kernRight = hyphen;
lastChange = "2025-10-02 11:49:48 +0000";
layers = (
{
layerId = "6DBDBFCA-DF26-4695-B281-FA25C6EAD80F";
shapes = (
{
closed = 1;
nodes = (
(378,240,l),
(389,266,o),
(389,309,o),
(378,333,c),
(94,333,l),
(83,309,o),
(83,266,o),
(94,240,c)
);
}
);
width = 474;
}
);
unicode = 45;
},
{
color = 6;
glyphname = endash;
lastChange = "2025-10-02 11:49:48 +0000";
layers = (
{
layerId = "6DBDBFCA-DF26-4695-B281-FA25C6EAD80F";
shapes = (
{
closed = 1;
nodes = (
(356,250,l),
(361,273,o),
(362,309,o),
(356,330,c),
(0,330,l),
(-7,302,o),
(-6,279,o),
(0,250,c)
);
}
);
width = 356;
}
);
metricLeft = emdash;
metricRight = emdash;
unicode = 8211;
},
{
color = 6;
glyphname = emdash;
lastChange = "2025-10-02 11:49:48 +0000";
layers = (
{
layerId = "6DBDBFCA-DF26-4695-B281-FA25C6EAD80F";
shapes = (
{
closed = 1;
nodes = (
(711,250,l),
(716,273,o),
(717,309,o),
(711,330,c),
(0,330,l),
(-7,302,o),
(-6,279,o),
(0,250,c)
);
}
);
width = 711;
}
);
unicode = 8212;
},
{
color = 6;
glyphname = parenleft;
lastChange = "2025-10-02 11:49:48 +0000";
layers = (
{
layerId = "6DBDBFCA-DF26-4695-B281-FA25C6EAD80F";
shapes = (
{
closed = 1;
nodes = (
(412,-258,o),
(436,-230,o),
(437,-202,c),
(252,-58,o),
(165,122,o),
(165,361,cs),
(165,600,o),
(252,780,o),
(437,924,c),
(430,956,o),
(406,984,o),
(384,986,c),
(186,860,o),
(70,628,o),
(70,361,cs),
(70,91,o),
(189,-145,o),
(384,-264,c)
);
}
);
width = 457;
}
);
unicode = 40;
},
{
color = 6;
glyphname = braceleft;
lastChange = "2025-10-02 11:49:48 +0000";
layers = (
{
layerId = "6DBDBFCA-DF26-4695-B281-FA25C6EAD80F";
shapes = (
{
closed = 1;
nodes = (
(413,-259,o),
(431,-257,o),
(448,-253,c),
(456,-230,o),
(453,-192,o),
(443,-170,c),
(429,-172,o),
(411,-174,o),
(396,-174,cs),
(314,-174,o),
(282,-135,o),
(282,-13,cs),
(282,192,ls),
(282,282,o),
(257,349,o),
(197,379,c),
(197,353,l),
(260,379,o),
(282,441,o),
(282,531,cs),
(282,736,ls),
(282,858,o),
(314,897,o),
(396,897,cs),
(411,897,o),
(429,895,o),
(443,893,c),
(453,915,o),
(456,953,o),
(448,976,c),
(431,980,o),
(413,982,o),
(396,982,cs),
(259,982,o),
(197,909,o),
(197,760,cs),
(197,555,ls),
(197,441,o),
(172,404,o),
(93,404,cs),
(59,404,l),
(46,381,o),
(48,342,o),
(59,319,c),
(93,319,ls),
(172,319,o),
(197,282,o),
(197,168,cs),
(197,-37,ls),
(197,-186,o),
(259,-259,o),
(396,-259,cs)
);
}
);
width = 473;
}
);
unicode = 123;
},
{
color = 6;
glyphname = bracketleft;
lastChange = "2025-10-02 11:49:48 +0000";
layers = (
{
layerId = "6DBDBFCA-DF26-4695-B281-FA25C6EAD80F";
shapes = (
{
closed = 1;
nodes = (
(416,-257,l),
(425,-230,o),
(425,-197,o),
(416,-172,c),
(200,-172,l),
(200,887,l),
(416,887,l),
(425,909,o),
(425,945,o),
(416,972,c),
(110,972,l),
(110,-257,l)
);
}
);
width = 442;
}
);
unicode = 91;
},
{
color = 6;
glyphname = quoteright;
kernLeft = quote;
kernRight = quote;
lastChange = "2025-10-02 11:49:48 +0000";
layers = (
{
layerId = "6DBDBFCA-DF26-4695-B281-FA25C6EAD80F";
shapes = (
{
closed = 1;
nodes = (
(172,602,o),
(203,670,o),
(203,740,cs),
(203,799,o),
(181,859,o),
(140,897,c),
(108,889,o),
(71,862,o),
(57,837,c),
(81,813,o),
(114,773,o),
(114,725,cs),
(114,683,o),
(92,646,o),
(50,598,c),
(60,575,o),
(83,556,o),
(104,546,c)
);
}
);
width = 253;
}
);
unicode = 8217;
},
{
color = 6;
glyphname = guilsinglleft;
kernLeft = guillemet;
lastChange = "2025-10-02 11:49:48 +0000";
layers = (
{
layerId = "6DBDBFCA-DF26-4695-B281-FA25C6EAD80F";
shapes = (
{
closed = 1;
nodes = (
(231,26,o),
(256,45,o),
(266,74,c),
(104,275,l),
(106,194,l),
(261,395,l),
(243,422,o),
(220,442,o),
(190,451,c),
(23,234,l),
(197,17,l)
);
}
);
width = 311;
}
);
unicode = 8249;
},
{
color = 6;
glyphname = quotesingle;
kernLeft = quote;
kernRight = quote;
lastChange = "2025-10-02 11:49:48 +0000";
layers = (
{
layerId = "6DBDBFCA-DF26-4695-B281-FA25C6EAD80F";
shapes = (
{
closed = 1;
nodes = (
(123,582,o),
(137,580,o),
(151,580,cs),
(164,580,o),
(176,582,o),
(189,585,c),
(199,872,l),
(182,877,o),
(166,879,o),
(149,879,cs),
(130,879,o),
(112,876,o),
(100,872,c),
(110,585,l)
);
}
);
width = 299;
}
);
unicode = 39;
},
{
color = 6;
glyphname = period;
kernLeft = period;
kernRight = period;
lastChange = "2025-10-02 11:49:48 +0000";
layers = (
{
layerId = "6DBDBFCA-DF26-4695-B281-FA25C6EAD80F";
shapes = (
{
closed = 1;
nodes = (
(177,-14,o),
(209,17,o),
(209,55,cs),
(209,92,o),
(177,123,o),
(140,123,cs),
(103,123,o),
(72,92,o),
(72,55,cs),
(72,17,o),
(103,-14,o),
(140,-14,cs)
);
}
);
width = 291;
}
);
unicode = 46;
},
{
color = 6;
glyphname = comma;
kernLeft = period;
kernRight = period;
lastChange = "2025-10-02 11:49:48 +0000";
layers = (
{
layerId = "6DBDBFCA-DF26-4695-B281-FA25C6EAD80F";
shapes = (
{
closed = 1;
nodes = (
(162,-159,o),
(206,-75,o),
(206,12,cs),
(206,60,o),
(194,98,o),
(180,126,c),
(148,126,o),
(109,113,o),
(90,93,c),
(106,60,o),
(114,32,o),
(114,4,cs),
(114,-62,o),
(78,-111,o),
(32,-141,c),
(34,-164,o),
(58,-191,o),
(77,-201,c)
);
}
);
width = 302;
}
);
unicode = 44;
},
{
color = 3;
glyphname = exclam;
kernLeft = exclam;
kernRight = exclam;
lastChange = "2025-10-02 11:49:49 +0000";
layers = (
{
layerId = "6DBDBFCA-DF26-4695-B281-FA25C6EAD80F";
shapes = (
{
closed = 1;
nodes = (
(189,238,o),
(204,239,o),
(220,242,c),
(220,712,l),
(204,715,o),
(189,717,o),
(174,717,cs),
(158,717,o),
(142,715,o),
(126,712,c),
(126,242,l),
(142,239,o),
(158,238,o),
(174,238,cs)
);
},
{
pos = (31,0);
ref = period;
}
);
width = 339;
}
);
unicode = 33;
},
{
color = 3;
glyphname = question;
kernLeft = question;
lastChange = "2025-10-02 11:49:49 +0000";
layers = (
{
layerId = "6DBDBFCA-DF26-4695-B281-FA25C6EAD80F";
shapes = (
{
closed = 1;
nodes = (
(253,237,o),
(269,239,o),
(284,243,c),
(284,279,ls),
(284,319,o),
(293,331,o),
(322,348,cs),
(345,363,ls),
(407,400,o),
(451,440,o),
(451,535,cs),
(451,622,o),
(394,724,o),
(247,724,cs),
(119,724,o),
(52,643,o),
(40,578,c),
(68,562,o),
(96,553,o),
(127,552,c),
(139,600,o),
(187,635,o),
(246,635,cs),
(317,635,o),
(357,590,o),
(357,529,cs),
(357,491,o),
(341,463,o),
(295,434,cs),
(267,417,ls),
(224,392,o),
(190,356,o),
(190,284,cs),
(190,243,l),
(206,239,o),
(221,237,o),
(237,237,cs)
);
},
{
pos = (95,0);
ref = period;
}
);
width = 501;
}
);
unicode = 63;
},
{
color = 6;
glyphname = periodcentered.loclCAT.case;
lastChange = "2025-10-02 11:49:48 +0000";
layers = (
{
layerId = "6DBDBFCA-DF26-4695-B281-FA25C6EAD80F";
shapes = (
{
closed = 1;
nodes = (
(-110,333,o),
(-78,364,o),
(-78,402,cs),
(-78,439,o),
(-110,470,o),
(-147,470,cs),
(-184,470,o),
(-215,439,o),
(-215,402,cs),
(-215,364,o),
(-184,333,o),
(-147,333,cs)
);
}
);
width = 0;
}
);
},
{
color = 6;
glyphname = periodcentered.loclCAT.case.cv04;
lastChange = "2025-10-02 11:49:48 +0000";
layers = (
{
layerId = "6DBDBFCA-DF26-4695-B281-FA25C6EAD80F";
shapes = (
{
closed = 1;
nodes = (
(-65,283,o),
(-33,314,o),
(-33,352,cs),
(-33,389,o),
(-65,420,o),
(-102,420,cs),
(-139,420,o),
(-170,389,o),
(-170,352,cs),
(-170,314,o),
(-139,283,o),
(-102,283,cs)
);
}
);
width = 0;
}
);
},
{
color = 6;
glyphname = bullet;
lastChange = "2025-10-02 11:49:48 +0000";
layers = (
{
layerId = "6DBDBFCA-DF26-4695-B281-FA25C6EAD80F";
shapes = (
{
closed = 1;
nodes = (
(220,261,o),
(266,304,o),
(266,357,cs),
(266,410,o),
(220,455,o),
(168,455,cs),
(115,455,o),
(72,410,o),
(72,357,cs),
(72,304,o),
(115,261,o),
(168,261,cs)
);
}
);
width = 348;
}
);
metricLeft = period;
metricRight = period;
unicode = 8226;
},
{
color = 6;
glyphname = asterisk;
kernLeft = sups;
kernRight = sups;
lastChange = "2025-10-02 11:49:48 +0000";
layers = (
{
layerId = "6DBDBFCA-DF26-4695-B281-FA25C6EAD80F";
name = Regular;
shapes = (
{
closed = 1;
nodes = (
(232,503,l),
(382,420,l),
(401,436,o),
(413,455,o),
(413,481,c),
(302,542,l),
(413,604,l),
(411,627,o),
(402,648,o),
(380,663,c),
(232,581,l),
(84,663,l),
(62,649,o),
(53,627,o),
(50,604,c),
(162,542,l),
(50,481,l),
(52,455,o),
(64,435,o),
(82,420,c)
);
},
{
closed = 1;
nodes = (
(242,346,o),
(254,348,o),
(266,354,c),
(266,729,l),
(254,732,o),
(242,733,o),
(232,733,cs),
(221,733,o),
(209,732,o),
(198,729,c),
(198,354,l),
(209,348,o),
(221,346,o),
(231,346,cs)
);
}
);
width = 463;
}
);
unicode = 42;
},
{
color = 6;
glyphname = numbersign;
lastChange = "2025-10-02 11:49:48 +0000";
layers = (
{
layerId = "6DBDBFCA-DF26-4695-B281-FA25C6EAD80F";
shapes = (
{
closed = 1;
nodes = (
(433,708,l),
(416,725,o),
(373,736,o),
(344,731,c),
(144,16,l),
(159,-3,o),
(198,-13,o),
(235,-8,c)
);
},
{
closed = 1;
nodes = (
(776,157,l),
(781,180,o),
(782,216,o),
(776,237,c),
(65,237,l),
(58,209,o),
(59,186,o),
(65,157,c)
);
},
{
closed = 1;
nodes = (
(768,707,l),
(751,724,o),
(708,735,o),
(679,730,c),
(481,15,l),
(500,-4,o),
(541,-14,o),
(572,-9,c)
);
},
{
closed = 1;
nodes = (
(851,451,l),
(856,474,o),
(857,510,o),
(851,531,c),
(140,531,l),
(133,503,o),
(134,480,o),
(140,451,c)
);
}
);
width = 915;
}
);
unicode = 35;
},
{
color = 6;
glyphname = slash;
lastChange = "2025-10-02 11:49:48 +0000";
layers = (
{
layerId = "6DBDBFCA-DF26-4695-B281-FA25C6EAD80F";
shapes = (
{
closed = 1;
nodes = (
(74,-10,o),
(110,-10,c),
(402,704,l),
(388,720,o),
(349,734,o),
(323,732,c),
(30,20,l),
(50,1,o)
);
}
);
width = 432;
}
);
unicode = 47;
},
{
color = 6;
glyphname = eye;
lastChange = "2025-10-02 11:49:48 +0000";
layers = (
{
layerId = "6DBDBFCA-DF26-4695-B281-FA25C6EAD80F";
shapes = (
{
closed = 1;
nodes = (
(333,186,o),
(209,285,o),
(154,384,c),
(154,342,l),
(209,453,o),
(334,564,o),
(500,564,cs),
(666,564,o),
(791,453,o),
(846,342,c),
(846,383,l),
(788,285,o),
(667,186,o),
(500,186,cs)
);
},
{
closed = 1;
nodes = (
(712,99,o),
(876,239,o),
(932,362,c),
(876,495,o),
(713,651,o),
(500,651,cs),
(287,651,o),
(124,495,o),
(68,362,c),
(124,239,o),
(288,99,o),
(500,99,cs)
);
},
{
closed = 1;
nodes = (
(423,407,o),
(397,433,o),
(397,465,cs),
(397,496,o),
(423,522,o),
(455,522,cs),
(486,522,o),
(512,496,o),
(512,465,cs),
(512,433,o),
(486,407,o),
(455,407,cs)
);
},
{
closed = 1;
nodes = (
(598,239,o),
(676,314,o),
(676,413,cs),
(676,512,o),
(598,587,o),
(502,587,cs),
(406,587,o),
(328,512,o),
(328,413,cs),
(328,314,o),
(406,239,o),
(502,239,cs)
);
}
);
width = 1000;
}
);
unicode = 128065;
},
{
color = 6;
glyphname = ear;
lastChange = "2025-10-02 11:49:48 +0000";
layers = (
{
layerId = "6DBDBFCA-DF26-4695-B281-FA25C6EAD80F";
shapes = (
{
closed = 1;
nodes = (
(292,68,o),
(368,-11,o),
(473,-11,cs),
(575,-11,o),
(639,72,o),
(647,156,cs),
(652,210,o),
(662,255,o),
(694,308,cs),
(718,349,o),
(765,419,o),
(765,512,cs),
(765,628,o),
(684,750,o),
(521,750,cs),
(367,750,o),
(262,623,o),
(256,480,c),
(343,478,l),
(346,586,o),
(412,666,o),
(518,666,cs),
(622,666,o),
(678,593,o),
(678,512,cs),
(678,445,o),
(645,396,o),
(619,352,cs),
(580,286,o),
(566,224,o),
(561,164,cs),
(555,111,o),
(528,76,o),
(473,76,cs),
(409,76,o),
(372,115,o),
(351,213,c),
(267,197,l)
);
},
{
closed = 1;
nodes = (
(475,189,o),
(542,239,o),
(542,310,cs),
(542,355,o),
(519,391,o),
(495,420,cs),
(476,443,o),
(462,462,o),
(462,489,cs),
(462,525,o),
(482,542,o),
(511,542,cs),
(541,542,o),
(555,521,o),
(555,494,cs),
(555,482,o),
(553,473,o),
(547,458,c),
(618,429,l),
(627,449,o),
(632,473,o),
(632,494,cs),
(632,557,o),
(592,619,o),
(513,619,cs),
(440,619,o),
(385,566,o),
(385,489,cs),
(385,433,o),
(416,395,o),
(436,372,cs),
(455,347,o),
(466,331,o),
(466,310,cs),
(466,281,o),
(440,266,o),
(403,266,c),
(412,191,l)
);
}
);
width = 1000;
}
);
unicode = 128066;
},
{
color = 6;
glyphname = mouth;
lastChange = "2025-10-02 11:49:48 +0000";
layers = (
{
guides = (
{
pos = (135,364);
}
);
layerId = "6DBDBFCA-DF26-4695-B281-FA25C6EAD80F";
shapes = (
{
closed = 1;
nodes = (
(702,81,o),
(868,184,o),
(954,364,c),
(894,496,o),
(765,595,o),
(652,595,cs),
(597,595,o),
(546,575,o),
(500,537,c),
(458,575,o),
(404,595,o),
(348,595,cs),
(236,595,o),
(105,495,o),
(46,364,c),
(125,187,o),
(295,81,o),
(500,81,cs)
);
},
{
closed = 1;
nodes = (
(343,167,o),
(218,237,o),
(144,365,c),
(208,460,o),
(279,511,o),
(350,511,cs),
(398,511,o),
(438,491,o),
(479,448,cs),
(488,439,o),
(492,437,o),
(499,437,cs),
(506,437,o),
(511,440,o),
(519,448,cs),
(563,492,o),
(602,511,o),
(650,511,cs),
(724,511,o),
(803,455,o),
(857,364,c),
(783,237,o),
(657,167,o),
(500,167,cs)
);
},
{
closed = 1;
nodes = (
(632,298,o),
(758,307,o),
(879,324,c),
(877,394,l),
(754,379,o),
(628,372,o),
(499,372,cs),
(371,372,o),
(246,379,o),
(121,394,c),
(123,323,l),
(248,306,o),
(373,298,o),
(501,298,cs)
);
}
);
width = 1000;
}
);
unicode = 128068;
},
{
color = 6;
glyphname = cent;
lastChange = "2025-10-02 11:49:48 +0000";
layers = (
{
layerId = "6DBDBFCA-DF26-4695-B281-FA25C6EAD80F";
shapes = (
{
closed = 1;
nodes = (
(428,84,o),
(506,116,o),
(547,167,c),
(539,192,o),
(516,220,o),
(488,229,c),
(455,192,o),
(400,170,o),
(339,170,cs),
(220,170,o),
(148,247,o),
(148,370,cs),
(148,493,o),
(220,568,o),
(338,568,cs),
(393,568,o),
(440,550,o),
(476,515,c),
(507,525,o),
(529,557,o),
(532,582,c),
(488,627,o),
(414,654,o),
(336,654,cs),
(169,654,o),
(60,540,o),
(60,369,cs),
(60,197,o),
(172,84,o),
(341,84,cs)
);
},
{
closed = 1;
nodes = (
(333,-51,o),
(346,-49,o),
(359,-44,c),
(359,782,l),
(348,787,o),
(336,789,o),
(320,789,cs),
(307,789,o),
(295,787,o),
(280,782,c),
(280,-44,l),
(293,-49,o),
(305,-51,o),
(320,-51,cs)
);
}
);
width = 597;
}
);
unicode = 162;
},
{
color = 3;
glyphname = dollar;
lastChange = "2025-10-02 11:49:49 +0000";
layers = (
{
layerId = "6DBDBFCA-DF26-4695-B281-FA25C6EAD80F";
shapes = (
{
ref = S;
},
{
closed = 1;
nodes = (
(310,-141,o),
(323,-139,o),
(336,-134,c),
(336,882,l),
(325,887,o),
(313,889,o),
(297,889,cs),
(284,889,o),
(272,887,o),
(257,882,c),
(257,-134,l),
(270,-139,o),
(282,-141,o),
(297,-141,cs)
);
}
);
width = 590;
}
);
unicode = 36;
},
{
color = 6;
glyphname = dong;
lastChange = "2025-10-02 11:49:48 +0000";
layers = (
{
layerId = "6DBDBFCA-DF26-4695-B281-FA25C6EAD80F";
shapes = (
{
closed = 1;
nodes = (
(374,158,o),
(449,208,o),
(476,314,c),
(438,299,l),
(438,156,l),
(469,146,o),
(496,146,o),
(521,156,c),
(521,880,l),
(506,885,o),
(492,887,o),
(476,887,cs),
(459,887,o),
(442,884,o),
(430,880,c),
(430,399,ls),
(430,304,o),
(368,244,o),
(295,244,cs),
(225,244,o),
(179,299,o),
(179,380,cs),
(179,465,o),
(230,532,o),
(314,532,cs),
(369,532,o),
(415,502,o),
(438,453,c),
(440,557,l),
(409,595,o),
(357,618,o),
(299,618,cs),
(174,618,o),
(86,513,o),
(86,381,cs),
(86,253,o),
(168,158,o),
(287,158,cs)
);
},
{
closed = 1;
nodes = (
(569,0,l),
(579,21,o),
(579,59,o),
(569,80,c),
(114,80,l),
(105,59,o),
(105,21,o),
(114,0,c)
);
},
{
closed = 1;
nodes = (
(596,702,l),
(606,723,o),
(606,761,o),
(596,782,c),
(291,782,l),
(282,761,o),
(282,723,o),
(291,702,c)
);
}
);
width = 633;
}
);
unicode = 8363;
},
{
color = 3;
glyphname = euro;
lastChange = "2025-10-02 11:49:49 +0000";
layers = (
{
anchors = (
{
name = bottom;
pos = (506,0);
}
);
layerId = "6DBDBFCA-DF26-4695-B281-FA25C6EAD80F";
shapes = (
{
closed = 1;
nodes = (
(617,-14,o),
(713,25,o),
(764,88,c),
(753,111,o),
(725,140,o),
(704,150,c),
(660,103,o),
(588,75,o),
(510,75,cs),
(354,75,o),
(258,185,o),
(258,362,cs),
(258,538,o),
(354,647,o),
(508,647,cs),
(581,647,o),
(641,624,o),
(690,577,c),
(714,590,o),
(740,624,o),
(745,648,c),
(691,703,o),
(607,736,o),
(504,736,cs),
(295,736,o),
(163,586,o),
(163,361,cs),
(163,134,o),
(298,-14,o),
(510,-14,cs)
);
},
{
pos = (-55,73);
ref = minus;
},
{
pos = (-55,-99);
ref = minus;
}
);
width = 806;
}
);
unicode = 8364;
},
{
color = 6;
glyphname = liraTurkish;
lastChange = "2025-10-02 11:49:48 +0000";
layers = (
{
layerId = "6DBDBFCA-DF26-4695-B281-FA25C6EAD80F";
shapes = (
{
closed = 1;
nodes = (
(212,0,ls),
(453,0,o),
(597,138,o),
(610,379,c),
(584,388,o),
(556,388,o),
(526,379,c),
(512,194,o),
(409,86,o),
(246,86,c),
(253,43,l),
(253,736,l),
(222,746,o),
(191,746,o),
(160,736,c),
(160,0,l)
);
},
{
closed = 1;
nodes = (
(446,448,l),
(448,481,o),
(440,507,o),
(417,523,c),
(45,379,l),
(43,348,o),
(52,324,o),
(75,305,c)
);
},
{
closed = 1;
nodes = (
(446,582,l),
(448,615,o),
(440,641,o),
(417,657,c),
(45,515,l),
(43,486,o),
(51,461,o),
(74,440,c)
);
}
);
width = 678;
}
);
unicode = 8378;
},
{
color = 6;
glyphname = sterling;
lastChange = "2025-10-02 11:49:48 +0000";
layers = (
{
layerId = "6DBDBFCA-DF26-4695-B281-FA25C6EAD80F";
shapes = (
{
closed = 1;
nodes = (
(191,593,o),
(246,641,o),
(330,641,cs),
(416,641,o),
(467,587,o),
(468,495,c),
(500,492,o),
(531,496,o),
(560,508,c),
(553,638,o),
(462,730,o),
(331,730,cs),
(196,730,o),
(97,639,o),
(97,516,cs),
(97,478,o),
(104,453,o),
(132,385,cs),
(160,318,o),
(167,294,o),
(167,261,cs),
(167,195,o),
(127,118,o),
(69,73,c),
(70,43,o),
(80,16,o),
(97,-1,c),
(129,6,o),
(182,11,o),
(225,11,cs),
(256,11,o),
(274,9,o),
(329,-2,cs),
(366,-9,o),
(407,-14,o),
(437,-14,cs),
(493,-14,o),
(553,2,o),
(585,25,c),
(585,58,o),
(576,82,o),
(556,102,c),
(513,83,o),
(466,73,o),
(421,73,cs),
(401,73,o),
(390,74,o),
(342,83,cs),
(297,91,o),
(275,94,o),
(252,94,cs),
(226,94,o),
(205,91,o),
(164,83,c),
(180,65,l),
(231,123,o),
(259,193,o),
(259,260,cs),
(259,295,o),
(251,327,o),
(222,400,cs),
(198,461,o),
(191,488,o),
(191,520,cs)
);
},
{
closed = 1;
nodes = (
(405,286,l),
(414,308,o),
(414,346,o),
(405,367,c),
(67,367,l),
(58,346,o),
(58,308,o),
(67,286,c)
);
}
);
width = 630;
}
);
unicode = 163;
},
{
color = 3;
glyphname = plus;
lastChange = "2025-10-02 11:49:49 +0000";
layers = (
{
layerId = "6DBDBFCA-DF26-4695-B281-FA25C6EAD80F";
shapes = (
{
closed = 1;
nodes = (
(329,125,o),
(370,125,o),
(392,134,c),
(392,611,l),
(370,620,o),
(329,620,o),
(307,611,c),
(307,134,l)
);
},
{
ref = minus;
}
);
width = 700;
}
);
metricWidth = "=700";
unicode = 43;
},
{
color = 6;
glyphname = minus;
lastChange = "2025-10-02 11:49:48 +0000";
layers = (
{
layerId = "6DBDBFCA-DF26-4695-B281-FA25C6EAD80F";
shapes = (
{
closed = 1;
nodes = (
(589,332,l),
(598,354,o),
(598,392,o),
(589,413,c),
(112,413,l),
(103,392,o),
(103,354,o),
(112,332,c)
);
}
);
width = 700;
}
);
metricWidth = "=700";
unicode = 8722;
},
{
color = 3;
glyphname = notequal;
lastChange = "2025-10-02 11:49:49 +0000";
layers = (
{
guides = (
{
pos = (130,0);
},
{
pos = (64,534);
}
);
layerId = "6DBDBFCA-DF26-4695-B281-FA25C6EAD80F";
shapes = (
{
ref = equal;
},
{
closed = 1;
nodes = (
(206,66,o),
(230,53,o),
(267,53,c),
(514,659,l),
(500,678,o),
(461,694,o),
(435,692,c),
(187,88,l)
);
}
);
width = 700;
}
);
metricWidth = "=700";
unicode = 8800;
},
{
color = 6;
glyphname = greater;
lastChange = "2025-10-02 11:49:48 +0000";
layers = (
{
layerId = "6DBDBFCA-DF26-4695-B281-FA25C6EAD80F";
shapes = (
{
closed = 1;
nodes = (
(546,343,l),
(551,365,o),
(551,380,o),
(546,403,c),
(210,618,l),
(182,606,o),
(165,583,o),
(165,548,c),
(477,349,l),
(477,397,l),
(165,194,l),
(165,157,o),
(183,134,o),
(207,123,c)
);
}
);
width = 700;
}
);
metricWidth = "=700";
unicode = 62;
},
{
color = 3;
glyphname = plusminus;
lastChange = "2025-10-02 11:49:49 +0000";
layers = (
{
guides = (
{
pos = (3,134);
},
{
pos = (3,611);
}
);
layerId = "6DBDBFCA-DF26-4695-B281-FA25C6EAD80F";
shapes = (
{
closed = 1;
nodes = (
(329,275,o),
(370,275,o),
(392,284,c),
(392,611,l),
(370,620,o),
(329,620,o),
(307,611,c),
(307,284,l)
);
},
{
pos = (0,85);
ref = minus;
},
{
pos = (0,-198);
ref = minus;
}
);
width = 700;
}
);
unicode = 177;
},
{
color = 6;
glyphname = asciitilde;
lastChange = "2025-10-02 11:49:48 +0000";
layers = (
{
layerId = "6DBDBFCA-DF26-4695-B281-FA25C6EAD80F";
shapes = (
{
closed = 1;
nodes = (
(542,280,o),
(590,341,o),
(603,421,c),
(584,440,o),
(554,449,o),
(522,444,c),
(515,394,o),
(492,366,o),
(458,366,cs),
(430,366,o),
(413,377,o),
(370,404,cs),
(310,441,o),
(280,456,o),
(235,456,cs),
(165,456,o),
(104,400,o),
(97,317,c),
(114,297,o),
(141,288,o),
(177,291,c),
(184,346,o),
(206,370,o),
(238,370,cs),
(263,370,o),
(275,363,o),
(343,323,cs),
(386,298,o),
(421,280,o),
(467,280,cs)
);
}
);
width = 700;
}
);
metricWidth = "=700";
unicode = 126;
},
{
color = 6;
glyphname = logicalnot;
lastChange = "2025-10-02 11:49:48 +0000";
layers = (
{
layerId = "6DBDBFCA-DF26-4695-B281-FA25C6EAD80F";
shapes = (
{
closed = 1;
nodes = (
(525,332,l),
(525,168,l),
(555,156,o),
(584,156,o),
(610,168,c),
(610,413,l),
(112,413,l),
(103,392,o),
(103,354,o),
(112,332,c)
);
}
);
width = 700;
}
);
metricWidth = "=700";
unicode = 172;
},
{
color = 6;
glyphname = asciicircum;
lastChange = "2025-10-02 11:49:48 +0000";
layers = (
{
layerId = "6DBDBFCA-DF26-4695-B281-FA25C6EAD80F";
shapes = (
{
closed = 1;
nodes = (
(374,745,l),
(326,745,l),
(488,493,l),
(525,493,o),
(548,511,o),
(559,535,c),
(380,814,l),
(358,819,o),
(343,819,o),
(320,814,c),
(141,535,l),
(153,507,o),
(176,490,o),
(211,490,c)
);
}
);
width = 700;
}
);
metricWidth = "=700";
unicode = 94;
},
{
color = 3;
glyphname = perthousand;
lastChange = "2025-10-02 11:49:49 +0000";
layers = (
{
layerId = "6DBDBFCA-DF26-4695-B281-FA25C6EAD80F";
shapes = (
{
closed = 1;
nodes = (
(993,-14,o),
(1053,22,o),
(1085,78,c),
(1055,78,l),
(1087,22,o),
(1147,-14,o),
(1219,-14,cs),
(1327,-14,o),
(1407,67,o),
(1407,176,cs),
(1407,286,o),
(1327,366,o),
(1219,366,cs),
(1147,366,o),
(1086,330,o),
(1054,274,c),
(1084,273,l),
(1051,331,o),
(993,366,o),
(921,366,cs),
(812,366,o),
(731,285,o),
(731,176,cs),
(731,68,o),
(813,-14,o),
(921,-14,cs)
);
},
{
alignment = -1;
ref = degree;
},
{
alignment = -1;
pos = (372,0);
ref = slash;
},
{
closed = 1;
nodes = (
(857,62,o),
(811,109,o),
(811,176,cs),
(811,243,o),
(857,290,o),
(921,290,cs),
(984,290,o),
(1029,242,o),
(1029,176,cs),
(1029,110,o),
(984,62,o),
(921,62,cs)
);
},
{
closed = 1;
nodes = (
(1155,62,o),
(1109,109,o),
(1109,176,cs),
(1109,243,o),
(1155,290,o),
(1219,290,cs),
(1282,290,o),
(1327,242,o),
(1327,176,cs),
(1327,110,o),
(1282,62,o),
(1219,62,cs)
);
}
);
width = 1475;
}
);
metricLeft = percent;
metricRight = percent;
unicode = 8240;
},
{
color = 6;
glyphname = rightArrow;
lastChange = "2025-10-02 11:49:48 +0000";
layers = (
{
layerId = "6DBDBFCA-DF26-4695-B281-FA25C6EAD80F";
shapes = (
{
closed = 1;
nodes = (
(64,384,o),
(64,341,o),
(75,318,c),
(341,318,o),
(445,324,o),
(629,340,c),
(635,352,o),
(635,374,o),
(629,384,c),
(445,401,o),
(341,406,o),
(75,406,c)
);
},
{
closed = 1;
nodes = (
(474,368,l),
(629,384,l),
(458,537,l),
(442,538,o),
(425,527,o),
(419,516,c)
);
},
{
closed = 1;
nodes = (
(425,197,o),
(442,186,o),
(458,187,c),
(629,340,l),
(474,356,l),
(419,208,l)
);
}
);
width = 700;
}
);
metricWidth = "=700";
unicode = 8594;
},
{
color = 6;
glyphname = leftRightDoubleArrow;
lastChange = "2025-10-02 11:49:48 +0000";
layers = (
{
layerId = "6DBDBFCA-DF26-4695-B281-FA25C6EAD80F";
shapes = (
{
closed = 1;
nodes = (
(593,208,l),
(599,197,o),
(616,186,o),
(632,187,c),
(803,340,l),
(809,352,o),
(809,374,o),
(803,384,c),
(632,537,l),
(616,538,o),
(599,527,o),
(593,516,c),
(650,362,l)
);
},
{
closed = 1;
nodes = (
(257,516,l),
(251,527,o),
(234,538,o),
(218,537,c),
(47,384,l),
(41,374,o),
(41,352,o),
(47,340,c),
(218,187,l),
(234,186,o),
(251,197,o),
(257,208,c),
(200,362,l)
);
},
{
closed = 1;
nodes = (
(339,337,o),
(264,335,o),
(200,332,c),
(200,293,l),
(264,290,o),
(339,288,o),
(425,288,cs),
(511,288,o),
(586,290,o),
(650,293,c),
(650,332,l),
(586,335,o),
(511,337,o),
(425,337,cs)
);
},
{
closed = 1;
nodes = (
(339,437,o),
(264,435,o),
(200,432,c),
(200,393,l),
(264,390,o),
(339,388,o),
(425,388,cs),
(511,388,o),
(586,390,o),
(650,393,c),
(650,432,l),
(586,435,o),
(511,437,o),
(425,437,cs)
);
}
);
width = 850;
}
);
unicode = 8660;
},
{
color = 6;
glyphname = circle;
lastChange = "2025-10-02 11:49:48 +0000";
layers = (
{
layerId = "6DBDBFCA-DF26-4695-B281-FA25C6EAD80F";
shapes = (
{
closed = 1;
nodes = (
(452,-14,o),
(560,95,o),
(560,237,cs),
(560,378,o),
(452,486,o),
(311,486,cs),
(169,486,o),
(60,378,o),
(60,237,cs),
(60,95,o),
(169,-14,o),
(311,-14,cs)
);
},
{
closed = 1;
nodes = (
(213,61,o),
(140,136,o),
(140,236,cs),
(140,336,o),
(213,411,o),
(310,411,cs),
(407,411,o),
(480,335,o),
(480,236,cs),
(480,137,o),
(407,61,o),
(310,61,cs)
);
}
);
width = 620;
}
);
unicode = 9675;
},
{
color = 6;
glyphname = largeCircle;
lastChange = "2025-10-02 11:49:48 +0000";
layers = (
{
layerId = "6DBDBFCA-DF26-4695-B281-FA25C6EAD80F";
shapes = (
{
closed = 1;
nodes = (
(647,-14,o),
(810,150,o),
(810,362,cs),
(810,573,o),
(646,736,o),
(435,736,cs),
(224,736,o),
(60,573,o),
(60,362,cs),
(60,150,o),
(223,-14,o),
(435,-14,cs)
);
},
{
closed = 1;
nodes = (
(270,66,o),
(145,194,o),
(145,362,cs),
(145,529,o),
(271,656,o),
(435,656,cs),
(599,656,o),
(725,529,o),
(725,362,cs),
(725,194,o),
(600,66,o),
(435,66,cs)
);
}
);
width = 870;
}
);
unicode = 9711;
},
{
color = 6;
glyphname = dottedCircle;
lastChange = "2025-10-02 11:49:48 +0000";
layers = (
{
anchors = (
{
name = bottom;
pos = (476,0);
},
{
name = center;
pos = (476,362);
},
{
name = horn;
pos = (712,591);
},
{
name = top;
pos = (476,722);
}
);
layerId = "6DBDBFCA-DF26-4695-B281-FA25C6EAD80F";
shapes = (
{
closed = 1;
nodes = (
(629,616,o),
(650,637,o),
(650,663,cs),
(650,689,o),
(629,710,o),
(601,710,cs),
(572,710,o),
(552,689,o),
(552,663,cs),
(552,637,o),
(572,616,o),
(601,616,cs)
);
},
{
closed = 1;
nodes = (
(735,545,o),
(756,566,o),
(756,592,cs),
(756,618,o),
(735,639,o),
(707,639,cs),
(678,639,o),
(658,618,o),
(658,592,cs),
(658,566,o),
(678,545,o),
(707,545,cs)
);
},
{
closed = 1;
nodes = (
(806,438,o),
(827,459,o),
(827,485,cs),
(827,511,o),
(806,532,o),
(778,532,cs),
(749,532,o),
(729,511,o),
(729,485,cs),
(729,459,o),
(749,438,o),
(778,438,cs)
);
},
{
closed = 1;
nodes = (
(831,315,o),
(852,336,o),
(852,362,cs),
(852,388,o),
(831,409,o),
(803,409,cs),
(774,409,o),
(754,388,o),
(754,362,cs),
(754,336,o),
(774,315,o),
(803,315,cs)
);
},
{
closed = 1;
nodes = (
(380,616,o),
(400,637,o),
(400,663,cs),
(400,689,o),
(380,710,o),
(351,710,cs),
(323,710,o),
(302,689,o),
(302,663,cs),
(302,637,o),
(323,616,o),
(351,616,cs)
);
},
{
closed = 1;
nodes = (
(274,545,o),
(294,566,o),
(294,592,cs),
(294,618,o),
(274,639,o),
(245,639,cs),
(217,639,o),
(196,618,o),
(196,592,cs),
(196,566,o),
(217,545,o),
(245,545,cs)
);
},
{
closed = 1;
nodes = (
(203,438,o),
(223,459,o),
(223,485,cs),
(223,511,o),
(203,532,o),
(174,532,cs),
(146,532,o),
(125,511,o),
(125,485,cs),
(125,459,o),
(146,438,o),
(174,438,cs)
);
},
{
closed = 1;
nodes = (
(178,315,o),
(198,336,o),
(198,362,cs),
(198,388,o),
(178,409,o),
(149,409,cs),
(121,409,o),
(100,388,o),
(100,362,cs),
(100,336,o),
(121,315,o),
(149,315,cs)
);
},
{
closed = 1;
nodes = (
(572,108,o),
(552,87,o),
(552,61,cs),
(552,35,o),
(572,14,o),
(601,14,cs),
(629,14,o),
(650,35,o),
(650,61,cs),
(650,87,o),
(629,108,o),
(601,108,cs)
);
},
{
closed = 1;
nodes = (
(678,179,o),
(658,158,o),
(658,132,cs),
(658,106,o),
(678,85,o),
(707,85,cs),
(735,85,o),
(756,106,o),
(756,132,cs),
(756,158,o),
(735,179,o),
(707,179,cs)
);
},
{
closed = 1;
nodes = (
(749,286,o),
(729,265,o),
(729,239,cs),
(729,213,o),
(749,192,o),
(778,192,cs),
(806,192,o),
(827,213,o),
(827,239,cs),
(827,265,o),
(806,286,o),
(778,286,cs)
);
},
{
closed = 1;
nodes = (
(323,108,o),
(302,87,o),
(302,61,cs),
(302,35,o),
(323,14,o),
(351,14,cs),
(380,14,o),
(400,35,o),
(400,61,cs),
(400,87,o),
(380,108,o),
(351,108,cs)
);
},
{
closed = 1;
nodes = (
(217,179,o),
(196,158,o),
(196,132,cs),
(196,106,o),
(217,85,o),
(245,85,cs),
(274,85,o),
(294,106,o),
(294,132,cs),
(294,158,o),
(274,179,o),
(245,179,cs)
);
},
{
closed = 1;
nodes = (
(146,286,o),
(125,265,o),
(125,239,cs),
(125,213,o),
(146,192,o),
(174,192,cs),
(203,192,o),
(223,213,o),
(223,239,cs),
(223,265,o),
(203,286,o),
(174,286,cs)
);
},
{
closed = 1;
nodes = (
(504,-12,o),
(525,9,o),
(525,35,cs),
(525,61,o),
(504,82,o),
(476,82,cs),
(447,82,o),
(427,61,o),
(427,35,cs),
(427,9,o),
(447,-12,o),
(476,-12,cs)
);
},
{
closed = 1;
nodes = (
(504,641,o),
(525,662,o),
(525,688,cs),
(525,714,o),
(504,735,o),
(476,735,cs),
(447,735,o),
(427,714,o),
(427,688,cs),
(427,662,o),
(447,641,o),
(476,641,cs)
);
}
);
width = 926;
}
);
unicode = 9676;
},
{
color = 6;
glyphname = pencil;
lastChange = "2025-10-02 11:49:48 +0000";
layers = (
{
layerId = "6DBDBFCA-DF26-4695-B281-FA25C6EAD80F";
shapes = (
{
closed = 1;
nodes = (
(842,569,l),
(716,695,l),
(539,748,l),
(193,402,l),
(126,0,l),
(532,58,l),
(874,400,l)
);
},
{
closed = 1;
nodes = (
(747,526,o),
(744,543,o),
(711,578,cs),
(678,611,o),
(661,614,o),
(652,605,cs),
(642,596,o),
(645,579,o),
(679,545,cs),
(713,512,o),
(729,509,o),
(738,517,cs)
);
},
{
closed = 1;
nodes = (
(829,438,l),
(721,481,l),
(620,582,l),
(582,693,l),
(514,663,l),
(557,541,l),
(680,419,l),
(798,373,l)
);
},
{
closed = 1;
nodes = (
(684,488,l),
(392,197,l),
(442,146,l),
(733,438,l)
);
},
{
closed = 1;
nodes = (
(489,122,l),
(303,95,l),
(266,107,o),
(239,126,o),
(224,173,c),
(258,367,l),
(562,671,l),
(674,634,l),
(774,534,l),
(799,425,l)
);
},
{
closed = 1;
nodes = (
(569,602,l),
(278,311,l),
(327,260,l),
(619,552,l)
);
},
{
closed = 1;
nodes = (
(531,140,l),
(423,183,l),
(322,284,l),
(277,416,l),
(225,402,l),
(274,258,l),
(396,135,l),
(514,89,l)
);
}
);
width = 1000;
}
);
unicode = 9999;
},
{
color = 3;
glyphname = at;
lastChange = "2025-10-02 11:49:49 +0000";
layers = (
{
layerId = "6DBDBFCA-DF26-4695-B281-FA25C6EAD80F";
shapes = (
{
closed = 1;
nodes = (
(708,-298,o),
(780,-290,o),
(833,-273,c),
(838,-247,o),
(834,-210,o),
(816,-190,c),
(748,-205,o),
(700,-208,o),
(655,-208,cs),
(382,-208,o),
(196,-28,o),
(196,247,cs),
(196,493,o),
(374,684,o),
(627,684,cs),
(867,684,o),
(1040,514,o),
(1040,271,cs),
(1040,144,o),
(967,72,o),
(882,72,c),
(875,-14,l),
(1012,-14,o),
(1136,65,o),
(1136,275,cs),
(1136,566,o),
(916,774,o),
(628,774,cs),
(323,774,o),
(100,539,o),
(100,243,cs),
(100,-86,o),
(322,-298,o),
(648,-298,cs)
);
},
{
pos = (340,0);
ref = a.init;
}
);
width = 1236;
}
);
unicode = 64;
},
{
color = 3;
glyphname = ampersand;
lastChange = "2025-10-02 11:49:49 +0000";
layers = (
{
layerId = "6DBDBFCA-DF26-4695-B281-FA25C6EAD80F";
shapes = (
{
closed = 1;
nodes = (
(245,72,o),
(173,124,o),
(173,214,cs),
(173,289,o),
(233,334,o),
(312,334,cs),
(358,334,l),
(365,352,o),
(364,394,o),
(356,416,c),
(312,416,ls),
(229,416,o),
(173,462,o),
(173,532,cs),
(173,605,o),
(233,650,o),
(322,650,cs),
(402,650,o),
(456,614,o),
(472,547,c),
(511,547,o),
(540,555,o),
(563,573,c),
(535,679,o),
(452,736,o),
(326,736,cs),
(177,736,o),
(79,655,o),
(79,532,cs),
(79,453,o),
(118,391,o),
(189,358,c),
(190,385,l),
(119,351,o),
(79,289,o),
(79,208,cs),
(79,78,o),
(184,-14,o),
(357,-14,cs),
(568,-14,o),
(665,123,o),
(665,271,cs),
(665,397,o),
(595,441,o),
(553,441,cs),
(515,441,o),
(477,399,o),
(468,345,c),
(499,315,o),
(560,293,o),
(611,284,c),
(578,334,l),
(581,309,o),
(582,299,o),
(582,285,cs),
(582,163,o),
(503,72,o),
(360,72,cs)
);
},
{
pos = (530,-38);
ref = _part.b.fin;
}
);
width = 834;
}
);
unicode = 38;
},
{
color = 6;
glyphname = paragraph;
lastChange = "2025-10-02 11:49:48 +0000";
layers = (
{
layerId = "6DBDBFCA-DF26-4695-B281-FA25C6EAD80F";
shapes = (
{
closed = 1;
nodes = (
(654,-257,o),
(669,-255,o),
(681,-250,c),
(681,722,l),
(373,722,ls),
(189,722,o),
(70,638,o),
(70,469,cs),
(70,296,o),
(193,211,o),
(382,211,cs),
(424,211,l),
(424,-250,l),
(456,-259,o),
(490,-259,o),
(518,-250,c),
(518,635,l),
(595,635,l),
(595,-250,l),
(609,-255,o),
(622,-257,o),
(638,-257,cs)
);
}
);
width = 761;
}
);
unicode = 182;
},
{
color = 6;
glyphname = section;
lastChange = "2025-10-02 11:49:48 +0000";
layers = (
{
layerId = "6DBDBFCA-DF26-4695-B281-FA25C6EAD80F";
shapes = (
{
closed = 1;
nodes = (
(448,25,l),
(506,61,o),
(542,122,o),
(542,198,cs),
(542,295,o),
(485,368,o),
(391,393,cs),
(273,425,ls),
(206,444,o),
(170,482,o),
(170,534,cs),
(170,601,o),
(227,647,o),
(310,647,cs),
(378,647,o),
(432,617,o),
(464,562,c),
(496,572,o),
(526,595,o),
(538,617,c),
(504,688,o),
(415,735,o),
(313,735,cs),
(176,735,o),
(76,648,o),
(76,528,cs),
(76,438,o),
(132,370,o),
(226,344,cs),
(359,307,ls),
(417,291,o),
(448,253,o),
(448,197,cs),
(448,152,o),
(428,118,o),
(394,97,c)
);
},
{
closed = 1;
nodes = (
(158,448,l),
(98,412,o),
(60,351,o),
(60,277,cs),
(60,187,o),
(116,119,o),
(210,93,cs),
(343,56,ls),
(401,40,o),
(432,2,o),
(432,-54,cs),
(432,-129,o),
(375,-175,o),
(290,-176,cs),
(210,-177,o),
(152,-139,o),
(128,-67,c),
(99,-64,o),
(61,-82,o),
(46,-107,c),
(73,-202,o),
(155,-263,o),
(285,-264,cs),
(423,-265,o),
(526,-182,o),
(526,-53,cs),
(526,44,o),
(469,117,o),
(375,142,cs),
(257,174,ls),
(190,193,o),
(154,231,o),
(154,283,cs),
(154,331,o),
(184,369,o),
(231,386,c)
);
}
);
width = 588;
}
);
unicode = 167;
},
{
color = 3;
glyphname = copyright;
lastChange = "2025-10-02 11:49:49 +0000";
layers = (
{
layerId = "6DBDBFCA-DF26-4695-B281-FA25C6EAD80F";
shapes = (
{
ref = largeCircle;
},
{
closed = 1;
nodes = (
(499,184,o),
(549,206,o),
(574,243,c),
(568,267,o),
(547,286,o),
(524,289,c),
(508,268,o),
(476,256,o),
(444,256,cs),
(386,256,o),
(346,296,o),
(346,361,cs),
(346,424,o),
(387,466,o),
(441,466,cs),
(475,466,o),
(500,454,o),
(520,427,c),
(546,433,o),
(565,450,o),
(571,472,c),
(546,512,o),
(499,538,o),
(441,538,cs),
(343,538,o),
(270,466,o),
(270,360,cs),
(270,253,o),
(342,184,o),
(442,184,cs)
);
}
);
width = 870;
}
);
unicode = 169;
},
{
color = 6;
glyphname = registered;
lastChange = "2025-10-02 11:49:48 +0000";
layers = (
{
layerId = "6DBDBFCA-DF26-4695-B281-FA25C6EAD80F";
shapes = (
{
closed = 1;
nodes = (
(513,408,o),
(638,534,o),
(638,698,cs),
(638,861,o),
(513,986,o),
(350,986,cs),
(186,986,o),
(60,861,o),
(60,698,cs),
(60,534,o),
(186,408,o),
(350,408,cs)
);
},
{
closed = 1;
nodes = (
(229,481,o),
(140,573,o),
(140,697,cs),
(140,821,o),
(229,913,o),
(349,913,cs),
(468,913,o),
(558,821,o),
(558,697,cs),
(558,573,o),
(468,481,o),
(349,481,cs)
);
},
{
closed = 1;
nodes = (
(296,565,o),
(311,572,c),
(311,825,l),
(290,786,l),
(356,786,ls),
(380,786,o),
(398,775,o),
(398,751,cs),
(398,726,o),
(380,712,o),
(355,712,cs),
(292,712,l),
(292,654,l),
(348,654,ls),
(418,654,o),
(465,696,o),
(465,753,cs),
(465,807,o),
(425,844,o),
(356,844,cs),
(249,844,l),
(249,572,l),
(264,565,o)
);
},
{
closed = 1;
nodes = (
(443,568,o),
(462,586,o),
(467,604,c),
(368,701,l),
(322,663,l),
(423,563,l)
);
}
);
width = 698;
}
);
unicode = 174;
},
{
color = 6;
glyphname = trademark;
lastChange = "2025-10-02 11:49:48 +0000";
layers = (
{
layerId = "6DBDBFCA-DF26-4695-B281-FA25C6EAD80F";
shapes = (
{
closed = 1;
nodes = (
(407,513,o),
(429,513,o),
(453,518,c),
(453,816,l),
(412,813,l),
(537,582,l),
(556,577,o),
(579,577,o),
(603,582,c),
(727,813,l),
(686,815,l),
(686,518,l),
(709,513,o),
(732,513,o),
(756,518,c),
(756,893,l),
(744,896,o),
(714,899,o),
(696,893,c),
(548,619,l),
(592,619,l),
(444,893,l),
(423,898,o),
(396,896,o),
(383,893,c),
(383,518,l)
);
},
{
closed = 1;
nodes = (
(163,514,o),
(181,514,o),
(208,518,c),
(208,845,l),
(136,845,l),
(136,518,l)
);
},
{
closed = 1;
nodes = (
(328,826,l),
(334,847,o),
(334,876,o),
(328,893,c),
(14,893,l),
(8,874,o),
(8,849,o),
(14,826,c)
);
}
);
width = 836;
}
);
unicode = 8482;
},
{
color = 6;
glyphname = degree;
kernLeft = sups;
kernRight = sups;
lastChange = "2025-10-02 11:49:48 +0000";
layers = (
{
layerId = "6DBDBFCA-DF26-4695-B281-FA25C6EAD80F";
shapes = (
{
closed = 1;
nodes = (
(366,356,o),
(446,437,o),
(446,546,cs),
(446,656,o),
(366,736,o),
(258,736,cs),
(149,736,o),
(68,655,o),
(68,546,cs),
(68,438,o),
(150,356,o),
(258,356,cs)
);
},
{
closed = 1;
nodes = (
(194,432,o),
(148,479,o),
(148,546,cs),
(148,613,o),
(194,660,o),
(258,660,cs),
(321,660,o),
(366,612,o),
(366,546,cs),
(366,480,o),
(321,432,o),
(258,432,cs)
);
}
);
width = 514;
}
);
unicode = 176;
},
{
color = 6;
glyphname = minute;
lastChange = "2025-10-02 11:49:48 +0000";
layers = (
{
layerId = "6DBDBFCA-DF26-4695-B281-FA25C6EAD80F";
shapes = (
{
closed = 1;
nodes = (
(286,652,ls),
(315,700,o),
(285,736,o),
(250,736,cs),
(231,736,o),
(210,725,o),
(199,698,cs),
(90,446,l),
(141,416,l)
);
}
);
width = 358;
}
);
unicode = 8242;
},
{
color = 6;
glyphname = bar;
lastChange = "2025-10-02 11:49:48 +0000";
layers = (
{
layerId = "6DBDBFCA-DF26-4695-B281-FA25C6EAD80F";
shapes = (
{
closed = 1;
nodes = (
(211,-271,o),
(225,-269,o),
(239,-264,c),
(239,972,l),
(228,977,o),
(214,979,o),
(197,979,cs),
(183,979,o),
(170,977,o),
(154,972,c),
(154,-264,l),
(168,-269,o),
(181,-271,o),
(197,-271,cs)
);
}
);
width = 393;
}
);
unicode = 124;
},
{
color = 6;
glyphname = brokenbar;
lastChange = "2025-10-02 11:49:48 +0000";
layers = (
{
layerId = "6DBDBFCA-DF26-4695-B281-FA25C6EAD80F";
shapes = (
{
closed = 1;
nodes = (
(211,479,o),
(225,481,o),
(239,486,c),
(239,972,l),
(228,977,o),
(214,979,o),
(197,979,cs),
(183,979,o),
(170,977,o),
(154,972,c),
(154,486,l),
(168,481,o),
(181,479,o),
(197,479,cs)
);
},
{
closed = 1;
nodes = (
(211,-271,o),
(225,-269,o),
(239,-264,c),
(239,222,l),
(228,227,o),
(214,229,o),
(197,229,cs),
(183,229,o),
(170,227,o),
(154,222,c),
(154,-264,l),
(168,-269,o),
(181,-271,o),
(197,-271,cs)
);
}
);
width = 393;
}
);
unicode = 166;
},
{
color = 6;
glyphname = dieresiscomb;
lastChange = "2025-10-02 11:49:48 +0000";
layers = (
{
anchors = (
{
name = _top;
pos = (284,472);
},
{
name = top;
pos = (284,730);
}
);
layerId = "6DBDBFCA-DF26-4695-B281-FA25C6EAD80F";
shapes = (
{
closed = 1;
nodes = (
(231,616,o),
(254,646,o),
(254,684,cs),
(254,722,o),
(231,752,o),
(191,752,cs),
(151,752,o),
(128,722,o),
(128,684,cs),
(128,647,o),
(151,616,o),
(191,616,cs)
);
},
{
closed = 1;
nodes = (
(409,616,o),
(432,646,o),
(432,684,cs),
(432,722,o),
(409,752,o),
(369,752,cs),
(329,752,o),
(306,722,o),
(306,684,cs),
(306,647,o),
(329,616,o),
(369,616,cs)
);
}
);
width = 557;
}
);
unicode = 776;
},
{
color = 6;
glyphname = dieresiscomb.case;
lastChange = "2025-10-02 11:49:48 +0000";
layers = (
{
anchors = (
{
name = _top;
pos = (254,722);
},
{
name = top;
pos = (252,952);
}
);
layerId = "6DBDBFCA-DF26-4695-B281-FA25C6EAD80F";
shapes = (
{
closed = 1;
nodes = (
(388,813,o),
(417,840,o),
(417,876,cs),
(417,911,o),
(388,939,o),
(354,939,cs),
(319,939,o),
(291,911,o),
(291,876,cs),
(291,841,o),
(319,813,o),
(354,813,cs)
);
},
{
closed = 1;
nodes = (
(182,813,o),
(211,840,o),
(211,876,cs),
(211,911,o),
(182,939,o),
(147,939,cs),
(113,939,o),
(85,911,o),
(85,876,cs),
(85,841,o),
(113,813,o),
(147,813,cs)
);
}
);
width = 503;
}
);
},
{
color = 6;
glyphname = dotaccentcomb;
lastChange = "2025-10-02 11:49:48 +0000";
layers = (
{
anchors = (
{
name = _top;
pos = (159,472);
},
{
name = top;
pos = (160,730);
}
);
layerId = "6DBDBFCA-DF26-4695-B281-FA25C6EAD80F";
shapes = (
{
closed = 1;
nodes = (
(199,616,o),
(228,645,o),
(228,684,cs),
(228,724,o),
(200,752,o),
(160,752,cs),
(121,752,o),
(92,724,o),
(92,684,cs),
(92,646,o),
(122,616,o),
(160,616,cs)
);
}
);
width = 316;
}
);
unicode = 775;
},
{
color = 6;
glyphname = dotaccentcomb.case;
lastChange = "2025-10-02 11:49:48 +0000";
layers = (
{
anchors = (
{
name = _top;
pos = (159,722);
},
{
name = top;
pos = (160,952);
}
);
layerId = "6DBDBFCA-DF26-4695-B281-FA25C6EAD80F";
shapes = (
{
closed = 1;
nodes = (
(199,807,o),
(228,836,o),
(228,875,cs),
(228,915,o),
(200,943,o),
(160,943,cs),
(121,943,o),
(92,915,o),
(92,875,cs),
(92,837,o),
(122,807,o),
(160,807,cs)
);
}
);
width = 316;
}
);
},
{
color = 6;
glyphname = gravecomb;
lastChange = "2025-10-02 11:49:48 +0000";
layers = (
{
anchors = (
{
name = _top;
pos = (249,472);
},
{
name = top;
pos = (249,770);
}
);
layerId = "6DBDBFCA-DF26-4695-B281-FA25C6EAD80F";
shapes = (
{
closed = 1;
nodes = (
(329,589,o),
(348,616,o),
(356,644,c),
(294,687,o),
(220,752,o),
(191,795,c),
(160,787,o),
(135,766,o),
(123,740,c),
(152,695,o),
(227,621,o),
(304,573,c)
);
}
);
width = 460;
}
);
unicode = 768;
},
{
color = 6;
glyphname = gravecomb.case;
lastChange = "2025-10-02 11:49:48 +0000";
layers = (
{
anchors = (
{
name = _top;
pos = (273,722);
},
{
name = top;
pos = (251,952);
}
);
layerId = "6DBDBFCA-DF26-4695-B281-FA25C6EAD80F";
shapes = (
{
closed = 1;
nodes = (
(372,815,o),
(382,847,o),
(381,876,c),
(309,897,o),
(209,946,o),
(168,978,c),
(141,961,o),
(123,933,o),
(121,905,c),
(161,871,o),
(265,814,o),
(353,793,c)
);
}
);
width = 503;
}
);
},
{
color = 6;
glyphname = acutecomb;
lastChange = "2025-10-02 11:49:48 +0000";
layers = (
{
anchors = (
{
name = _top;
pos = (211,472);
},
{
name = top;
pos = (210,770);
}
);
guides = (
{
pos = (283,684);
}
);
layerId = "6DBDBFCA-DF26-4695-B281-FA25C6EAD80F";
shapes = (
{
closed = 1;
nodes = (
(225,621,o),
(296,695,o),
(325,740,c),
(313,766,o),
(289,787,o),
(258,795,c),
(228,752,o),
(159,687,o),
(97,644,c),
(104,616,o),
(123,589,o),
(148,573,c)
);
}
);
width = 393;
}
);
unicode = 769;
},
{
color = 6;
glyphname = acutecomb.case;
lastChange = "2025-10-02 11:49:48 +0000";
layers = (
{
anchors = (
{
name = _top;
pos = (229,722);
},
{
name = top;
pos = (252,952);
}
);
guides = (
{
pos = (271,885);
}
);
layerId = "6DBDBFCA-DF26-4695-B281-FA25C6EAD80F";
shapes = (
{
closed = 1;
nodes = (
(237,814,o),
(341,871,o),
(381,905,c),
(379,933,o),
(361,961,o),
(334,978,c),
(293,946,o),
(193,897,o),
(121,876,c),
(120,847,o),
(130,815,o),
(149,793,c)
);
}
);
width = 503;
}
);
},
{
color = 6;
glyphname = circumflexcomb;
lastChange = "2025-10-02 11:49:48 +0000";
layers = (
{
anchors = (
{
name = _top;
pos = (274,472);
},
{
name = top;
pos = (274,770);
},
{
name = topright;
pos = (392,815);
}
);
layerId = "6DBDBFCA-DF26-4695-B281-FA25C6EAD80F";
shapes = (
{
closed = 1;
nodes = (
(188,598,o),
(258,675,o),
(300,729,c),
(249,729,l),
(282,680,o),
(356,600,o),
(393,573,c),
(416,580,o),
(443,609,o),
(451,635,c),
(409,675,o),
(356,732,o),
(304,795,c),
(282,799,o),
(266,799,o),
(243,795,c),
(191,732,o),
(137,674,o),
(96,635,c),
(104,609,o),
(131,580,o),
(154,573,c)
);
}
);
width = 547;
}
);
unicode = 770;
},
{
color = 6;
glyphname = circumflexcomb.case;
lastChange = "2025-10-02 11:49:48 +0000";
layers = (
{
anchors = (
{
name = _top;
pos = (252,722);
},
{
name = top;
pos = (252,952);
},
{
name = topright;
pos = (361,1001);
}
);
layerId = "6DBDBFCA-DF26-4695-B281-FA25C6EAD80F";
shapes = (
{
closed = 1;
nodes = (
(263,979,o),
(239,979,o),
(216,973,c),
(154,919,o),
(121,894,o),
(71,863,c),
(75,833,o),
(90,809,o),
(114,793,c),
(160,814,o),
(216,856,o),
(275,915,c),
(228,917,l),
(278,862,o),
(339,815,o),
(388,793,c),
(412,809,o),
(428,834,o),
(431,863,c),
(384,892,o),
(361,909,o),
(286,973,c)
);
}
);
width = 503;
}
);
},
{
color = 6;
glyphname = brevecomb;
lastChange = "2025-10-02 11:49:48 +0000";
layers = (
{
anchors = (
{
name = _top;
pos = (271,472);
},
{
name = top;
pos = (270,770);
}
);
layerId = "6DBDBFCA-DF26-4695-B281-FA25C6EAD80F";
shapes = (
{
closed = 1;
nodes = (
(376,573,o),
(441,637,o),
(452,753,c),
(430,768,o),
(395,773,o),
(367,766,c),
(357,695,o),
(327,658,o),
(270,658,cs),
(213,658,o),
(183,695,o),
(173,766,c),
(145,773,o),
(110,768,o),
(88,753,c),
(99,637,o),
(164,573,o),
(270,573,cs)
);
}
);
width = 557;
}
);
unicode = 774;
},
{
color = 6;
glyphname = brevecomb.case;
lastChange = "2025-10-02 11:49:48 +0000";
layers = (
{
anchors = (
{
name = _top;
pos = (279,722);
},
{
name = top;
pos = (279,952);
}
);
layerId = "6DBDBFCA-DF26-4695-B281-FA25C6EAD80F";
shapes = (
{
closed = 1;
nodes = (
(136,979,o),
(103,970,o),
(84,949,c),
(102,853,o),
(174,793,o),
(279,793,cs),
(384,793,o),
(456,853,o),
(474,949,c),
(455,970,o),
(422,979,o),
(390,972,c),
(374,909,o),
(337,878,o),
(279,878,cs),
(221,878,o),
(184,909,o),
(168,972,c)
);
}
);
width = 557;
}
);
},
{
color = 6;
glyphname = ringcomb;
lastChange = "2025-10-02 11:49:48 +0000";
layers = (
{
anchors = (
{
name = _top;
pos = (151,472);
},
{
name = top;
pos = (151,770);
}
);
guides = (
{
pos = (283,684);
}
);
layerId = "6DBDBFCA-DF26-4695-B281-FA25C6EAD80F";
shapes = (
{
closed = 1;
nodes = (
(216,568,o),
(264,618,o),
(264,684,cs),
(264,750,o),
(215,799,o),
(151,799,cs),
(86,799,o),
(37,749,o),
(37,684,cs),
(37,618,o),
(86,568,o),
(151,568,cs)
);
},
{
closed = 1;
nodes = (
(127,641,o),
(108,661,o),
(108,684,cs),
(108,708,o),
(127,727,o),
(151,727,cs),
(175,727,o),
(194,708,o),
(194,684,cs),
(194,661,o),
(175,641,o),
(151,641,cs)
);
}
);
width = 300;
}
);
unicode = 778;
},
{
color = 6;
glyphname = tildecomb;
lastChange = "2025-10-02 11:49:48 +0000";
layers = (
{
anchors = (
{
name = _top;
pos = (339,472);
},
{
name = top;
pos = (338,730);
}
);
layerId = "6DBDBFCA-DF26-4695-B281-FA25C6EAD80F";
shapes = (
{
closed = 1;
nodes = (
(388,688,o),
(365,703,o),
(345,714,cs),
(318,729,o),
(293,740,o),
(264,740,cs),
(207,740,o),
(159,697,o),
(147,636,c),
(162,619,o),
(184,614,o),
(210,613,c),
(228,644,o),
(240,659,o),
(264,659,cs),
(284,659,o),
(308,645,o),
(336,631,cs),
(378,610,o),
(395,606,o),
(413,606,cs),
(474,606,o),
(516,650,o),
(529,711,c),
(514,727,o),
(493,734,o),
(466,734,c),
(449,703,o),
(439,688,o),
(410,688,cs)
);
}
);
width = 680;
}
);
unicode = 771;
},
{
color = 6;
glyphname = hookabovecomb;
lastChange = "2025-10-02 11:49:48 +0000";
layers = (
{
anchors = (
{
name = _top;
pos = (276,472);
}
);
layerId = "6DBDBFCA-DF26-4695-B281-FA25C6EAD80F";
shapes = (
{
closed = 1;
nodes = (
(247,617,o),
(254,590,o),
(267,573,c),
(360,585,o),
(417,632,o),
(417,699,cs),
(417,769,o),
(368,810,o),
(272,810,cs),
(222,810,o),
(180,799,o),
(147,786,c),
(146,757,o),
(155,728,o),
(168,711,c),
(194,719,o),
(228,729,o),
(266,729,cs),
(306,729,o),
(325,718,o),
(325,696,cs),
(325,673,o),
(301,658,o),
(248,644,c)
);
}
);
width = 550;
}
);
unicode = 777;
},
{
color = 6;
glyphname = hookabovecomb.case;
lastChange = "2025-10-02 11:49:48 +0000";
layers = (
{
anchors = (
{
name = _top;
pos = (282,722);
},
{
name = top;
pos = (283,952);
}
);
guides = (
{
pos = (271,885);
}
);
layerId = "6DBDBFCA-DF26-4695-B281-FA25C6EAD80F";
shapes = (
{
closed = 1;
nodes = (
(247,820,o),
(254,793,o),
(267,776,c),
(360,788,o),
(417,840,o),
(417,904,cs),
(417,965,o),
(366,1003,o),
(272,1003,cs),
(222,1003,o),
(180,992,o),
(147,979,c),
(146,950,o),
(155,921,o),
(168,904,c),
(194,912,o),
(227,922,o),
(269,922,cs),
(307,922,o),
(325,914,o),
(325,897,cs),
(325,875,o),
(298,863,o),
(248,847,c)
);
}
);
width = 550;
}
);
},
{
color = 6;
glyphname = horncomb;
lastChange = "2025-10-02 11:49:48 +0000";
layers = (
{
anchors = (
{
name = _horn;
pos = (56,440);
}
);
layerId = "6DBDBFCA-DF26-4695-B281-FA25C6EAD80F";
shapes = (
{
closed = 1;
nodes = (
(74,354,l),
(171,364,o),
(230,434,o),
(230,531,cs),
(230,546,o),
(229,561,o),
(226,577,c),
(200,586,o),
(173,585,o),
(145,572,c),
(147,559,o),
(148,547,o),
(148,535,cs),
(148,475,o),
(120,440,o),
(74,440,c)
);
}
);
width = 300;
}
);
unicode = 795;
},
{
color = 6;
glyphname = horncomb.case;
lastChange = "2025-10-02 11:49:48 +0000";
layers = (
{
anchors = (
{
name = _horn;
pos = (67,722);
}
);
layerId = "6DBDBFCA-DF26-4695-B281-FA25C6EAD80F";
shapes = (
{
closed = 1;
nodes = (
(70,635,l),
(173,639,o),
(234,702,o),
(234,806,cs),
(234,819,o),
(233,833,o),
(231,847,c),
(206,858,o),
(175,856,o),
(146,841,c),
(148,826,o),
(149,819,o),
(149,804,cs),
(149,746,o),
(121,719,o),
(61,715,c)
);
}
);
width = 300;
}
);
},
{
color = 6;
glyphname = cedillacomb;
lastChange = "2025-10-02 11:49:48 +0000";
layers = (
{
anchors = (
{
name = _bottom;
pos = (208,0);
}
);
layerId = "6DBDBFCA-DF26-4695-B281-FA25C6EAD80F";
shapes = (
{
closed = 1;
nodes = (
(286,-260,o),
(342,-218,o),
(342,-153,cs),
(342,-94,o),
(293,-55,o),
(210,-48,c),
(244,-69,l),
(249,7,l),
(169,7,l),
(162,-106,l),
(228,-111,o),
(258,-126,o),
(258,-151,cs),
(258,-175,o),
(235,-187,o),
(196,-187,cs),
(175,-187,o),
(153,-184,o),
(138,-180,c),
(123,-200,o),
(119,-225,o),
(127,-251,c),
(146,-257,o),
(173,-260,o),
(199,-260,cs)
);
}
);
width = 425;
}
);
unicode = 807;
},
{
color = 6;
glyphname = slashlongcomb;
lastChange = "2025-10-02 11:49:48 +0000";
layers = (
{
anchors = (
{
name = _center;
pos = (217,261);
}
);
layerId = "6DBDBFCA-DF26-4695-B281-FA25C6EAD80F";
shapes = (
{
closed = 1;
nodes = (
(11,-20,o),
(35,-34,o),
(65,-42,c),
(437,520,l),
(423,542,o),
(400,559,o),
(366,562,c),
(-6,5,l)
);
}
);
width = 432;
}
);
unicode = 824;
},
{
color = 6;
glyphname = slashlongcomb.case;
lastChange = "2025-10-02 11:49:48 +0000";
layers = (
{
anchors = (
{
name = _center;
pos = (216,361);
}
);
layerId = "6DBDBFCA-DF26-4695-B281-FA25C6EAD80F";
shapes = (
{
closed = 1;
nodes = (
(-52,-13,o),
(-17,-22,c),
(520,696,l),
(511,715,o),
(476,739,o),
(451,743,c),
(-87,27,l),
(-73,4,o)
);
}
);
width = 432;
}
);
},
{
color = 6;
export = 0;
glyphname = gravecomb.loclVIT;
lastChange = "2025-10-02 11:49:48 +0000";
layers = (
{
anchors = (
{
name = _top;
pos = (319,472);
},
{
name = _topright;
pos = (249,561);
}
);
layerId = "6DBDBFCA-DF26-4695-B281-FA25C6EAD80F";
shapes = (
{
closed = 1;
nodes = (
(239,694,o),
(210,673,o),
(198,646,c),
(314,503,l),
(343,512,o),
(370,534,o),
(380,561,c),
(268,699,l)
);
}
);
width = 550;
}
);
},
{
color = 6;
export = 0;
glyphname = acutecomb.loclVIT;
lastChange = "2025-10-02 11:49:48 +0000";
layers = (
{
anchors = (
{
name = _top;
pos = (250,472);
},
{
name = _topright;
pos = (198,563);
}
);
layerId = "6DBDBFCA-DF26-4695-B281-FA25C6EAD80F";
shapes = (
{
closed = 1;
nodes = (
(198,563,l),
(208,536,o),
(235,514,o),
(264,505,c),
(380,648,l),
(368,675,o),
(339,696,o),
(310,701,c)
);
}
);
width = 547;
}
);
},
{
color = 6;
export = 0;
glyphname = tildecomb.loclVIT;
lastChange = "2025-10-02 11:49:48 +0000";
layers = (
{
anchors = (
{
name = _top;
pos = (275,472);
},
{
name = top;
pos = (275,593);
}
);
guides = (
{
angle = 90;
pos = (164,895);
},
{
angle = 90;
pos = (510,895);
}
);
layerId = "6DBDBFCA-DF26-4695-B281-FA25C6EAD80F";
shapes = (
{
closed = 1;
nodes = (
(321,556,o),
(303,563,o),
(271,579,cs),
(238,596,o),
(228,601,o),
(215,601,cs),
(197,601,o),
(180,591,o),
(167,563,c),
(141,563,o),
(118,573,o),
(102,594,c),
(123,652,o),
(162,685,o),
(213,685,cs),
(242,685,o),
(257,675,o),
(283,661,cs),
(310,646,o),
(323,641,o),
(335,641,cs),
(353,641,o),
(371,650,o),
(383,679,c),
(409,679,o),
(432,669,o),
(448,648,c),
(427,589,o),
(391,556,o),
(343,556,cs)
);
}
);
width = 550;
}
);
},
{
color = 6;
export = 0;
glyphname = tildecomb.loclVIT.case;
lastChange = "2025-10-02 11:49:48 +0000";
layers = (
{
anchors = (
{
name = _top;
pos = (275,972);
},
{
name = top;
pos = (275,1093);
}
);
guides = (
{
angle = 90;
pos = (164,895);
},
{
angle = 90;
pos = (510,895);
}
);
layerId = "6DBDBFCA-DF26-4695-B281-FA25C6EAD80F";
shapes = (
{
closed = 1;
nodes = (
(334,1053,o),
(302,1067,o),
(269,1081,cs),
(239,1094,o),
(223,1099,o),
(206,1099,cs),
(184,1099,o),
(166,1089,o),
(152,1061,c),
(124,1061,o),
(100,1071,o),
(83,1092,c),
(107,1153,o),
(146,1183,o),
(202,1183,cs),
(236,1183,o),
(263,1171,o),
(289,1159,cs),
(320,1144,o),
(337,1138,o),
(356,1138,cs),
(376,1138,o),
(385,1148,o),
(397,1176,c),
(424,1176,o),
(449,1166,o),
(466,1145,c),
(444,1086,o),
(414,1053,o),
(365,1053,cs)
);
}
);
width = 550;
}
);
},
{
color = 6;
export = 0;
glyphname = hookabovecomb.loclVIT;
lastChange = "2025-10-02 11:49:48 +0000";
layers = (
{
anchors = (
{
name = _top;
pos = (272,472);
},
{
name = _topright;
pos = (205,566);
}
);
layerId = "6DBDBFCA-DF26-4695-B281-FA25C6EAD80F";
shapes = (
{
closed = 1;
nodes = (
(238,540,o),
(247,513,o),
(263,496,c),
(325,513,o),
(383,551,o),
(383,620,cs),
(383,681,o),
(338,723,o),
(252,723,cs),
(203,723,o),
(161,713,o),
(135,699,c),
(134,671,o),
(144,643,o),
(157,626,c),
(186,638,o),
(219,644,o),
(245,644,cs),
(279,644,o),
(294,632,o),
(294,612,cs),
(294,593,o),
(279,579,o),
(238,567,c)
);
}
);
width = 550;
}
);
},
{
color = 6;
export = 0;
glyphname = _part.AEcurs;
lastChange = "2025-10-02 11:49:48 +0000";
layers = (
{
anchors = (
{
name = bottom;
pos = (549,0);
},
{
name = top;
pos = (549,722);
}
);
layerId = "6DBDBFCA-DF26-4695-B281-FA25C6EAD80F";
shapes = (
{
closed = 1;
nodes = (
(488,312,ls),
(508,83,o),
(576,-14,o),
(717,-14,c),
(731,15,o),
(733,45,o),
(722,76,c),
(613,76,o),
(577,192,o),
(577,377,cs),
(577,537,o),
(642,644,o),
(736,644,cs),
(790,644,o),
(824,606,o),
(824,543,cs),
(824,419,o),
(725,348,o),
(550,348,cs),
(342,348,l),
(304,256,l),
(522,256,ls),
(777,256,o),
(916,365,o),
(916,542,cs),
(916,659,o),
(849,736,o),
(743,736,cs),
(613,736,o),
(516,626,o),
(493,434,c),
(552,573,l),
(537,709,l),
(504,731,o),
(442,731,o),
(413,718,c),
(350,542,o),
(284,365,o),
(212,189,cs),
(187,127,o),
(158,83,o),
(118,83,cs),
(97,83,o),
(83,89,o),
(52,109,c),
(28,96,o),
(13,68,o),
(10,31,c),
(36,8,o),
(84,-6,o),
(114,-6,cs),
(212,-6,o),
(259,66,o),
(304,174,cs),
(371,334,o),
(427,496,o),
(478,658,c),
(457,670,l)
);
}
);
width = 1037;
}
);
},
{
color = 6;
export = 0;
glyphname = _part.H;
lastChange = "2025-10-02 11:49:48 +0000";
layers = (
{
layerId = "6DBDBFCA-DF26-4695-B281-FA25C6EAD80F";
shapes = (
{
closed = 1;
nodes = (
(299,-14,o),
(352,46,o),
(352,142,cs),
(352,515,l),
(320,531,o),
(289,532,o),
(259,515,c),
(259,135,ls),
(259,95,o),
(244,72,o),
(218,72,cs),
(193,72,o),
(179,91,o),
(179,123,cs),
(179,187,o),
(231,237,o),
(336,273,cs),
(587,367,ls),
(728,416,o),
(809,495,o),
(809,599,cs),
(809,684,o),
(762,736,o),
(682,736,cs),
(596,736,o),
(544,672,o),
(544,565,cs),
(544,260,l),
(575,241,o),
(606,243,o),
(637,260,c),
(637,576,ls),
(637,622,o),
(653,650,o),
(680,650,cs),
(703,650,o),
(717,630,o),
(717,597,cs),
(717,535,o),
(666,488,o),
(560,451,cs),
(297,353,ls),
(180,312,o),
(88,228,o),
(88,122,cs),
(88,37,o),
(136,-14,o),
(216,-14,cs)
);
}
);
width = 890;
}
);
},
{
color = 6;
export = 0;
glyphname = _part.M;
lastChange = "2025-10-02 11:49:48 +0000";
layers = (
{
guides = (
{
pos = (493,530);
}
);
layerId = "6DBDBFCA-DF26-4695-B281-FA25C6EAD80F";
name = Regular;
shapes = (
{
closed = 1;
nodes = (
(309,256,o),
(348,468,o),
(380,650,c),
(360,653,l),
(395,444,o),
(464,143,o),
(502,0,c),
(535,-11,o),
(569,-12,o),
(604,0,c),
(644,146,o),
(718,462,o),
(749,653,c),
(727,650,l),
(746,536,o),
(790,302,o),
(822,184,cs),
(854,65,o),
(894,-14,o),
(989,-14,cs),
(1074,-14,o),
(1122,48,o),
(1127,166,c),
(1100,178,o),
(1067,180,o),
(1041,173,c),
(1035,105,o),
(1020,74,o),
(990,74,cs),
(956,74,o),
(935,115,o),
(902,244,cs),
(868,375,o),
(826,586,o),
(804,721,c),
(764,738,o),
(707,737,o),
(675,722,c),
(637,532,o),
(590,312,o),
(544,137,c),
(563,137,l),
(518,312,o),
(475,532,o),
(432,722,c),
(395,737,o),
(343,736,o),
(304,722,c),
(278,580,o),
(236,334,o),
(186,187,cs),
(159,108,o),
(139,83,o),
(98,83,cs),
(76,83,o),
(53,90,o),
(14,107,c),
(-8,92,o),
(-20,62,o),
(-19,25,c),
(19,5,o),
(63,-6,o),
(104,-6,cs),
(185,-6,o),
(233,38,o),
(271,147,cs)
);
}
);
width = 1124;
}
);
},
{
color = 3;
export = 0;
glyphname = _part.U;
lastChange = "2025-10-02 11:49:49 +0000";
layers = (
{
anchors = (
{
name = "#fina";
pos = (674,150);
},
{
name = bottom;
pos = (482,0);
},
{
name = top;
pos = (482,722);
}
);
layerId = "6DBDBFCA-DF26-4695-B281-FA25C6EAD80F";
name = Regular;
shapes = (
{
closed = 1;
nodes = (
(280,533,o),
(249,531,o),
(229,520,c),
(229,247,ls),
(229,75,o),
(303,-14,o),
(451,-14,cs),
(598,-14,o),
(694,83,o),
(729,210,c),
(665,150,l),
(767,150,l),
(766,722,l),
(733,731,o),
(703,731,o),
(673,722,c),
(673,396,ls),
(673,216,o),
(605,76,o),
(458,76,cs),
(363,76,o),
(322,133,o),
(322,254,cs),
(322,520,l)
);
},
{
pos = (-1,0);
ref = _part.caps.U.entry;
}
);
width = 827;
}
);
},
{
color = 6;
export = 0;
glyphname = _part.a;
lastChange = "2025-10-02 11:49:48 +0000";
layers = (
{
anchors = (
{
name = bottom;
pos = (304,0);
},
{
name = top;
pos = (306,472);
}
);
layerId = "6DBDBFCA-DF26-4695-B281-FA25C6EAD80F";
shapes = (
{
closed = 1;
nodes = (
(402,-14,o),
(491,94,o),
(489,248,c),
(508,248,l),
(508,477,l),
(493,482,o),
(479,484,o),
(463,484,cs),
(446,484,o),
(429,481,o),
(417,477,c),
(417,228,ls),
(417,135,o),
(361,72,o),
(277,72,cs),
(201,72,o),
(155,129,o),
(155,224,cs),
(155,326,o),
(216,400,o),
(302,400,cs),
(356,400,o),
(412,363,o),
(432,313,c),
(432,417,l),
(405,459,o),
(347,486,o),
(291,486,cs),
(159,486,o),
(62,375,o),
(62,224,cs),
(62,83,o),
(147,-14,o),
(273,-14,cs)
);
}
);
width = 674;
}
);
},
{
color = 3;
export = 0;
glyphname = _part.ae;
lastChange = "2025-10-02 11:49:49 +0000";
layers = (
{
anchors = (
{
name = "#fina";
pos = (648,71);
}
);
layerId = "6DBDBFCA-DF26-4695-B281-FA25C6EAD80F";
shapes = (
{
closed = 1;
nodes = (
(664,-14,o),
(678,2,o),
(678,28,cs),
(678,53,o),
(666,71,o),
(648,71,cs),
(551,71,o),
(481,143,o),
(481,244,cs),
(481,341,o),
(527,404,o),
(599,404,cs),
(635,404,o),
(665,379,o),
(665,346,cs),
(665,296,o),
(606,262,o),
(519,262,cs),
(500,262,o),
(480,264,o),
(455,269,c),
(450,188,l),
(489,183,o),
(503,182,o),
(519,182,cs),
(660,182,o),
(751,249,o),
(751,351,cs),
(751,429,o),
(686,487,o),
(599,487,cs),
(484,487,o),
(404,388,o),
(404,243,cs),
(404,87,o),
(497,-14,o),
(641,-14,cs)
);
},
{
alignment = -1;
pos = (-27,0);
ref = _part.a;
}
);
width = 749;
}
);
metricLeft = a.init;
metricRight = e.medi.cv02;
},
{
color = 3;
export = 0;
glyphname = _part.b;
lastChange = "2025-10-02 11:49:49 +0000";
layers = (
{
anchors = (
{
name = "#fina";
pos = (526,390);
}
);
layerId = "6DBDBFCA-DF26-4695-B281-FA25C6EAD80F";
shapes = (
{
closed = 1;
nodes = (
(144,520,o),
(172,520,o),
(202,533,c),
(202,675,ls),
(202,763,o),
(202,812,o),
(213,848,cs),
(224,884,o),
(243,903,o),
(270,903,cs),
(318,903,o),
(343,848,o),
(343,742,c),
(379,735,o),
(404,734,o),
(432,741,c),
(432,890,o),
(377,986,o),
(274,986,cs),
(208,986,o),
(153,946,o),
(131,882,cs),
(114,833,o),
(114,764,o),
(114,663,cs),
(114,533,l)
);
},
{
ref = _part.b.bottom;
}
);
width = 652;
},
{
anchors = (
{
name = "#fina";
pos = (531,390);
}
);
associatedMasterId = "6DBDBFCA-DF26-4695-B281-FA25C6EAD80F";
attr = {
coordinates = (
853,
920
);
};
layerId = "16C319F8-813A-475C-B40F-43E63C0C7F2D";
name = "13. Nov 24 at 17:49";
shapes = (
{
closed = 1;
nodes = (
(144,520,o),
(173,520,o),
(203,533,c),
(203,609,ls),
(203,697,o),
(203,746,o),
(214,782,cs),
(225,818,o),
(245,837,o),
(272,837,cs),
(319,837,o),
(343,782,o),
(343,676,c),
(379,669,o),
(404,668,o),
(432,675,c),
(432,824,o),
(377,920,o),
(274,920,cs),
(208,920,o),
(153,880,o),
(131,816,cs),
(114,767,o),
(114,698,o),
(114,597,cs),
(114,533,l)
);
},
{
ref = _part.b.bottom;
}
);
width = 657;
},
{
anchors = (
{
name = "#fina";
pos = (531,390);
}
);
associatedMasterId = "6DBDBFCA-DF26-4695-B281-FA25C6EAD80F";
attr = {
coordinates = (
986,
986
);
};
layerId = "597B03CC-9FE4-4F6F-AF39-4FA3C604B5C0";
name = "11. Dec 24 at 20:20";
shapes = (
{
closed = 1;
nodes = (
(144,520,o),
(172,520,o),
(202,533,c),
(202,675,ls),
(202,763,o),
(202,812,o),
(213,848,cs),
(224,884,o),
(243,903,o),
(270,903,cs),
(318,903,o),
(343,848,o),
(343,742,c),
(379,735,o),
(404,734,o),
(432,741,c),
(432,890,o),
(377,986,o),
(274,986,cs),
(208,986,o),
(153,946,o),
(131,882,cs),
(114,833,o),
(114,764,o),
(114,663,cs),
(114,533,l)
);
},
{
ref = _part.b.bottom;
}
);
width = 657;
}
);
},
{
color = 6;
export = 0;
glyphname = _part.b.bottom;
lastChange = "2025-10-02 11:49:48 +0000";
layers = (
{
layerId = "6DBDBFCA-DF26-4695-B281-FA25C6EAD80F";
shapes = (
{
closed = 1;
nodes = (
(465,-10,o),
(574,136,o),
(574,347,cs),
(574,428,o),
(556,461,o),
(513,461,cs),
(471,461,o),
(429,429,o),
(414,385,c),
(431,359,o),
(473,326,o),
(530,295,c),
(485,341,l),
(485,191,o),
(410,75,o),
(313,75,cs),
(274,75,o),
(242,92,o),
(225,121,cs),
(210,145,o),
(202,184,o),
(202,236,cs),
(202,533,l),
(171,545,o),
(143,545,o),
(114,533,c),
(114,261,ls),
(114,161,o),
(127,103,o),
(161,58,cs),
(196,13,o),
(246,-10,o),
(308,-10,cs)
);
}
);
width = 657;
}
);
},
{
color = 6;
export = 0;
glyphname = _part.b.fin;
lastChange = "2025-10-02 11:49:48 +0000";
layers = (
{
anchors = (
{
name = "_#fina";
pos = (99,408);
}
);
layerId = "6DBDBFCA-DF26-4695-B281-FA25C6EAD80F";
shapes = (
{
closed = 1;
nodes = (
(162,321,o),
(218,331,o),
(253,341,c),
(255,369,o),
(245,403,o),
(231,426,c),
(197,414,o),
(133,408,o),
(99,408,c),
(99,321,l)
);
}
);
width = 359;
}
);
},
{
color = 6;
export = 0;
glyphname = _part.b.in;
lastChange = "2025-10-02 11:49:48 +0000";
layers = (
{
layerId = "6DBDBFCA-DF26-4695-B281-FA25C6EAD80F";
shapes = (
{
closed = 1;
nodes = (
(52,-14,o),
(127,33,o),
(201,135,c),
(151,211,l),
(95,125,o),
(26,72,o),
(-29,72,cs),
(-50,72,o),
(-64,55,o),
(-64,29,cs),
(-64,4,o),
(-52,-14,o),
(-35,-14,cs)
);
},
{
closed = 1;
nodes = (
(351,308,o),
(432,540,o),
(432,741,c),
(402,745,o),
(372,746,o),
(343,742,c),
(343,574,o),
(283,382,o),
(171,208,c),
(207,129,l)
);
}
);
width = 462;
},
{
associatedMasterId = "6DBDBFCA-DF26-4695-B281-FA25C6EAD80F";
attr = {
coordinates = (
853,
920
);
};
layerId = "104C7B77-14DD-4144-949C-849812E2EA3D";
name = "13. Nov 24 at 17:42";
shapes = (
{
closed = 1;
nodes = (
(52,-14,o),
(127,33,o),
(201,135,c),
(151,211,l),
(95,125,o),
(26,72,o),
(-29,72,cs),
(-50,72,o),
(-64,55,o),
(-64,29,cs),
(-64,4,o),
(-52,-14,o),
(-35,-14,cs)
);
},
{
closed = 1;
nodes = (
(351,289,o),
(432,478,o),
(432,675,c),
(402,679,o),
(372,680,o),
(343,676,c),
(343,513,o),
(284,361,o),
(170,208,c),
(207,129,l)
);
}
);
width = 462;
},
{
associatedMasterId = "6DBDBFCA-DF26-4695-B281-FA25C6EAD80F";
attr = {
coordinates = (
986,
986
);
};
layerId = "89A9B5B9-5CDE-4E66-854C-9D1A77444808";
name = "11. Dec 24 at 20:20";
shapes = (
{
closed = 1;
nodes = (
(52,-14,o),
(127,33,o),
(201,135,c),
(151,211,l),
(95,125,o),
(26,72,o),
(-29,72,cs),
(-50,72,o),
(-64,55,o),
(-64,29,cs),
(-64,4,o),
(-52,-14,o),
(-35,-14,cs)
);
},
{
closed = 1;
nodes = (
(351,308,o),
(432,540,o),
(432,741,c),
(402,745,o),
(372,746,o),
(343,742,c),
(343,574,o),
(283,382,o),
(171,208,c),
(207,129,l)
);
}
);
width = 462;
}
);
},
{
color = 6;
export = 0;
glyphname = _part.b.in.cv01;
lastChange = "2025-10-02 11:49:48 +0000";
layers = (
{
layerId = "6DBDBFCA-DF26-4695-B281-FA25C6EAD80F";
shapes = (
{
closed = 1;
nodes = (
(347,302,o),
(420,503,o),
(420,741,c),
(391,748,o),
(363,748,o),
(331,742,c),
(331,549,o),
(267,350,o),
(162,210,c),
(194,129,l)
);
},
{
closed = 1;
nodes = (
(-4,-14,o),
(103,37,o),
(178,130,c),
(133,213,l),
(56,116,o),
(-22,71,o),
(-113,71,cs),
(-134,71,o),
(-148,55,o),
(-148,29,cs),
(-148,4,o),
(-136,-14,o),
(-118,-14,cs)
);
}
);
width = 619;
},
{
associatedMasterId = "6DBDBFCA-DF26-4695-B281-FA25C6EAD80F";
attr = {
coordinates = (
853,
920
);
};
layerId = "652E29EC-0097-4B6A-B1B7-1B04DE70D607";
name = "13. Nov 24 at 17:46";
shapes = (
{
closed = 1;
nodes = (
(342,282,o),
(420,466,o),
(420,675,c),
(391,682,o),
(363,682,o),
(331,676,c),
(331,511,o),
(266,339,o),
(161,210,c),
(194,130,l)
);
},
{
closed = 1;
nodes = (
(-4,-14,o),
(99,37,o),
(179,129,c),
(133,213,l),
(59,119,o),
(-21,71,o),
(-113,71,cs),
(-134,71,o),
(-148,55,o),
(-148,29,cs),
(-148,4,o),
(-136,-14,o),
(-118,-14,cs)
);
}
);
width = 619;
},
{
associatedMasterId = "6DBDBFCA-DF26-4695-B281-FA25C6EAD80F";
attr = {
coordinates = (
986,
986
);
};
layerId = "FFC0D90E-A0DA-490E-AA93-5A80C9A41D4A";
name = "11. Dec 24 at 20:21";
shapes = (
{
closed = 1;
nodes = (
(347,302,o),
(420,503,o),
(420,741,c),
(391,748,o),
(363,748,o),
(331,742,c),
(331,549,o),
(267,350,o),
(162,210,c),
(194,129,l)
);
},
{
closed = 1;
nodes = (
(-4,-14,o),
(103,37,o),
(178,130,c),
(133,213,l),
(56,116,o),
(-22,71,o),
(-113,71,cs),
(-134,71,o),
(-148,55,o),
(-148,29,cs),
(-148,4,o),
(-136,-14,o),
(-118,-14,cs)
);
}
);
width = 619;
}
);
},
{
color = 6;
export = 0;
glyphname = _part.b.in.cv02;
lastChange = "2025-10-02 11:49:48 +0000";
layers = (
{
layerId = "6DBDBFCA-DF26-4695-B281-FA25C6EAD80F";
shapes = (
{
closed = 1;
nodes = (
(76,413,l),
(12,392,o),
(-49,379,o),
(-110,379,cs),
(-137,379,ls),
(-149,379,o),
(-160,368,o),
(-160,344,cs),
(-160,309,o),
(-140,300,o),
(-93,300,cs),
(-33,300,o),
(54,317,o),
(106,339,c)
);
},
{
closed = 1;
nodes = (
(137,345,l),
(274,407,o),
(373,550,o),
(373,741,c),
(358,749,o),
(306,750,o),
(284,742,c),
(284,582,o),
(202,458,o),
(94,416,c)
);
}
);
width = 572;
},
{
associatedMasterId = "6DBDBFCA-DF26-4695-B281-FA25C6EAD80F";
attr = {
coordinates = (
853,
920
);
};
layerId = "F176CFB3-F636-4115-B5F2-DDA937B3CF97";
name = "13. Nov 24 at 17:47";
shapes = (
{
closed = 1;
nodes = (
(76,413,l),
(12,392,o),
(-49,379,o),
(-110,379,cs),
(-137,379,ls),
(-149,379,o),
(-160,368,o),
(-160,344,cs),
(-160,309,o),
(-140,300,o),
(-93,300,cs),
(-33,300,o),
(54,317,o),
(106,339,c)
);
},
{
closed = 1;
nodes = (
(137,345,l),
(274,394,o),
(373,514,o),
(373,675,c),
(358,683,o),
(306,684,o),
(284,676,c),
(284,546,o),
(202,448,o),
(94,416,c)
);
}
);
width = 572;
}
);
},
{
color = 6;
export = 0;
glyphname = _part.b.in.cv03;
lastChange = "2025-10-02 11:49:48 +0000";
layers = (
{
layerId = "6DBDBFCA-DF26-4695-B281-FA25C6EAD80F";
shapes = (
{
closed = 1;
nodes = (
(281,301,o),
(370,517,o),
(370,741,c),
(351,747,o),
(305,749,o),
(281,742,c),
(281,545,o),
(212,373,o),
(122,246,c),
(145,149,l)
);
},
{
closed = 1;
nodes = (
(-120,-68,o),
(-114,-62,o),
(-97,-46,cs),
(-82,-31,o),
(-58,-14,o),
(-37,2,cs),
(46,69,o),
(105,124,o),
(132,161,c),
(104,261,l),
(76,213,o),
(24,166,o),
(-41,111,cs),
(-73,85,o),
(-116,52,o),
(-157,19,cs),
(-173,6,o),
(-180,-6,o),
(-180,-19,cs),
(-180,-38,o),
(-151,-68,o),
(-128,-68,cs)
);
}
);
width = 569;
},
{
associatedMasterId = "6DBDBFCA-DF26-4695-B281-FA25C6EAD80F";
attr = {
coordinates = (
853,
920
);
};
layerId = "56CA71ED-02A8-477E-A578-879FE6B5D07F";
name = "13. Nov 24 at 17:51";
shapes = (
{
closed = 1;
nodes = (
(286,279,o),
(370,469,o),
(370,675,c),
(351,681,o),
(305,683,o),
(281,676,c),
(281,497,o),
(207,342,o),
(122,245,c),
(145,150,l)
);
},
{
closed = 1;
nodes = (
(-120,-68,o),
(-114,-62,o),
(-97,-46,cs),
(-82,-31,o),
(-58,-14,o),
(-37,2,cs),
(46,69,o),
(105,124,o),
(132,161,c),
(104,261,l),
(76,213,o),
(24,166,o),
(-41,111,cs),
(-73,85,o),
(-116,52,o),
(-157,19,cs),
(-173,6,o),
(-180,-6,o),
(-180,-19,cs),
(-180,-38,o),
(-151,-68,o),
(-128,-68,cs)
);
}
);
width = 569;
},
{
associatedMasterId = "6DBDBFCA-DF26-4695-B281-FA25C6EAD80F";
attr = {
coordinates = (
986,
986
);
};
layerId = "86004DA4-1EAB-4002-9830-5C43E5643931";
name = "11. Dec 24 at 20:21";
shapes = (
{
closed = 1;
nodes = (
(281,301,o),
(370,517,o),
(370,741,c),
(351,747,o),
(305,749,o),
(281,742,c),
(281,545,o),
(212,373,o),
(122,246,c),
(145,149,l)
);
},
{
closed = 1;
nodes = (
(-120,-68,o),
(-114,-62,o),
(-97,-46,cs),
(-82,-31,o),
(-58,-14,o),
(-37,2,cs),
(46,69,o),
(105,124,o),
(132,161,c),
(104,261,l),
(76,213,o),
(24,166,o),
(-41,111,cs),
(-73,85,o),
(-116,52,o),
(-157,19,cs),
(-173,6,o),
(-180,-6,o),
(-180,-19,cs),
(-180,-38,o),
(-151,-68,o),
(-128,-68,cs)
);
}
);
width = 569;
}
);
},
